M48
; DRILL file {KiCad 7.0.1} date Thu Oct 12 07:55:44 2023
; FORMAT={-:-/ absolute / metric / decimal}
; #@! TF.CreationDate,2023-10-12T07:55:44+02:00
; #@! TF.GenerationSoftware,Kicad,Pcbnew,7.0.1
; #@! TF.FileFunction,Plated,1,4,PTH
FMAT,2
METRIC
; #@! TA.AperFunction,Plated,PTH,ViaDrill
T1C0.200
; #@! TA.AperFunction,Plated,PTH,ViaDrill
T2C0.250
; #@! TA.AperFunction,Plated,PTH,ComponentDrill
T3C0.650
; #@! TA.AperFunction,Plated,PTH,ComponentDrill
T4C0.700
; #@! TA.AperFunction,Plated,PTH,ComponentDrill
T5C0.800
; #@! TA.AperFunction,Plated,PTH,ComponentDrill
T6C0.870
; #@! TA.AperFunction,Plated,PTH,ComponentDrill
T7C1.000
; #@! TA.AperFunction,Plated,PTH,ComponentDrill
T8C1.200
%
G90
G05
T1
X101.092Y-133.096
X102.768Y-117.069
X105.359Y-116.103
X106.807Y-96.52
X108.423Y-95.85
X109.728Y-95.251
X110.045Y-133.212
X110.121Y-135.65
X110.998Y-94.65
X111.391Y-135.65
X111.442Y-137.911
X112.661Y-137.047
X116.852Y-131.992
X116.899Y-93.726
X117.094Y-94.65
X117.094Y-100.457
X117.094Y-101.156
X118.872Y-92.202
X121.017Y-92.71
X121.666Y-97.028
X121.666Y-108.458
X121.717Y-92.964
X122.428Y-93.218
X123.063Y-96.266
X123.063Y-97.155
X123.127Y-93.472
X124.841Y-100.076
X124.841Y-100.838
X125.158Y-140.755
X125.158Y-141.517
X125.476Y-99.441
X126.111Y-95.25
X126.365Y-108.966
X127.275Y-115.041
X127.473Y-96.52
X128.143Y-115.062
X128.333Y-92.745
X128.346Y-113.411
X129.159Y-90.17
X129.159Y-113.411
X129.235Y-118.11
X129.794Y-89.57
X129.921Y-93.345
X130.048Y-118.11
X130.759Y-118.11
X131.826Y-107.823
X132.715Y-107.823
X133.477Y-95.377
X133.604Y-96.139
X134.473Y-95.138
X134.595Y-97.511
X134.874Y-96.266
X135.608Y-98.147
X135.636Y-99.825
X136.525Y-101.092
X138.176Y-84.516
X138.278Y-85.665
X138.379Y-83.367
X138.633Y-96.266
X139.065Y-86.306
X139.192Y-85.156
X139.453Y-84.007
X141.097Y-106.426
X141.097Y-112.776
X145.313Y-83.337
X147.718Y-132.243
X148.59Y-95.25
X149.902Y-133.842
X151.142Y-138.19
X151.892Y-86.614
X151.892Y-88.138
X153.924Y-81.026
T2
X105.41Y-135.763
X106.68Y-134.366
X106.68Y-135.763
X106.692Y-132.969
X108.204Y-134.366
X108.204Y-135.763
X111.608Y-126.086
X111.76Y-128.905
X111.76Y-129.921
X112.776Y-128.905
X112.776Y-129.921
X113.311Y-134.366
X113.311Y-135.89
X113.792Y-128.905
X113.792Y-129.921
X115.074Y-139.206
X116.586Y-126.111
X116.713Y-135.382
X116.713Y-136.779
X117.729Y-142.748
X117.856Y-112.928
X117.856Y-113.944
X117.907Y-86.319
X118.618Y-134.874
X118.618Y-136.779
X118.618Y-138.684
X118.974Y-112.928
X118.974Y-113.919
X119.939Y-144.983
X120.015Y-112.928
X120.015Y-113.944
X120.523Y-134.874
X120.523Y-136.779
X120.523Y-138.684
X120.691Y-85.357
X120.701Y-83.782
X120.701Y-87.084
X121.412Y-142.748
X122.301Y-113.919
X122.301Y-116.967
X122.428Y-134.874
X122.428Y-136.779
X122.428Y-138.684
X122.428Y-140.589
X123.419Y-113.894
X123.444Y-116.967
X123.444Y-142.113
X123.571Y-84.468
X123.673Y-144.983
X124.206Y-89.916
X124.206Y-128.143
X124.206Y-130.048
X124.206Y-132.08
X124.206Y-134.493
X124.333Y-143.51
X124.46Y-113.919
X125.603Y-133.096
X125.869Y-135.879
X125.869Y-137.047
X127.012Y-137.428
X127.014Y-115.951
X127.102Y-144.983
X128.766Y-85.98
X129.044Y-135.904
X129.134Y-88.798
X130.556Y-126.365
X130.556Y-127.254
X130.556Y-129.032
X130.912Y-144.983
X131.064Y-104.902
X131.064Y-106.426
X131.559Y-87.109
X131.572Y-83.82
X131.572Y-85.395
X131.572Y-126.365
X131.572Y-127.254
X131.953Y-117.983
X131.953Y-119.126
X132.461Y-87.757
X132.715Y-126.365
X132.715Y-127.254
X133.731Y-126.365
X133.731Y-127.254
X133.731Y-141.097
X133.985Y-130.505
X133.985Y-131.394
X134.328Y-101.854
X134.366Y-87.757
X134.366Y-91.313
X134.366Y-106.172
X134.874Y-94.488
X135.001Y-130.505
X135.001Y-131.394
X135.098Y-115.57
X135.128Y-80.137
X135.128Y-101.854
X135.382Y-113.919
X135.534Y-126.848
X135.534Y-127.864
X136.525Y-141.097
X136.601Y-126.848
X136.601Y-127.889
X136.652Y-108.825
X136.906Y-105.664
X137.287Y-113.919
X137.807Y-126.887
X137.807Y-127.903
X138.684Y-88.265
X138.811Y-90.678
X138.823Y-126.887
X138.823Y-127.903
X139.319Y-113.919
X139.319Y-141.097
X139.319Y-145.415
X139.446Y-96.647
X139.67Y-115.57
X139.7Y-79.604
X139.839Y-126.887
X139.839Y-127.903
X140.208Y-105.664
X140.259Y-95.961
X140.506Y-88.93
X140.589Y-97.155
X140.691Y-90.68
X141.783Y-78.791
X141.783Y-79.604
X141.859Y-102.362
X142.113Y-141.097
X142.113Y-143.256
X142.113Y-145.415
X143.256Y-94.742
X143.395Y-128.665
X143.395Y-130.062
X143.395Y-131.586
X143.51Y-81.534
X144.145Y-93.322
X145.364Y-92.204
X146.033Y-98.135
X146.202Y-77.927
X146.558Y-81.788
X146.558Y-131.318
X146.558Y-136.906
X146.927Y-96.139
X146.939Y-103.124
X147.828Y-80.061
X147.828Y-82.245
X147.828Y-87.833
X147.828Y-89.611
X147.943Y-100.457
X148.602Y-136.158
X148.654Y-108.585
X148.844Y-140.208
X150.012Y-80.061
X150.012Y-89.611
X150.876Y-93.0
X150.876Y-101.89
X150.876Y-110.78
X151.892Y-132.842
X152.197Y-80.061
X152.197Y-89.611
X152.666Y-140.222
X152.666Y-144.286
X154.381Y-80.061
X154.381Y-89.611
X155.194Y-137.16
X155.448Y-132.842
X156.464Y-82.194
X156.464Y-87.478
X156.566Y-80.061
X156.566Y-89.611
X156.73Y-140.222
X156.885Y-93.0
X156.885Y-101.89
X156.885Y-110.78
X157.988Y-82.194
X157.988Y-87.478
X158.75Y-80.061
X158.75Y-89.611
T5
X143.542Y-105.41
X143.542Y-107.41
X143.542Y-109.41
X143.542Y-111.41
X143.542Y-113.41
X145.542Y-105.41
X145.542Y-107.41
X145.542Y-109.41
X145.542Y-111.41
X145.542Y-113.41
T6
X104.0Y-119.44
X104.0Y-120.94
X104.0Y-122.44
X104.0Y-123.94
X104.0Y-125.44
X104.0Y-126.94
X156.0Y-119.44
X156.0Y-120.94
X156.0Y-122.44
X156.0Y-123.94
X156.0Y-125.44
X156.0Y-126.94
T7
X103.04Y-80.766
X103.04Y-82.766
X103.04Y-84.766
X103.04Y-86.766
X103.04Y-93.212
X103.04Y-95.212
X103.04Y-97.212
X103.04Y-99.212
X103.048Y-105.664
X103.048Y-107.664
X103.048Y-109.664
X103.048Y-111.664
X110.998Y-101.087
X110.998Y-103.627
X110.998Y-106.167
X110.998Y-108.707
X110.998Y-111.247
X110.998Y-113.787
X110.998Y-116.327
X110.998Y-118.867
X113.538Y-101.087
X113.538Y-103.627
X113.538Y-106.167
X113.538Y-108.707
X113.538Y-111.247
X113.538Y-113.787
X113.538Y-116.327
X113.538Y-118.867
X116.586Y-74.666
X116.586Y-77.206
X119.126Y-74.666
X119.126Y-77.206
X121.666Y-74.666
X121.666Y-77.206
X124.206Y-74.666
X124.206Y-77.206
X126.746Y-74.666
X126.746Y-77.206
X138.294Y-72.56
X140.294Y-72.56
X142.294Y-72.56
X144.294Y-72.56
X146.294Y-72.56
T8
X135.648Y-143.191
X139.148Y-143.191
T3
X144.621Y-142.333G85X144.621Y-141.933
G05
X149.461Y-142.333G85X149.461Y-141.933
G05
T4
X144.311Y-145.383G85X144.311Y-144.883
G05
X149.771Y-145.383G85X149.771Y-144.883
G05
T0
M30
