%TF.GenerationSoftware,KiCad,Pcbnew,7.0.1*%
%TF.CreationDate,2023-10-12T07:56:20+02:00*%
%TF.ProjectId,Drv_board,4472765f-626f-4617-9264-2e6b69636164,rev?*%
%TF.SameCoordinates,Original*%
%TF.FileFunction,Drillmap*%
%TF.FilePolarity,Positive*%
%FSLAX45Y45*%
G04 Gerber Fmt 4.5, Leading zero omitted, Abs format (unit mm)*
G04 Created by KiCad (PCBNEW 7.0.1) date 2023-10-12 07:56:20*
%MOMM*%
%LPD*%
G01*
G04 APERTURE LIST*
%ADD10C,0.100000*%
%ADD11C,0.200000*%
G04 APERTURE END LIST*
D10*
X15750000Y-7400000D02*
G75*
G03*
X15750000Y-7400000I-150000J0D01*
G01*
X10399996Y-14701218D02*
X15600247Y-14698779D01*
X10000000Y-14300000D02*
G75*
G03*
X10399996Y-14701218I401220J0D01*
G01*
X10400000Y-7000000D02*
G75*
G03*
X10000000Y-7400000I0J-400000D01*
G01*
X10550000Y-7400000D02*
G75*
G03*
X10550000Y-7400000I-150000J0D01*
G01*
X16000000Y-14300000D02*
X16000000Y-7400000D01*
X15600247Y-14698779D02*
G75*
G03*
X16000000Y-14300000I973J398779D01*
G01*
X10000000Y-7400000D02*
X10000000Y-14300000D01*
X15751220Y-14300000D02*
G75*
G03*
X15751220Y-14300000I-150000J0D01*
G01*
X15600000Y-7000000D02*
X10400000Y-7000000D01*
X10551220Y-14300000D02*
G75*
G03*
X10551220Y-14300000I-150000J0D01*
G01*
X16000000Y-7400000D02*
G75*
G03*
X15600000Y-7000000I-400000J0D01*
G01*
D11*
X10242619Y-15018742D02*
X10242619Y-14818742D01*
X10242619Y-14818742D02*
X10290238Y-14818742D01*
X10290238Y-14818742D02*
X10318810Y-14828266D01*
X10318810Y-14828266D02*
X10337857Y-14847313D01*
X10337857Y-14847313D02*
X10347381Y-14866361D01*
X10347381Y-14866361D02*
X10356905Y-14904456D01*
X10356905Y-14904456D02*
X10356905Y-14933028D01*
X10356905Y-14933028D02*
X10347381Y-14971123D01*
X10347381Y-14971123D02*
X10337857Y-14990170D01*
X10337857Y-14990170D02*
X10318810Y-15009218D01*
X10318810Y-15009218D02*
X10290238Y-15018742D01*
X10290238Y-15018742D02*
X10242619Y-15018742D01*
X10442619Y-15018742D02*
X10442619Y-14885408D01*
X10442619Y-14923504D02*
X10452143Y-14904456D01*
X10452143Y-14904456D02*
X10461667Y-14894932D01*
X10461667Y-14894932D02*
X10480714Y-14885408D01*
X10480714Y-14885408D02*
X10499762Y-14885408D01*
X10566429Y-15018742D02*
X10566429Y-14885408D01*
X10566429Y-14818742D02*
X10556905Y-14828266D01*
X10556905Y-14828266D02*
X10566429Y-14837789D01*
X10566429Y-14837789D02*
X10575952Y-14828266D01*
X10575952Y-14828266D02*
X10566429Y-14818742D01*
X10566429Y-14818742D02*
X10566429Y-14837789D01*
X10690238Y-15018742D02*
X10671190Y-15009218D01*
X10671190Y-15009218D02*
X10661667Y-14990170D01*
X10661667Y-14990170D02*
X10661667Y-14818742D01*
X10795000Y-15018742D02*
X10775952Y-15009218D01*
X10775952Y-15009218D02*
X10766429Y-14990170D01*
X10766429Y-14990170D02*
X10766429Y-14818742D01*
X11023571Y-15018742D02*
X11023571Y-14818742D01*
X11023571Y-14818742D02*
X11090238Y-14961599D01*
X11090238Y-14961599D02*
X11156905Y-14818742D01*
X11156905Y-14818742D02*
X11156905Y-15018742D01*
X11337857Y-15018742D02*
X11337857Y-14913980D01*
X11337857Y-14913980D02*
X11328333Y-14894932D01*
X11328333Y-14894932D02*
X11309286Y-14885408D01*
X11309286Y-14885408D02*
X11271190Y-14885408D01*
X11271190Y-14885408D02*
X11252143Y-14894932D01*
X11337857Y-15009218D02*
X11318809Y-15018742D01*
X11318809Y-15018742D02*
X11271190Y-15018742D01*
X11271190Y-15018742D02*
X11252143Y-15009218D01*
X11252143Y-15009218D02*
X11242619Y-14990170D01*
X11242619Y-14990170D02*
X11242619Y-14971123D01*
X11242619Y-14971123D02*
X11252143Y-14952075D01*
X11252143Y-14952075D02*
X11271190Y-14942551D01*
X11271190Y-14942551D02*
X11318809Y-14942551D01*
X11318809Y-14942551D02*
X11337857Y-14933028D01*
X11433095Y-14885408D02*
X11433095Y-15085408D01*
X11433095Y-14894932D02*
X11452143Y-14885408D01*
X11452143Y-14885408D02*
X11490238Y-14885408D01*
X11490238Y-14885408D02*
X11509286Y-14894932D01*
X11509286Y-14894932D02*
X11518809Y-14904456D01*
X11518809Y-14904456D02*
X11528333Y-14923504D01*
X11528333Y-14923504D02*
X11528333Y-14980647D01*
X11528333Y-14980647D02*
X11518809Y-14999694D01*
X11518809Y-14999694D02*
X11509286Y-15009218D01*
X11509286Y-15009218D02*
X11490238Y-15018742D01*
X11490238Y-15018742D02*
X11452143Y-15018742D01*
X11452143Y-15018742D02*
X11433095Y-15009218D01*
X11614048Y-14999694D02*
X11623571Y-15009218D01*
X11623571Y-15009218D02*
X11614048Y-15018742D01*
X11614048Y-15018742D02*
X11604524Y-15009218D01*
X11604524Y-15009218D02*
X11614048Y-14999694D01*
X11614048Y-14999694D02*
X11614048Y-15018742D01*
X11614048Y-14894932D02*
X11623571Y-14904456D01*
X11623571Y-14904456D02*
X11614048Y-14913980D01*
X11614048Y-14913980D02*
X11604524Y-14904456D01*
X11604524Y-14904456D02*
X11614048Y-14894932D01*
X11614048Y-14894932D02*
X11614048Y-14913980D01*
M02*
