G04 #@! TF.GenerationSoftware,KiCad,Pcbnew,7.0.1*
G04 #@! TF.CreationDate,2023-10-12T07:55:19+02:00*
G04 #@! TF.ProjectId,Drv_board,4472765f-626f-4617-9264-2e6b69636164,rev?*
G04 #@! TF.SameCoordinates,Original*
G04 #@! TF.FileFunction,Soldermask,Top*
G04 #@! TF.FilePolarity,Negative*
%FSLAX46Y46*%
G04 Gerber Fmt 4.6, Leading zero omitted, Abs format (unit mm)*
G04 Created by KiCad (PCBNEW 7.0.1) date 2023-10-12 07:55:19*
%MOMM*%
%LPD*%
G01*
G04 APERTURE LIST*
G04 Aperture macros list*
%AMRoundRect*
0 Rectangle with rounded corners*
0 $1 Rounding radius*
0 $2 $3 $4 $5 $6 $7 $8 $9 X,Y pos of 4 corners*
0 Add a 4 corners polygon primitive as box body*
4,1,4,$2,$3,$4,$5,$6,$7,$8,$9,$2,$3,0*
0 Add four circle primitives for the rounded corners*
1,1,$1+$1,$2,$3*
1,1,$1+$1,$4,$5*
1,1,$1+$1,$6,$7*
1,1,$1+$1,$8,$9*
0 Add four rect primitives between the rounded corners*
20,1,$1+$1,$2,$3,$4,$5,0*
20,1,$1+$1,$4,$5,$6,$7,0*
20,1,$1+$1,$6,$7,$8,$9,0*
20,1,$1+$1,$8,$9,$2,$3,0*%
G04 Aperture macros list end*
%ADD10C,0.005000*%
%ADD11RoundRect,0.200000X-0.200000X-0.275000X0.200000X-0.275000X0.200000X0.275000X-0.200000X0.275000X0*%
%ADD12R,1.500000X1.500000*%
%ADD13C,1.500000*%
%ADD14RoundRect,0.225000X-0.250000X0.225000X-0.250000X-0.225000X0.250000X-0.225000X0.250000X0.225000X0*%
%ADD15RoundRect,0.200000X-0.275000X0.200000X-0.275000X-0.200000X0.275000X-0.200000X0.275000X0.200000X0*%
%ADD16RoundRect,0.225000X0.225000X0.250000X-0.225000X0.250000X-0.225000X-0.250000X0.225000X-0.250000X0*%
%ADD17R,1.500000X2.000000*%
%ADD18R,3.800000X2.000000*%
%ADD19R,1.350000X1.350000*%
%ADD20O,1.350000X1.350000*%
%ADD21RoundRect,0.250000X-0.475000X0.250000X-0.475000X-0.250000X0.475000X-0.250000X0.475000X0.250000X0*%
%ADD22R,0.400000X1.650000*%
%ADD23R,1.825000X0.700000*%
%ADD24R,2.000000X1.500000*%
%ADD25R,1.350000X2.000000*%
%ADD26O,1.350000X1.700000*%
%ADD27O,1.100000X1.500000*%
%ADD28R,1.430000X2.500000*%
%ADD29RoundRect,0.250000X0.685000X-0.335000X0.685000X0.335000X-0.685000X0.335000X-0.685000X-0.335000X0*%
%ADD30O,1.870000X1.170000*%
%ADD31RoundRect,0.250000X0.600000X-0.600000X0.600000X0.600000X-0.600000X0.600000X-0.600000X-0.600000X0*%
%ADD32C,1.700000*%
%ADD33RoundRect,0.225000X0.250000X-0.225000X0.250000X0.225000X-0.250000X0.225000X-0.250000X-0.225000X0*%
%ADD34RoundRect,0.200000X0.275000X-0.200000X0.275000X0.200000X-0.275000X0.200000X-0.275000X-0.200000X0*%
%ADD35RoundRect,0.150000X0.150000X-0.587500X0.150000X0.587500X-0.150000X0.587500X-0.150000X-0.587500X0*%
%ADD36RoundRect,0.200000X0.200000X0.275000X-0.200000X0.275000X-0.200000X-0.275000X0.200000X-0.275000X0*%
%ADD37RoundRect,0.218750X-0.256250X0.218750X-0.256250X-0.218750X0.256250X-0.218750X0.256250X0.218750X0*%
%ADD38R,2.100000X1.400000*%
%ADD39RoundRect,0.250000X-0.250000X-0.475000X0.250000X-0.475000X0.250000X0.475000X-0.250000X0.475000X0*%
%ADD40RoundRect,0.225000X-0.375000X0.225000X-0.375000X-0.225000X0.375000X-0.225000X0.375000X0.225000X0*%
%ADD41R,2.350000X3.500000*%
%ADD42RoundRect,0.075000X-0.075000X0.700000X-0.075000X-0.700000X0.075000X-0.700000X0.075000X0.700000X0*%
%ADD43RoundRect,0.075000X-0.700000X0.075000X-0.700000X-0.075000X0.700000X-0.075000X0.700000X0.075000X0*%
%ADD44R,2.400000X2.400000*%
%ADD45C,2.400000*%
%ADD46RoundRect,0.250000X-0.450000X-0.800000X0.450000X-0.800000X0.450000X0.800000X-0.450000X0.800000X0*%
%ADD47RoundRect,0.225000X-0.225000X-0.250000X0.225000X-0.250000X0.225000X0.250000X-0.225000X0.250000X0*%
%ADD48R,1.700000X1.700000*%
%ADD49O,1.700000X1.700000*%
%ADD50RoundRect,0.150000X0.150000X-0.825000X0.150000X0.825000X-0.150000X0.825000X-0.150000X-0.825000X0*%
%ADD51RoundRect,0.218750X0.256250X-0.218750X0.256250X0.218750X-0.256250X0.218750X-0.256250X-0.218750X0*%
%ADD52R,0.300000X0.700000*%
%ADD53R,2.100000X1.000000*%
%ADD54RoundRect,0.250000X-0.685000X0.335000X-0.685000X-0.335000X0.685000X-0.335000X0.685000X0.335000X0*%
%ADD55RoundRect,0.218750X-0.218750X-0.256250X0.218750X-0.256250X0.218750X0.256250X-0.218750X0.256250X0*%
%ADD56RoundRect,0.250000X1.450000X-0.312500X1.450000X0.312500X-1.450000X0.312500X-1.450000X-0.312500X0*%
%ADD57R,1.400000X1.200000*%
%ADD58RoundRect,0.062500X-0.350000X-0.062500X0.350000X-0.062500X0.350000X0.062500X-0.350000X0.062500X0*%
%ADD59RoundRect,0.062500X-0.062500X-0.350000X0.062500X-0.350000X0.062500X0.350000X-0.062500X0.350000X0*%
%ADD60R,2.500000X2.500000*%
%ADD61RoundRect,0.075000X0.075000X-0.350000X0.075000X0.350000X-0.075000X0.350000X-0.075000X-0.350000X0*%
%ADD62RoundRect,0.075000X0.350000X0.075000X-0.350000X0.075000X-0.350000X-0.075000X0.350000X-0.075000X0*%
%ADD63RoundRect,0.150000X0.150000X-0.512500X0.150000X0.512500X-0.150000X0.512500X-0.150000X-0.512500X0*%
%ADD64RoundRect,0.150000X-0.150000X0.512500X-0.150000X-0.512500X0.150000X-0.512500X0.150000X0.512500X0*%
%ADD65RoundRect,0.250000X-1.250000X-0.550000X1.250000X-0.550000X1.250000X0.550000X-1.250000X0.550000X0*%
%ADD66RoundRect,0.218750X0.218750X0.256250X-0.218750X0.256250X-0.218750X-0.256250X0.218750X-0.256250X0*%
%ADD67R,0.240000X0.600000*%
%ADD68R,2.400000X1.650000*%
%ADD69R,0.500000X0.250000*%
%ADD70R,2.200000X1.050000*%
%ADD71R,1.050000X1.000000*%
G04 APERTURE END LIST*
D10*
X147320000Y-80568800D02*
X148336000Y-80568800D01*
X148336000Y-82753200D01*
X147320000Y-82753200D01*
X147320000Y-80568800D01*
G36*
X147320000Y-80568800D02*
G01*
X148336000Y-80568800D01*
X148336000Y-82753200D01*
X147320000Y-82753200D01*
X147320000Y-80568800D01*
G37*
X147320000Y-89103200D02*
X159918400Y-89103200D01*
X159918400Y-90119200D01*
X147320000Y-90119200D01*
X147320000Y-89103200D01*
G36*
X147320000Y-89103200D02*
G01*
X159918400Y-89103200D01*
X159918400Y-90119200D01*
X147320000Y-90119200D01*
X147320000Y-89103200D01*
G37*
X147320000Y-79552800D02*
X159918400Y-79552800D01*
X159918400Y-80568800D01*
X147320000Y-80568800D01*
X147320000Y-79552800D01*
G36*
X147320000Y-79552800D02*
G01*
X159918400Y-79552800D01*
X159918400Y-80568800D01*
X147320000Y-80568800D01*
X147320000Y-79552800D01*
G37*
X147320000Y-87376000D02*
X148336000Y-87376000D01*
X148336000Y-89128600D01*
X147320000Y-89128600D01*
X147320000Y-87376000D01*
G36*
X147320000Y-87376000D02*
G01*
X148336000Y-87376000D01*
X148336000Y-89128600D01*
X147320000Y-89128600D01*
X147320000Y-87376000D01*
G37*
D11*
X143574000Y-127254000D03*
X145224000Y-127254000D03*
D12*
X138294000Y-72560000D03*
D13*
X140294000Y-72560000D03*
X142294000Y-72560000D03*
X144294000Y-72560000D03*
X146294000Y-72560000D03*
D14*
X146927000Y-100444000D03*
X146927000Y-101994000D03*
X146304000Y-90665000D03*
X146304000Y-92215000D03*
D15*
X134366000Y-88710000D03*
X134366000Y-90360000D03*
D16*
X127571800Y-143459200D03*
X126021800Y-143459200D03*
X135141000Y-103124000D03*
X133591000Y-103124000D03*
D14*
X115074200Y-132843000D03*
X115074200Y-134393000D03*
X116852200Y-132843000D03*
X116852200Y-134393000D03*
D11*
X149734000Y-108585000D03*
X151384000Y-108585000D03*
D17*
X123724200Y-126531000D03*
X121424200Y-126531000D03*
D18*
X121424200Y-132831000D03*
D17*
X119124200Y-126531000D03*
D14*
X146927000Y-97142000D03*
X146927000Y-98692000D03*
D19*
X145542000Y-113410000D03*
D20*
X143542000Y-113410000D03*
X145542000Y-111410000D03*
X143542000Y-111410000D03*
X145542000Y-109410000D03*
X143542000Y-109410000D03*
X145542000Y-107410000D03*
X143542000Y-107410000D03*
X145542000Y-105410000D03*
X143542000Y-105410000D03*
D15*
X110248200Y-130253000D03*
X110248200Y-131903000D03*
D21*
X127672600Y-134192000D03*
X127672600Y-136092000D03*
D22*
X145741000Y-142253000D03*
X146391000Y-142253000D03*
X147041000Y-142253000D03*
X147691000Y-142253000D03*
X148341000Y-142253000D03*
D23*
X144091000Y-143453000D03*
D24*
X144191000Y-142153000D03*
D25*
X144311000Y-144203000D03*
D26*
X144311000Y-145133000D03*
D27*
X144621000Y-142133000D03*
D28*
X146081000Y-145403000D03*
X148001000Y-145403000D03*
D27*
X149461000Y-142133000D03*
D26*
X149771000Y-145133000D03*
D25*
X149791000Y-144203000D03*
D24*
X149941000Y-142133000D03*
D23*
X150041000Y-143453000D03*
D16*
X127647200Y-131967000D03*
X126097200Y-131967000D03*
D29*
X104000000Y-126940000D03*
D30*
X104000000Y-125440000D03*
X104000000Y-123940000D03*
X104000000Y-122440000D03*
X104000000Y-120940000D03*
X104000000Y-119440000D03*
D31*
X116586000Y-77206500D03*
D32*
X116586000Y-74666500D03*
X119126000Y-77206500D03*
X119126000Y-74666500D03*
X121666000Y-77206500D03*
X121666000Y-74666500D03*
X124206000Y-77206500D03*
X124206000Y-74666500D03*
X126746000Y-77206500D03*
X126746000Y-74666500D03*
D33*
X118872000Y-141694200D03*
X118872000Y-140144200D03*
D14*
X127647200Y-127128000D03*
X127647200Y-128678000D03*
D16*
X125015000Y-87464000D03*
X123465000Y-87464000D03*
D34*
X135128000Y-82867000D03*
X135128000Y-81217000D03*
D33*
X117906800Y-101562200D03*
X117906800Y-100012200D03*
X153924000Y-83579000D03*
X153924000Y-82029000D03*
D35*
X156288200Y-135825500D03*
X158188200Y-135825500D03*
X157238200Y-133950500D03*
D36*
X158063200Y-138188000D03*
X156413200Y-138188000D03*
D16*
X141230008Y-80645000D03*
X139680008Y-80645000D03*
D37*
X133223000Y-81254500D03*
X133223000Y-82829500D03*
D11*
X111836200Y-131840000D03*
X113486200Y-131840000D03*
D38*
X149374000Y-93000000D03*
X158474000Y-93000000D03*
X149374000Y-97500000D03*
X158474000Y-97500000D03*
D14*
X130556000Y-83857800D03*
X130556000Y-85407800D03*
D39*
X103456200Y-134126000D03*
X105356200Y-134126000D03*
D40*
X131000000Y-134000000D03*
X131000000Y-137300000D03*
D41*
X115437200Y-142254000D03*
X109377200Y-142254000D03*
D42*
X129750000Y-91325000D03*
X129250000Y-91325000D03*
X128750000Y-91325000D03*
X128250000Y-91325000D03*
X127750000Y-91325000D03*
X127250000Y-91325000D03*
X126750000Y-91325000D03*
X126250000Y-91325000D03*
X125750000Y-91325000D03*
X125250000Y-91325000D03*
X124750000Y-91325000D03*
X124250000Y-91325000D03*
X123750000Y-91325000D03*
X123250000Y-91325000D03*
X122750000Y-91325000D03*
X122250000Y-91325000D03*
D43*
X120325000Y-93250000D03*
X120325000Y-93750000D03*
X120325000Y-94250000D03*
X120325000Y-94750000D03*
X120325000Y-95250000D03*
X120325000Y-95750000D03*
X120325000Y-96250000D03*
X120325000Y-96750000D03*
X120325000Y-97250000D03*
X120325000Y-97750000D03*
X120325000Y-98250000D03*
X120325000Y-98750000D03*
X120325000Y-99250000D03*
X120325000Y-99750000D03*
X120325000Y-100250000D03*
X120325000Y-100750000D03*
D42*
X122250000Y-102675000D03*
X122750000Y-102675000D03*
X123250000Y-102675000D03*
X123750000Y-102675000D03*
X124250000Y-102675000D03*
X124750000Y-102675000D03*
X125250000Y-102675000D03*
X125750000Y-102675000D03*
X126250000Y-102675000D03*
X126750000Y-102675000D03*
X127250000Y-102675000D03*
X127750000Y-102675000D03*
X128250000Y-102675000D03*
X128750000Y-102675000D03*
X129250000Y-102675000D03*
X129750000Y-102675000D03*
D43*
X131675000Y-100750000D03*
X131675000Y-100250000D03*
X131675000Y-99750000D03*
X131675000Y-99250000D03*
X131675000Y-98750000D03*
X131675000Y-98250000D03*
X131675000Y-97750000D03*
X131675000Y-97250000D03*
X131675000Y-96750000D03*
X131675000Y-96250000D03*
X131675000Y-95750000D03*
X131675000Y-95250000D03*
X131675000Y-94750000D03*
X131675000Y-94250000D03*
X131675000Y-93750000D03*
X131675000Y-93250000D03*
D44*
X135648200Y-143191000D03*
D45*
X139148200Y-143191000D03*
D37*
X147828000Y-85064500D03*
X147828000Y-86639500D03*
D46*
X102333200Y-138190000D03*
X106733200Y-138190000D03*
D33*
X127000000Y-118665000D03*
X127000000Y-117115000D03*
D47*
X142855008Y-80645000D03*
X144405008Y-80645000D03*
D48*
X110998000Y-101087000D03*
D49*
X113538000Y-101087000D03*
X110998000Y-103627000D03*
X113538000Y-103627000D03*
X110998000Y-106167000D03*
X113538000Y-106167000D03*
X110998000Y-108707000D03*
X113538000Y-108707000D03*
X110998000Y-111247000D03*
X113538000Y-111247000D03*
X110998000Y-113787000D03*
X113538000Y-113787000D03*
X110998000Y-116327000D03*
X113538000Y-116327000D03*
X110998000Y-118867000D03*
X113538000Y-118867000D03*
D40*
X133616200Y-134000000D03*
X133616200Y-137300000D03*
D15*
X123964200Y-139066800D03*
X123964200Y-140716800D03*
D14*
X134366000Y-92189000D03*
X134366000Y-93739000D03*
D35*
X151970200Y-135825500D03*
X153870200Y-135825500D03*
X152920200Y-133950500D03*
D50*
X135382000Y-112330000D03*
X136652000Y-112330000D03*
X137922000Y-112330000D03*
X139192000Y-112330000D03*
X139192000Y-107380000D03*
X137922000Y-107380000D03*
X136652000Y-107380000D03*
X135382000Y-107380000D03*
D47*
X150863000Y-83566000D03*
X152413000Y-83566000D03*
D12*
X103040000Y-99212000D03*
D13*
X103040000Y-97212000D03*
X103040000Y-95212000D03*
X103040000Y-93212000D03*
D51*
X117906800Y-85382500D03*
X117906800Y-83807500D03*
D11*
X102807000Y-116078000D03*
X104457000Y-116078000D03*
D14*
X130302000Y-104889000D03*
X130302000Y-106439000D03*
D52*
X128798000Y-119160000D03*
X129298000Y-119160000D03*
X129798000Y-119160000D03*
X130298000Y-119160000D03*
X130798000Y-119160000D03*
X131298000Y-119160000D03*
X131298000Y-117060000D03*
X130798000Y-117060000D03*
X130298000Y-117060000D03*
X129798000Y-117060000D03*
X129298000Y-117060000D03*
X128798000Y-117060000D03*
D53*
X130000000Y-118110000D03*
D14*
X119735600Y-83820000D03*
X119735600Y-85370000D03*
D47*
X141199000Y-95758000D03*
X142749000Y-95758000D03*
D14*
X139192000Y-97650000D03*
X139192000Y-99200000D03*
D33*
X119735600Y-88634200D03*
X119735600Y-87084200D03*
D12*
X103047800Y-111664000D03*
D13*
X103047800Y-109664000D03*
X103047800Y-107664000D03*
X103047800Y-105664000D03*
D38*
X149374000Y-110780000D03*
X158474000Y-110780000D03*
X149374000Y-115280000D03*
X158474000Y-115280000D03*
D16*
X137820200Y-128919000D03*
X136270200Y-128919000D03*
D33*
X125222000Y-118665000D03*
X125222000Y-117115000D03*
D35*
X147718200Y-135825500D03*
X149618200Y-135825500D03*
X148668200Y-133950500D03*
D54*
X156000000Y-119440000D03*
D30*
X156000000Y-120940000D03*
X156000000Y-122440000D03*
X156000000Y-123940000D03*
X156000000Y-125440000D03*
X156000000Y-126940000D03*
D36*
X108660200Y-131840000D03*
X107010200Y-131840000D03*
D55*
X147802500Y-83566000D03*
X149377500Y-83566000D03*
D33*
X132461000Y-90310000D03*
X132461000Y-88760000D03*
D39*
X103456200Y-131840000D03*
X105356200Y-131840000D03*
D33*
X116598200Y-128805000D03*
X116598200Y-127255000D03*
D47*
X127215600Y-87464000D03*
X128765600Y-87464000D03*
D56*
X131000000Y-143400900D03*
X131000000Y-139125900D03*
D33*
X115074200Y-137695000D03*
X115074200Y-136145000D03*
D12*
X103040000Y-86766000D03*
D13*
X103040000Y-84766000D03*
X103040000Y-82766000D03*
X103040000Y-80766000D03*
D38*
X149374000Y-101890000D03*
X158474000Y-101890000D03*
X149374000Y-106390000D03*
X158474000Y-106390000D03*
D57*
X141902000Y-92290000D03*
X144102000Y-92290000D03*
X144102000Y-90590000D03*
X141902000Y-90590000D03*
D16*
X150889000Y-88138000D03*
X149339000Y-88138000D03*
X135141000Y-104902000D03*
X133591000Y-104902000D03*
D33*
X139700000Y-92215000D03*
X139700000Y-90665000D03*
D15*
X123964200Y-135891800D03*
X123964200Y-137541800D03*
X141097000Y-107760000D03*
X141097000Y-109410000D03*
D55*
X111607500Y-127254000D03*
X113182500Y-127254000D03*
D58*
X140556500Y-83582000D03*
X140556500Y-84082000D03*
X140556500Y-84582000D03*
X140556500Y-85082000D03*
X140556500Y-85582000D03*
D59*
X141494000Y-86519500D03*
X141994000Y-86519500D03*
X142494000Y-86519500D03*
X142994000Y-86519500D03*
X143494000Y-86519500D03*
D58*
X144431500Y-85582000D03*
X144431500Y-85082000D03*
X144431500Y-84582000D03*
X144431500Y-84082000D03*
X144431500Y-83582000D03*
D59*
X143494000Y-82644500D03*
X142994000Y-82644500D03*
X142494000Y-82644500D03*
X141994000Y-82644500D03*
X141494000Y-82644500D03*
D60*
X142494000Y-84582000D03*
D47*
X139687000Y-88265000D03*
X141237000Y-88265000D03*
D11*
X142812000Y-88265000D03*
X144462000Y-88265000D03*
D61*
X141752000Y-101518000D03*
X142252000Y-101518000D03*
X142752000Y-101518000D03*
X143252000Y-101518000D03*
X143752000Y-101518000D03*
X144252000Y-101518000D03*
D62*
X144952000Y-100818000D03*
X144952000Y-100318000D03*
X144952000Y-99818000D03*
X144952000Y-99318000D03*
X144952000Y-98818000D03*
X144952000Y-98318000D03*
D61*
X144252000Y-97618000D03*
X143752000Y-97618000D03*
X143252000Y-97618000D03*
X142752000Y-97618000D03*
X142252000Y-97618000D03*
X141752000Y-97618000D03*
D62*
X141052000Y-98318000D03*
X141052000Y-98818000D03*
X141052000Y-99318000D03*
X141052000Y-99818000D03*
X141052000Y-100318000D03*
X141052000Y-100818000D03*
D34*
X114935000Y-128841000D03*
X114935000Y-127191000D03*
D57*
X127288000Y-83732000D03*
X125088000Y-83732000D03*
X125088000Y-85432000D03*
X127288000Y-85432000D03*
D33*
X117906800Y-88621200D03*
X117906800Y-87071200D03*
D14*
X129425200Y-127128000D03*
X129425200Y-128678000D03*
D63*
X143715200Y-138057500D03*
X144665200Y-138057500D03*
X145615200Y-138057500D03*
X145615200Y-135782500D03*
X144665200Y-135782500D03*
X143715200Y-135782500D03*
D47*
X139826200Y-128919000D03*
X141376200Y-128919000D03*
D33*
X117909600Y-93739000D03*
X117909600Y-92189000D03*
X130556000Y-88659000D03*
X130556000Y-87109000D03*
D11*
X106236000Y-116078000D03*
X107886000Y-116078000D03*
D37*
X146304000Y-83540500D03*
X146304000Y-85115500D03*
D11*
X142805008Y-78994000D03*
X144455008Y-78994000D03*
D64*
X127759000Y-138855900D03*
X126809000Y-138855900D03*
X125859000Y-138855900D03*
X125859000Y-141130900D03*
X127759000Y-141130900D03*
D65*
X118958000Y-115096000D03*
X123358000Y-115096000D03*
D66*
X148488500Y-127254000D03*
X146913500Y-127254000D03*
D16*
X150889000Y-86614000D03*
X149339000Y-86614000D03*
D33*
X120662200Y-141694200D03*
X120662200Y-140144200D03*
X146195408Y-80556400D03*
X146195408Y-79006400D03*
D67*
X111748200Y-134247000D03*
X111248200Y-134247000D03*
X110748200Y-134247000D03*
X110248200Y-134247000D03*
X109748200Y-134247000D03*
X109748200Y-137047000D03*
X110248200Y-137047000D03*
X110748200Y-137047000D03*
X111248200Y-137047000D03*
X111748200Y-137047000D03*
D68*
X110748200Y-135647000D03*
D69*
X109298200Y-135397000D03*
X109298200Y-135897000D03*
X112198200Y-135897000D03*
X112198200Y-135397000D03*
D34*
X140208000Y-104838000D03*
X140208000Y-103188000D03*
D17*
X141123200Y-131103000D03*
X138823200Y-131103000D03*
D18*
X138823200Y-137403000D03*
D17*
X136523200Y-131103000D03*
D70*
X157226000Y-83361000D03*
X157226000Y-86311000D03*
D71*
X155726000Y-84836000D03*
D36*
X149493200Y-138190000D03*
X147843200Y-138190000D03*
X153745200Y-138188000D03*
X152095200Y-138188000D03*
D34*
X136906000Y-104838000D03*
X136906000Y-103188000D03*
M02*
