%TF.GenerationSoftware,KiCad,Pcbnew,7.0.1*%
%TF.CreationDate,2023-10-06T11:10:41+02:00*%
%TF.ProjectId,Drv_board,4472765f-626f-4617-9264-2e6b69636164,rev?*%
%TF.SameCoordinates,Original*%
%TF.FileFunction,Copper,L1,Top*%
%TF.FilePolarity,Positive*%
%FSLAX46Y46*%
G04 Gerber Fmt 4.6, Leading zero omitted, Abs format (unit mm)*
G04 Created by KiCad (PCBNEW 7.0.1) date 2023-10-06 11:10:41*
%MOMM*%
%LPD*%
G01*
G04 APERTURE LIST*
G04 Aperture macros list*
%AMRoundRect*
0 Rectangle with rounded corners*
0 $1 Rounding radius*
0 $2 $3 $4 $5 $6 $7 $8 $9 X,Y pos of 4 corners*
0 Add a 4 corners polygon primitive as box body*
4,1,4,$2,$3,$4,$5,$6,$7,$8,$9,$2,$3,0*
0 Add four circle primitives for the rounded corners*
1,1,$1+$1,$2,$3*
1,1,$1+$1,$4,$5*
1,1,$1+$1,$6,$7*
1,1,$1+$1,$8,$9*
0 Add four rect primitives between the rounded corners*
20,1,$1+$1,$2,$3,$4,$5,0*
20,1,$1+$1,$4,$5,$6,$7,0*
20,1,$1+$1,$6,$7,$8,$9,0*
20,1,$1+$1,$8,$9,$2,$3,0*%
G04 Aperture macros list end*
%TA.AperFunction,SMDPad,CuDef*%
%ADD10RoundRect,0.200000X-0.200000X-0.275000X0.200000X-0.275000X0.200000X0.275000X-0.200000X0.275000X0*%
%TD*%
%TA.AperFunction,ComponentPad*%
%ADD11R,1.500000X1.500000*%
%TD*%
%TA.AperFunction,ComponentPad*%
%ADD12C,1.500000*%
%TD*%
%TA.AperFunction,SMDPad,CuDef*%
%ADD13RoundRect,0.225000X-0.250000X0.225000X-0.250000X-0.225000X0.250000X-0.225000X0.250000X0.225000X0*%
%TD*%
%TA.AperFunction,SMDPad,CuDef*%
%ADD14RoundRect,0.200000X-0.275000X0.200000X-0.275000X-0.200000X0.275000X-0.200000X0.275000X0.200000X0*%
%TD*%
%TA.AperFunction,SMDPad,CuDef*%
%ADD15RoundRect,0.225000X0.225000X0.250000X-0.225000X0.250000X-0.225000X-0.250000X0.225000X-0.250000X0*%
%TD*%
%TA.AperFunction,SMDPad,CuDef*%
%ADD16R,1.500000X2.000000*%
%TD*%
%TA.AperFunction,SMDPad,CuDef*%
%ADD17R,3.800000X2.000000*%
%TD*%
%TA.AperFunction,ComponentPad*%
%ADD18R,1.350000X1.350000*%
%TD*%
%TA.AperFunction,ComponentPad*%
%ADD19O,1.350000X1.350000*%
%TD*%
%TA.AperFunction,SMDPad,CuDef*%
%ADD20RoundRect,0.250000X-0.475000X0.250000X-0.475000X-0.250000X0.475000X-0.250000X0.475000X0.250000X0*%
%TD*%
%TA.AperFunction,SMDPad,CuDef*%
%ADD21R,0.400000X1.650000*%
%TD*%
%TA.AperFunction,SMDPad,CuDef*%
%ADD22R,1.825000X0.700000*%
%TD*%
%TA.AperFunction,SMDPad,CuDef*%
%ADD23R,2.000000X1.500000*%
%TD*%
%TA.AperFunction,SMDPad,CuDef*%
%ADD24R,1.350000X2.000000*%
%TD*%
%TA.AperFunction,ComponentPad*%
%ADD25O,1.350000X1.700000*%
%TD*%
%TA.AperFunction,ComponentPad*%
%ADD26O,1.100000X1.500000*%
%TD*%
%TA.AperFunction,SMDPad,CuDef*%
%ADD27R,1.430000X2.500000*%
%TD*%
%TA.AperFunction,ComponentPad*%
%ADD28RoundRect,0.250000X0.685000X-0.335000X0.685000X0.335000X-0.685000X0.335000X-0.685000X-0.335000X0*%
%TD*%
%TA.AperFunction,ComponentPad*%
%ADD29O,1.870000X1.170000*%
%TD*%
%TA.AperFunction,ComponentPad*%
%ADD30RoundRect,0.250000X0.600000X-0.600000X0.600000X0.600000X-0.600000X0.600000X-0.600000X-0.600000X0*%
%TD*%
%TA.AperFunction,ComponentPad*%
%ADD31C,1.700000*%
%TD*%
%TA.AperFunction,SMDPad,CuDef*%
%ADD32RoundRect,0.225000X0.250000X-0.225000X0.250000X0.225000X-0.250000X0.225000X-0.250000X-0.225000X0*%
%TD*%
%TA.AperFunction,SMDPad,CuDef*%
%ADD33RoundRect,0.200000X0.275000X-0.200000X0.275000X0.200000X-0.275000X0.200000X-0.275000X-0.200000X0*%
%TD*%
%TA.AperFunction,SMDPad,CuDef*%
%ADD34RoundRect,0.150000X0.150000X-0.587500X0.150000X0.587500X-0.150000X0.587500X-0.150000X-0.587500X0*%
%TD*%
%TA.AperFunction,SMDPad,CuDef*%
%ADD35RoundRect,0.200000X0.200000X0.275000X-0.200000X0.275000X-0.200000X-0.275000X0.200000X-0.275000X0*%
%TD*%
%TA.AperFunction,SMDPad,CuDef*%
%ADD36RoundRect,0.218750X-0.256250X0.218750X-0.256250X-0.218750X0.256250X-0.218750X0.256250X0.218750X0*%
%TD*%
%TA.AperFunction,SMDPad,CuDef*%
%ADD37R,1.550000X1.300000*%
%TD*%
%TA.AperFunction,SMDPad,CuDef*%
%ADD38RoundRect,0.250000X-0.250000X-0.475000X0.250000X-0.475000X0.250000X0.475000X-0.250000X0.475000X0*%
%TD*%
%TA.AperFunction,SMDPad,CuDef*%
%ADD39RoundRect,0.225000X-0.375000X0.225000X-0.375000X-0.225000X0.375000X-0.225000X0.375000X0.225000X0*%
%TD*%
%TA.AperFunction,SMDPad,CuDef*%
%ADD40R,2.350000X3.500000*%
%TD*%
%TA.AperFunction,SMDPad,CuDef*%
%ADD41RoundRect,0.075000X-0.075000X0.700000X-0.075000X-0.700000X0.075000X-0.700000X0.075000X0.700000X0*%
%TD*%
%TA.AperFunction,SMDPad,CuDef*%
%ADD42RoundRect,0.075000X-0.700000X0.075000X-0.700000X-0.075000X0.700000X-0.075000X0.700000X0.075000X0*%
%TD*%
%TA.AperFunction,ComponentPad*%
%ADD43R,2.400000X2.400000*%
%TD*%
%TA.AperFunction,ComponentPad*%
%ADD44C,2.400000*%
%TD*%
%TA.AperFunction,SMDPad,CuDef*%
%ADD45RoundRect,0.250000X-0.450000X-0.800000X0.450000X-0.800000X0.450000X0.800000X-0.450000X0.800000X0*%
%TD*%
%TA.AperFunction,SMDPad,CuDef*%
%ADD46RoundRect,0.225000X-0.225000X-0.250000X0.225000X-0.250000X0.225000X0.250000X-0.225000X0.250000X0*%
%TD*%
%TA.AperFunction,ComponentPad*%
%ADD47R,1.700000X1.700000*%
%TD*%
%TA.AperFunction,ComponentPad*%
%ADD48O,1.700000X1.700000*%
%TD*%
%TA.AperFunction,SMDPad,CuDef*%
%ADD49RoundRect,0.150000X0.150000X-0.825000X0.150000X0.825000X-0.150000X0.825000X-0.150000X-0.825000X0*%
%TD*%
%TA.AperFunction,SMDPad,CuDef*%
%ADD50RoundRect,0.218750X0.256250X-0.218750X0.256250X0.218750X-0.256250X0.218750X-0.256250X-0.218750X0*%
%TD*%
%TA.AperFunction,SMDPad,CuDef*%
%ADD51R,0.300000X0.700000*%
%TD*%
%TA.AperFunction,SMDPad,CuDef*%
%ADD52R,2.100000X1.000000*%
%TD*%
%TA.AperFunction,ComponentPad*%
%ADD53RoundRect,0.250000X-0.685000X0.335000X-0.685000X-0.335000X0.685000X-0.335000X0.685000X0.335000X0*%
%TD*%
%TA.AperFunction,SMDPad,CuDef*%
%ADD54RoundRect,0.218750X-0.218750X-0.256250X0.218750X-0.256250X0.218750X0.256250X-0.218750X0.256250X0*%
%TD*%
%TA.AperFunction,SMDPad,CuDef*%
%ADD55RoundRect,0.250000X1.450000X-0.312500X1.450000X0.312500X-1.450000X0.312500X-1.450000X-0.312500X0*%
%TD*%
%TA.AperFunction,SMDPad,CuDef*%
%ADD56R,1.400000X1.200000*%
%TD*%
%TA.AperFunction,SMDPad,CuDef*%
%ADD57RoundRect,0.062500X-0.350000X-0.062500X0.350000X-0.062500X0.350000X0.062500X-0.350000X0.062500X0*%
%TD*%
%TA.AperFunction,SMDPad,CuDef*%
%ADD58RoundRect,0.062500X-0.062500X-0.350000X0.062500X-0.350000X0.062500X0.350000X-0.062500X0.350000X0*%
%TD*%
%TA.AperFunction,SMDPad,CuDef*%
%ADD59R,2.500000X2.500000*%
%TD*%
%TA.AperFunction,SMDPad,CuDef*%
%ADD60RoundRect,0.075000X0.075000X-0.350000X0.075000X0.350000X-0.075000X0.350000X-0.075000X-0.350000X0*%
%TD*%
%TA.AperFunction,SMDPad,CuDef*%
%ADD61RoundRect,0.075000X0.350000X0.075000X-0.350000X0.075000X-0.350000X-0.075000X0.350000X-0.075000X0*%
%TD*%
%TA.AperFunction,SMDPad,CuDef*%
%ADD62RoundRect,0.150000X0.150000X-0.512500X0.150000X0.512500X-0.150000X0.512500X-0.150000X-0.512500X0*%
%TD*%
%TA.AperFunction,SMDPad,CuDef*%
%ADD63RoundRect,0.150000X-0.150000X0.512500X-0.150000X-0.512500X0.150000X-0.512500X0.150000X0.512500X0*%
%TD*%
%TA.AperFunction,SMDPad,CuDef*%
%ADD64RoundRect,0.250000X-1.250000X-0.550000X1.250000X-0.550000X1.250000X0.550000X-1.250000X0.550000X0*%
%TD*%
%TA.AperFunction,SMDPad,CuDef*%
%ADD65RoundRect,0.218750X0.218750X0.256250X-0.218750X0.256250X-0.218750X-0.256250X0.218750X-0.256250X0*%
%TD*%
%TA.AperFunction,SMDPad,CuDef*%
%ADD66R,0.240000X0.600000*%
%TD*%
%TA.AperFunction,SMDPad,CuDef*%
%ADD67R,2.400000X1.650000*%
%TD*%
%TA.AperFunction,SMDPad,CuDef*%
%ADD68R,0.500000X0.250000*%
%TD*%
%TA.AperFunction,SMDPad,CuDef*%
%ADD69R,2.200000X1.050000*%
%TD*%
%TA.AperFunction,SMDPad,CuDef*%
%ADD70R,1.050000X1.000000*%
%TD*%
%TA.AperFunction,ViaPad*%
%ADD71C,0.600000*%
%TD*%
%TA.AperFunction,ViaPad*%
%ADD72C,0.500000*%
%TD*%
%TA.AperFunction,Conductor*%
%ADD73C,0.300000*%
%TD*%
%TA.AperFunction,Conductor*%
%ADD74C,1.000000*%
%TD*%
%TA.AperFunction,Conductor*%
%ADD75C,0.500000*%
%TD*%
%TA.AperFunction,Conductor*%
%ADD76C,0.250000*%
%TD*%
%TA.AperFunction,Conductor*%
%ADD77C,0.700000*%
%TD*%
%TA.AperFunction,Conductor*%
%ADD78C,0.349250*%
%TD*%
%TA.AperFunction,Conductor*%
%ADD79C,0.200000*%
%TD*%
G04 APERTURE END LIST*
D10*
%TO.P,R12,1*%
%TO.N,+3.3V*%
X143574000Y-127254000D03*
%TO.P,R12,2*%
%TO.N,Net-(D6-A)*%
X145224000Y-127254000D03*
%TD*%
D11*
%TO.P,J5,1,Pin_1*%
%TO.N,+5V*%
X138294000Y-72560000D03*
D12*
%TO.P,J5,2,Pin_2*%
%TO.N,SRF-05_TRIG*%
X140294000Y-72560000D03*
%TO.P,J5,3,Pin_3*%
%TO.N,SRF-05_ECHO*%
X142294000Y-72560000D03*
%TO.P,J5,4,Pin_4*%
%TO.N,SRF-05_IN*%
X144294000Y-72560000D03*
%TO.P,J5,5,Pin_5*%
%TO.N,GND*%
X146294000Y-72560000D03*
%TD*%
D13*
%TO.P,C41,1*%
%TO.N,GND*%
X146927000Y-100444000D03*
%TO.P,C41,2*%
%TO.N,+3.3V*%
X146927000Y-101994000D03*
%TD*%
%TO.P,C37,1*%
%TO.N,NRF_XC1*%
X146304000Y-90665000D03*
%TO.P,C37,2*%
%TO.N,GND*%
X146304000Y-92215000D03*
%TD*%
D14*
%TO.P,R2,1*%
%TO.N,+3.3V*%
X134366000Y-88710000D03*
%TO.P,R2,2*%
%TO.N,NRST*%
X134366000Y-90360000D03*
%TD*%
D15*
%TO.P,C21,1*%
%TO.N,+BATT*%
X127711000Y-143422400D03*
%TO.P,C21,2*%
%TO.N,GND*%
X126161000Y-143422400D03*
%TD*%
%TO.P,C43,1*%
%TO.N,+3.3V*%
X135141000Y-103124000D03*
%TO.P,C43,2*%
%TO.N,GND*%
X133591000Y-103124000D03*
%TD*%
D13*
%TO.P,C24,1*%
%TO.N,Net-(C24-Pad1)*%
X115074200Y-132843000D03*
%TO.P,C24,2*%
%TO.N,GND*%
X115074200Y-134393000D03*
%TD*%
%TO.P,C23,1*%
%TO.N,Net-(IC1-SS)*%
X116852200Y-132843000D03*
%TO.P,C23,2*%
%TO.N,GND*%
X116852200Y-134393000D03*
%TD*%
D10*
%TO.P,R4,1*%
%TO.N,+3.3V*%
X149734000Y-108585000D03*
%TO.P,R4,2*%
%TO.N,Net-(U2-PC15)*%
X151384000Y-108585000D03*
%TD*%
D16*
%TO.P,U5,1,GND*%
%TO.N,GND*%
X123724200Y-126531000D03*
%TO.P,U5,2,VO*%
%TO.N,5V_Stab*%
X121424200Y-126531000D03*
D17*
X121424200Y-132831000D03*
D16*
%TO.P,U5,3,VI*%
%TO.N,+6V*%
X119124200Y-126531000D03*
%TD*%
D13*
%TO.P,C45,1*%
%TO.N,GND*%
X146927000Y-97142000D03*
%TO.P,C45,2*%
%TO.N,Net-(U8-REGOUT)*%
X146927000Y-98692000D03*
%TD*%
D18*
%TO.P,J7,1,Pin_1*%
%TO.N,+3.3V*%
X145542000Y-113410000D03*
D19*
%TO.P,J7,2,Pin_2*%
%TO.N,SWDIO*%
X143542000Y-113410000D03*
%TO.P,J7,3,Pin_3*%
%TO.N,GND*%
X145542000Y-111410000D03*
%TO.P,J7,4,Pin_4*%
%TO.N,SWCLK*%
X143542000Y-111410000D03*
%TO.P,J7,5,Pin_5*%
%TO.N,GND*%
X145542000Y-109410000D03*
%TO.P,J7,6,Pin_6*%
%TO.N,SWO*%
X143542000Y-109410000D03*
%TO.P,J7,7,Pin_7*%
%TO.N,unconnected-(J7-Pin_7-Pad7)*%
X145542000Y-107410000D03*
%TO.P,J7,8,Pin_8*%
%TO.N,unconnected-(J7-Pin_8-Pad8)*%
X143542000Y-107410000D03*
%TO.P,J7,9,Pin_9*%
%TO.N,GND*%
X145542000Y-105410000D03*
%TO.P,J7,10,Pin_10*%
%TO.N,NRST*%
X143542000Y-105410000D03*
%TD*%
D14*
%TO.P,R10,1*%
%TO.N,+6V*%
X110248200Y-130253000D03*
%TO.P,R10,2*%
%TO.N,Net-(IC1-FB)*%
X110248200Y-131903000D03*
%TD*%
D20*
%TO.P,C22,1*%
%TO.N,5V_Conv*%
X127672600Y-134192000D03*
%TO.P,C22,2*%
%TO.N,GND*%
X127672600Y-136092000D03*
%TD*%
D21*
%TO.P,J1,1,VBUS*%
%TO.N,V_USB*%
X145741000Y-142253000D03*
%TO.P,J1,2,D-*%
%TO.N,USB_CONN_D-*%
X146391000Y-142253000D03*
%TO.P,J1,3,D+*%
%TO.N,USB_CONN_D+*%
X147041000Y-142253000D03*
%TO.P,J1,4,ID*%
%TO.N,unconnected-(J1-ID-Pad4)*%
X147691000Y-142253000D03*
%TO.P,J1,5,GND*%
%TO.N,GND*%
X148341000Y-142253000D03*
D22*
%TO.P,J1,6,Shield*%
%TO.N,unconnected-(J1-Shield-Pad6)*%
X144091000Y-143453000D03*
D23*
X144191000Y-142153000D03*
D24*
X144311000Y-144203000D03*
D25*
X144311000Y-145133000D03*
D26*
X144621000Y-142133000D03*
D27*
X146081000Y-145403000D03*
X148001000Y-145403000D03*
D26*
X149461000Y-142133000D03*
D25*
X149771000Y-145133000D03*
D24*
X149791000Y-144203000D03*
D23*
X149941000Y-142133000D03*
D22*
X150041000Y-143453000D03*
%TD*%
D15*
%TO.P,C18,1*%
%TO.N,5V_Conv*%
X127647200Y-131967000D03*
%TO.P,C18,2*%
%TO.N,GND*%
X126097200Y-131967000D03*
%TD*%
D28*
%TO.P,J8,1,Pin_1*%
%TO.N,A2*%
X104000000Y-126940000D03*
D29*
%TO.P,J8,2,Pin_2*%
%TO.N,GND*%
X104000000Y-125440000D03*
%TO.P,J8,3,Pin_3*%
%TO.N,ENC_A_1*%
X104000000Y-123940000D03*
%TO.P,J8,4,Pin_4*%
%TO.N,ENC_A_2*%
X104000000Y-122440000D03*
%TO.P,J8,5,Pin_5*%
%TO.N,+3.3V*%
X104000000Y-120940000D03*
%TO.P,J8,6,Pin_6*%
%TO.N,A1*%
X104000000Y-119440000D03*
%TD*%
D30*
%TO.P,J4,1,Pin_1*%
%TO.N,+3.3V*%
X116586000Y-77206500D03*
D31*
%TO.P,J4,2,Pin_2*%
%TO.N,GND*%
X116586000Y-74666500D03*
%TO.P,J4,3,Pin_3*%
%TO.N,QTR_CTRL*%
X119126000Y-77206500D03*
%TO.P,J4,4,Pin_4*%
%TO.N,unconnected-(J4-Pin_4-Pad4)*%
X119126000Y-74666500D03*
%TO.P,J4,5,Pin_5*%
%TO.N,QTR_4*%
X121666000Y-77206500D03*
%TO.P,J4,6,Pin_6*%
%TO.N,QTR_5*%
X121666000Y-74666500D03*
%TO.P,J4,7,Pin_7*%
%TO.N,QTR_2*%
X124206000Y-77206500D03*
%TO.P,J4,8,Pin_8*%
%TO.N,QTR_3*%
X124206000Y-74666500D03*
%TO.P,J4,9,Pin_9*%
%TO.N,QTR_0*%
X126746000Y-77206500D03*
%TO.P,J4,10,Pin_10*%
%TO.N,QTR_1*%
X126746000Y-74666500D03*
%TD*%
D32*
%TO.P,C14,1*%
%TO.N,+BATT*%
X118872000Y-141745000D03*
%TO.P,C14,2*%
%TO.N,GND*%
X118872000Y-140195000D03*
%TD*%
D13*
%TO.P,C26,1*%
%TO.N,5V_Stab*%
X127647200Y-127128000D03*
%TO.P,C26,2*%
%TO.N,GND*%
X127647200Y-128678000D03*
%TD*%
D15*
%TO.P,C12,1*%
%TO.N,Net-(U2-PD1)*%
X125015000Y-87464000D03*
%TO.P,C12,2*%
%TO.N,GND*%
X123465000Y-87464000D03*
%TD*%
D33*
%TO.P,R3,1*%
%TO.N,Net-(D1-A)*%
X135763000Y-82232000D03*
%TO.P,R3,2*%
%TO.N,+3.3V*%
X135763000Y-80582000D03*
%TD*%
D32*
%TO.P,C5,1*%
%TO.N,+3.3V*%
X117906800Y-101562200D03*
%TO.P,C5,2*%
%TO.N,GND*%
X117906800Y-100012200D03*
%TD*%
%TO.P,C32,1*%
%TO.N,Net-(C31-Pad2)*%
X153924000Y-83579000D03*
%TO.P,C32,2*%
%TO.N,GND*%
X153924000Y-82029000D03*
%TD*%
D34*
%TO.P,Q1,1,G*%
%TO.N,Net-(Q1-G)*%
X156288200Y-135825500D03*
%TO.P,Q1,2,S*%
%TO.N,+BATT*%
X158188200Y-135825500D03*
%TO.P,Q1,3,D*%
%TO.N,LATCH_POWERUP*%
X157238200Y-133950500D03*
%TD*%
D35*
%TO.P,R6,1*%
%TO.N,+BATT*%
X158063200Y-138188000D03*
%TO.P,R6,2*%
%TO.N,Net-(Q1-G)*%
X156413200Y-138188000D03*
%TD*%
D15*
%TO.P,C40,1*%
%TO.N,Net-(U6-DVDD)*%
X141230008Y-80645000D03*
%TO.P,C40,2*%
%TO.N,GND*%
X139680008Y-80645000D03*
%TD*%
D36*
%TO.P,D1,1,K*%
%TO.N,Net-(D1-K)*%
X133858000Y-80619500D03*
%TO.P,D1,2,A*%
%TO.N,Net-(D1-A)*%
X133858000Y-82194500D03*
%TD*%
D10*
%TO.P,R15,1*%
%TO.N,Net-(IC1-COMP)*%
X111836200Y-131840000D03*
%TO.P,R15,2*%
%TO.N,Net-(C24-Pad1)*%
X113486200Y-131840000D03*
%TD*%
D37*
%TO.P,S1,1*%
%TO.N,GND*%
X150203000Y-93000000D03*
%TO.P,S1,2*%
X158153000Y-93000000D03*
%TO.P,S1,3*%
%TO.N,NRST*%
X150203000Y-97500000D03*
%TO.P,S1,4*%
%TO.N,unconnected-(S1-Pad4)*%
X158153000Y-97500000D03*
%TD*%
D13*
%TO.P,C1,1*%
%TO.N,+3.3V*%
X130556000Y-83857800D03*
%TO.P,C1,2*%
%TO.N,GND*%
X130556000Y-85407800D03*
%TD*%
D38*
%TO.P,C16,1*%
%TO.N,+6V*%
X103456200Y-134126000D03*
%TO.P,C16,2*%
%TO.N,GND*%
X105356200Y-134126000D03*
%TD*%
D39*
%TO.P,D5,1,K*%
%TO.N,5V_Conv*%
X131000000Y-134000000D03*
%TO.P,D5,2,A*%
%TO.N,Net-(D5-A)*%
X131000000Y-137300000D03*
%TD*%
D40*
%TO.P,L1,1*%
%TO.N,+BATT*%
X115437200Y-142254000D03*
%TO.P,L1,2*%
%TO.N,Net-(D4-A)*%
X109377200Y-142254000D03*
%TD*%
D41*
%TO.P,U2,1,VBAT*%
%TO.N,+3.3V*%
X129750000Y-91325000D03*
%TO.P,U2,2,PC13*%
%TO.N,DRV_MODE*%
X129250000Y-91325000D03*
%TO.P,U2,3,PC14*%
%TO.N,DRV_NSLEEP*%
X128750000Y-91325000D03*
%TO.P,U2,4,PC15*%
%TO.N,Net-(U2-PC15)*%
X128250000Y-91325000D03*
%TO.P,U2,5,PD0*%
%TO.N,Net-(U2-PD0)*%
X127750000Y-91325000D03*
%TO.P,U2,6,PD1*%
%TO.N,Net-(U2-PD1)*%
X127250000Y-91325000D03*
%TO.P,U2,7,NRST*%
%TO.N,NRST*%
X126750000Y-91325000D03*
%TO.P,U2,8,PC0*%
%TO.N,Net-(D1-K)*%
X126250000Y-91325000D03*
%TO.P,U2,9,PC1*%
%TO.N,KEEP_ALIVE*%
X125750000Y-91325000D03*
%TO.P,U2,10,PC2*%
%TO.N,EXT_PC2*%
X125250000Y-91325000D03*
%TO.P,U2,11,PC3*%
%TO.N,EXT_PC3*%
X124750000Y-91325000D03*
%TO.P,U2,12,VSSA*%
%TO.N,GND*%
X124250000Y-91325000D03*
%TO.P,U2,13,VDDA*%
%TO.N,+3.3VA*%
X123750000Y-91325000D03*
%TO.P,U2,14,PA0*%
%TO.N,WS_LED_1*%
X123250000Y-91325000D03*
%TO.P,U2,15,PA1*%
%TO.N,WS_LED_0*%
X122750000Y-91325000D03*
%TO.P,U2,16,PA2*%
%TO.N,EXT_USART_TX*%
X122250000Y-91325000D03*
D42*
%TO.P,U2,17,PA3*%
%TO.N,EXT_USART_RX*%
X120325000Y-93250000D03*
%TO.P,U2,18,VSS*%
%TO.N,GND*%
X120325000Y-93750000D03*
%TO.P,U2,19,VDD*%
%TO.N,+3.3V*%
X120325000Y-94250000D03*
%TO.P,U2,20,PA4*%
%TO.N,EXT_PA4*%
X120325000Y-94750000D03*
%TO.P,U2,21,PA5*%
%TO.N,BATT_ADC_0*%
X120325000Y-95250000D03*
%TO.P,U2,22,PA6*%
%TO.N,QTR_0*%
X120325000Y-95750000D03*
%TO.P,U2,23,PA7*%
%TO.N,QTR_1*%
X120325000Y-96250000D03*
%TO.P,U2,24,PC4*%
%TO.N,QTR_2*%
X120325000Y-96750000D03*
%TO.P,U2,25,PC5*%
%TO.N,QTR_3*%
X120325000Y-97250000D03*
%TO.P,U2,26,PB0*%
%TO.N,QTR_4*%
X120325000Y-97750000D03*
%TO.P,U2,27,PB1*%
%TO.N,QTR_5*%
X120325000Y-98250000D03*
%TO.P,U2,28,PB2*%
%TO.N,QTR_CTRL*%
X120325000Y-98750000D03*
%TO.P,U2,29,PB10*%
%TO.N,SRF-05_ECHO*%
X120325000Y-99250000D03*
%TO.P,U2,30,PB11*%
%TO.N,SRF-05_TRIG*%
X120325000Y-99750000D03*
%TO.P,U2,31,VSS*%
%TO.N,GND*%
X120325000Y-100250000D03*
%TO.P,U2,32,VDD*%
%TO.N,+3.3V*%
X120325000Y-100750000D03*
D41*
%TO.P,U2,33,PB12*%
%TO.N,SRF-05_IN*%
X122250000Y-102675000D03*
%TO.P,U2,34,PB13*%
%TO.N,EXT_SPI_SCK*%
X122750000Y-102675000D03*
%TO.P,U2,35,PB14*%
%TO.N,EXT_SPI_MISO*%
X123250000Y-102675000D03*
%TO.P,U2,36,PB15*%
%TO.N,EXT_SPI_MOSI*%
X123750000Y-102675000D03*
%TO.P,U2,37,PC6*%
%TO.N,DRV_AIN1{slash}APHASE*%
X124250000Y-102675000D03*
%TO.P,U2,38,PC7*%
%TO.N,DRV_AIN2{slash}AENBL*%
X124750000Y-102675000D03*
%TO.P,U2,39,PC8*%
%TO.N,DRV_BIN1{slash}BPHASE*%
X125250000Y-102675000D03*
%TO.P,U2,40,PC9*%
%TO.N,DRV_BIN2{slash}BENBL*%
X125750000Y-102675000D03*
%TO.P,U2,41,PA8*%
%TO.N,ENC_A_1*%
X126250000Y-102675000D03*
%TO.P,U2,42,PA9*%
%TO.N,ENC_A_2*%
X126750000Y-102675000D03*
%TO.P,U2,43,PA10*%
%TO.N,Power_Btn*%
X127250000Y-102675000D03*
%TO.P,U2,44,PA11*%
%TO.N,USB_D-*%
X127750000Y-102675000D03*
%TO.P,U2,45,PA12*%
%TO.N,USB_D+*%
X128250000Y-102675000D03*
%TO.P,U2,46,PA13*%
%TO.N,SWDIO*%
X128750000Y-102675000D03*
%TO.P,U2,47,VSS*%
%TO.N,GND*%
X129250000Y-102675000D03*
%TO.P,U2,48,VDD*%
%TO.N,+3.3V*%
X129750000Y-102675000D03*
D42*
%TO.P,U2,49,PA14*%
%TO.N,SWCLK*%
X131675000Y-100750000D03*
%TO.P,U2,50,PA15*%
%TO.N,NRF_IRQ*%
X131675000Y-100250000D03*
%TO.P,U2,51,PC10*%
%TO.N,NRF_SCK*%
X131675000Y-99750000D03*
%TO.P,U2,52,PC11*%
%TO.N,NRF_MISO*%
X131675000Y-99250000D03*
%TO.P,U2,53,PC12*%
%TO.N,NRF_MOSI*%
X131675000Y-98750000D03*
%TO.P,U2,54,PD2*%
%TO.N,NRF_CSN*%
X131675000Y-98250000D03*
%TO.P,U2,55,PB3*%
%TO.N,SWO*%
X131675000Y-97750000D03*
%TO.P,U2,56,PB4*%
%TO.N,NRF_CE*%
X131675000Y-97250000D03*
%TO.P,U2,57,PB5*%
%TO.N,MPU-6050_IRQ*%
X131675000Y-96750000D03*
%TO.P,U2,58,PB6*%
%TO.N,ENC_B_1*%
X131675000Y-96250000D03*
%TO.P,U2,59,PB7*%
%TO.N,ENC_B_2*%
X131675000Y-95750000D03*
%TO.P,U2,60,BOOT0*%
%TO.N,BOOT0*%
X131675000Y-95250000D03*
%TO.P,U2,61,PB8*%
%TO.N,I2C_SCL*%
X131675000Y-94750000D03*
%TO.P,U2,62,PB9*%
%TO.N,I2C_SDA*%
X131675000Y-94250000D03*
%TO.P,U2,63,VSS*%
%TO.N,GND*%
X131675000Y-93750000D03*
%TO.P,U2,64,VDD*%
%TO.N,+3.3V*%
X131675000Y-93250000D03*
%TD*%
D43*
%TO.P,BT1,1,+*%
%TO.N,+BATT*%
X135648200Y-143572000D03*
D44*
%TO.P,BT1,2,-*%
%TO.N,GND*%
X139148200Y-143572000D03*
%TD*%
D36*
%TO.P,L5,1*%
%TO.N,NRF_ANT1*%
X147828000Y-85064500D03*
%TO.P,L5,2*%
%TO.N,NRF_VDD_PA*%
X147828000Y-86639500D03*
%TD*%
D45*
%TO.P,D4,1,K*%
%TO.N,+6V*%
X102333200Y-138190000D03*
%TO.P,D4,2,A*%
%TO.N,Net-(D4-A)*%
X106733200Y-138190000D03*
%TD*%
D32*
%TO.P,C30,1*%
%TO.N,+6V*%
X127000000Y-118665000D03*
%TO.P,C30,2*%
%TO.N,GND*%
X127000000Y-117115000D03*
%TD*%
D46*
%TO.P,C35,1*%
%TO.N,+3.3V*%
X142855008Y-80645000D03*
%TO.P,C35,2*%
%TO.N,GND*%
X144405008Y-80645000D03*
%TD*%
D47*
%TO.P,J11,1,Pin_1*%
%TO.N,EXT_USART_TX*%
X110998000Y-101087000D03*
D48*
%TO.P,J11,2,Pin_2*%
%TO.N,EXT_USART_RX*%
X113538000Y-101087000D03*
%TO.P,J11,3,Pin_3*%
%TO.N,KEEP_ALIVE*%
X110998000Y-103627000D03*
%TO.P,J11,4,Pin_4*%
%TO.N,Power_Btn*%
X113538000Y-103627000D03*
%TO.P,J11,5,Pin_5*%
%TO.N,EXT_PC3*%
X110998000Y-106167000D03*
%TO.P,J11,6,Pin_6*%
%TO.N,EXT_PC2*%
X113538000Y-106167000D03*
%TO.P,J11,7,Pin_7*%
%TO.N,EXT_PA4*%
X110998000Y-108707000D03*
%TO.P,J11,8,Pin_8*%
%TO.N,EXT_SPI_SCK*%
X113538000Y-108707000D03*
%TO.P,J11,9,Pin_9*%
%TO.N,EXT_SPI_MISO*%
X110998000Y-111247000D03*
%TO.P,J11,10,Pin_10*%
%TO.N,EXT_SPI_MOSI*%
X113538000Y-111247000D03*
%TO.P,J11,11,Pin_11*%
%TO.N,I2C_SCL*%
X110998000Y-113787000D03*
%TO.P,J11,12,Pin_12*%
%TO.N,I2C_SDA*%
X113538000Y-113787000D03*
%TO.P,J11,13,Pin_13*%
%TO.N,GND*%
X110998000Y-116327000D03*
%TO.P,J11,14,Pin_14*%
%TO.N,+3.3V*%
X113538000Y-116327000D03*
%TO.P,J11,15,Pin_15*%
%TO.N,GND*%
X110998000Y-118867000D03*
%TO.P,J11,16,Pin_16*%
%TO.N,+5V*%
X113538000Y-118867000D03*
%TD*%
D39*
%TO.P,D3,1,K*%
%TO.N,5V_Conv*%
X133616200Y-134000000D03*
%TO.P,D3,2,A*%
%TO.N,V_USB*%
X133616200Y-137300000D03*
%TD*%
D14*
%TO.P,R16,1*%
%TO.N,Net-(U4-FB)*%
X123964200Y-139066800D03*
%TO.P,R16,2*%
%TO.N,GND*%
X123964200Y-140716800D03*
%TD*%
D13*
%TO.P,C2,1*%
%TO.N,+3.3V*%
X134366000Y-92189000D03*
%TO.P,C2,2*%
%TO.N,GND*%
X134366000Y-93739000D03*
%TD*%
D34*
%TO.P,Q2,1,C*%
%TO.N,Net-(Q1-G)*%
X151970200Y-135825500D03*
%TO.P,Q2,2,B*%
%TO.N,Net-(Q2-B)*%
X153870200Y-135825500D03*
%TO.P,Q2,3,E*%
%TO.N,GND*%
X152920200Y-133950500D03*
%TD*%
D49*
%TO.P,U7,1,E0*%
%TO.N,GND*%
X135382000Y-112330000D03*
%TO.P,U7,2,E1*%
X136652000Y-112330000D03*
%TO.P,U7,3,E2*%
X137922000Y-112330000D03*
%TO.P,U7,4,VSS*%
X139192000Y-112330000D03*
%TO.P,U7,5,SDA*%
%TO.N,I2C_SDA*%
X139192000Y-107380000D03*
%TO.P,U7,6,SCL*%
%TO.N,I2C_SCL*%
X137922000Y-107380000D03*
%TO.P,U7,7,~{WC}*%
%TO.N,GND*%
X136652000Y-107380000D03*
%TO.P,U7,8,VCC*%
%TO.N,+3.3V*%
X135382000Y-107380000D03*
%TD*%
D46*
%TO.P,C31,1*%
%TO.N,Net-(C31-Pad1)*%
X150863000Y-83566000D03*
%TO.P,C31,2*%
%TO.N,Net-(C31-Pad2)*%
X152413000Y-83566000D03*
%TD*%
D11*
%TO.P,J2,1,Pin_1*%
%TO.N,GND*%
X103040000Y-99212000D03*
D12*
%TO.P,J2,2,Pin_2*%
%TO.N,WS_LED_1*%
X103040000Y-97212000D03*
%TO.P,J2,3,Pin_3*%
%TO.N,+5V*%
X103040000Y-95212000D03*
%TO.P,J2,4,Pin_4*%
%TO.N,GND*%
X103040000Y-93212000D03*
%TD*%
D50*
%TO.P,FB1,1*%
%TO.N,+3.3VA*%
X117906800Y-85382500D03*
%TO.P,FB1,2*%
%TO.N,+3.3V*%
X117906800Y-83807500D03*
%TD*%
D10*
%TO.P,R9,1*%
%TO.N,GND*%
X102807000Y-116078000D03*
%TO.P,R9,2*%
%TO.N,BATT_ADC_0*%
X104457000Y-116078000D03*
%TD*%
D13*
%TO.P,C6,1*%
%TO.N,+3.3V*%
X130302000Y-104889000D03*
%TO.P,C6,2*%
%TO.N,GND*%
X130302000Y-106439000D03*
%TD*%
D51*
%TO.P,IC2,1,VCC*%
%TO.N,+6V*%
X128798000Y-119160000D03*
%TO.P,IC2,2,AOUT1*%
%TO.N,A1*%
X129298000Y-119160000D03*
%TO.P,IC2,3,AOUT2*%
%TO.N,A2*%
X129798000Y-119160000D03*
%TO.P,IC2,4,BOUT1*%
%TO.N,B1*%
X130298000Y-119160000D03*
%TO.P,IC2,5,BOUT2*%
%TO.N,B2*%
X130798000Y-119160000D03*
%TO.P,IC2,6,GND_1*%
%TO.N,GND*%
X131298000Y-119160000D03*
%TO.P,IC2,7,BIN2/BENBL*%
%TO.N,DRV_BIN2{slash}BENBL*%
X131298000Y-117060000D03*
%TO.P,IC2,8,BIN1_/_BPHASE*%
%TO.N,DRV_BIN1{slash}BPHASE*%
X130798000Y-117060000D03*
%TO.P,IC2,9,AIN2/AENBL*%
%TO.N,DRV_AIN2{slash}AENBL*%
X130298000Y-117060000D03*
%TO.P,IC2,10,AIN1/APHASE*%
%TO.N,DRV_AIN1{slash}APHASE*%
X129798000Y-117060000D03*
%TO.P,IC2,11,MODE*%
%TO.N,DRV_MODE*%
X129298000Y-117060000D03*
%TO.P,IC2,12,NSLEEP*%
%TO.N,DRV_NSLEEP*%
X128798000Y-117060000D03*
D52*
%TO.P,IC2,13,GND_2*%
%TO.N,GND*%
X130000000Y-118110000D03*
%TD*%
D13*
%TO.P,C9,1*%
%TO.N,+3.3V*%
X119735600Y-83820000D03*
%TO.P,C9,2*%
%TO.N,GND*%
X119735600Y-85370000D03*
%TD*%
D46*
%TO.P,C42,1*%
%TO.N,GND*%
X141199000Y-95758000D03*
%TO.P,C42,2*%
%TO.N,+3.3V*%
X142749000Y-95758000D03*
%TD*%
D13*
%TO.P,C46,1*%
%TO.N,GND*%
X139192000Y-97650000D03*
%TO.P,C46,2*%
%TO.N,Net-(U8-CPOUT)*%
X139192000Y-99200000D03*
%TD*%
D32*
%TO.P,C7,1*%
%TO.N,+3.3VA*%
X119735600Y-88634200D03*
%TO.P,C7,2*%
%TO.N,GND*%
X119735600Y-87084200D03*
%TD*%
D11*
%TO.P,J6,1,Pin_1*%
%TO.N,I2C_SDA*%
X103047800Y-111664000D03*
D12*
%TO.P,J6,2,Pin_2*%
%TO.N,I2C_SCL*%
X103047800Y-109664000D03*
%TO.P,J6,3,Pin_3*%
%TO.N,+3.3V*%
X103047800Y-107664000D03*
%TO.P,J6,4,Pin_4*%
%TO.N,GND*%
X103047800Y-105664000D03*
%TD*%
D37*
%TO.P,S3,1*%
%TO.N,GND*%
X150203000Y-110780000D03*
%TO.P,S3,2*%
X158153000Y-110780000D03*
%TO.P,S3,3*%
%TO.N,unconnected-(S3-Pad3)*%
X150203000Y-115280000D03*
%TO.P,S3,4*%
%TO.N,Net-(D2-Pad3)*%
X158153000Y-115280000D03*
%TD*%
D15*
%TO.P,C20,1*%
%TO.N,+3.3V*%
X137820200Y-128919000D03*
%TO.P,C20,2*%
%TO.N,GND*%
X136270200Y-128919000D03*
%TD*%
D32*
%TO.P,C29,1*%
%TO.N,+6V*%
X125222000Y-118665000D03*
%TO.P,C29,2*%
%TO.N,GND*%
X125222000Y-117115000D03*
%TD*%
D34*
%TO.P,D2,1*%
%TO.N,Power_Btn*%
X147718200Y-135825500D03*
%TO.P,D2,2*%
%TO.N,Net-(Q1-G)*%
X149618200Y-135825500D03*
%TO.P,D2,3*%
%TO.N,Net-(D2-Pad3)*%
X148668200Y-133950500D03*
%TD*%
D53*
%TO.P,J9,1,Pin_1*%
%TO.N,B2*%
X156000000Y-119440000D03*
D29*
%TO.P,J9,2,Pin_2*%
%TO.N,GND*%
X156000000Y-120940000D03*
%TO.P,J9,3,Pin_3*%
%TO.N,ENC_B_1*%
X156000000Y-122440000D03*
%TO.P,J9,4,Pin_4*%
%TO.N,ENC_B_2*%
X156000000Y-123940000D03*
%TO.P,J9,5,Pin_5*%
%TO.N,+3.3V*%
X156000000Y-125440000D03*
%TO.P,J9,6,Pin_6*%
%TO.N,B1*%
X156000000Y-126940000D03*
%TD*%
D35*
%TO.P,R14,1*%
%TO.N,Net-(IC1-FB)*%
X108660200Y-131840000D03*
%TO.P,R14,2*%
%TO.N,GND*%
X107010200Y-131840000D03*
%TD*%
D54*
%TO.P,L3,1*%
%TO.N,NRF_ANT2*%
X147802500Y-83566000D03*
%TO.P,L3,2*%
%TO.N,Net-(C31-Pad1)*%
X149377500Y-83566000D03*
%TD*%
D32*
%TO.P,C10,1*%
%TO.N,NRST*%
X132461000Y-90310000D03*
%TO.P,C10,2*%
%TO.N,GND*%
X132461000Y-88760000D03*
%TD*%
D38*
%TO.P,C17,1*%
%TO.N,+6V*%
X103456200Y-131840000D03*
%TO.P,C17,2*%
%TO.N,GND*%
X105356200Y-131840000D03*
%TD*%
D32*
%TO.P,C25,1*%
%TO.N,+6V*%
X116598200Y-128805000D03*
%TO.P,C25,2*%
%TO.N,GND*%
X116598200Y-127255000D03*
%TD*%
D46*
%TO.P,C11,1*%
%TO.N,Net-(U2-PD0)*%
X127215600Y-87464000D03*
%TO.P,C11,2*%
%TO.N,GND*%
X128765600Y-87464000D03*
%TD*%
D55*
%TO.P,L2,1*%
%TO.N,+BATT*%
X131000000Y-143400900D03*
%TO.P,L2,2*%
%TO.N,Net-(D5-A)*%
X131000000Y-139125900D03*
%TD*%
D32*
%TO.P,C13,1*%
%TO.N,+BATT*%
X115074200Y-137695000D03*
%TO.P,C13,2*%
%TO.N,GND*%
X115074200Y-136145000D03*
%TD*%
D11*
%TO.P,J3,1,Pin_1*%
%TO.N,GND*%
X103040000Y-86766000D03*
D12*
%TO.P,J3,2,Pin_2*%
%TO.N,WS_LED_0*%
X103040000Y-84766000D03*
%TO.P,J3,3,Pin_3*%
%TO.N,+5V*%
X103040000Y-82766000D03*
%TO.P,J3,4,Pin_4*%
%TO.N,GND*%
X103040000Y-80766000D03*
%TD*%
D37*
%TO.P,S2,1*%
%TO.N,GND*%
X150203000Y-101890000D03*
%TO.P,S2,2*%
X158153000Y-101890000D03*
%TO.P,S2,3*%
%TO.N,Net-(U2-PC15)*%
X150203000Y-106390000D03*
%TO.P,S2,4*%
X158153000Y-106390000D03*
%TD*%
D56*
%TO.P,Y2,1,1*%
%TO.N,NRF_XC2*%
X141902000Y-92290000D03*
%TO.P,Y2,2,2*%
%TO.N,GND*%
X144102000Y-92290000D03*
%TO.P,Y2,3,3*%
%TO.N,NRF_XC1*%
X144102000Y-90590000D03*
%TO.P,Y2,4,4*%
%TO.N,GND*%
X141902000Y-90590000D03*
%TD*%
D15*
%TO.P,C39,1*%
%TO.N,GND*%
X150889000Y-88138000D03*
%TO.P,C39,2*%
%TO.N,NRF_VDD_PA*%
X149339000Y-88138000D03*
%TD*%
%TO.P,C44,1*%
%TO.N,+3.3V*%
X135141000Y-104902000D03*
%TO.P,C44,2*%
%TO.N,GND*%
X133591000Y-104902000D03*
%TD*%
D32*
%TO.P,C36,1*%
%TO.N,NRF_XC2*%
X139700000Y-92215000D03*
%TO.P,C36,2*%
%TO.N,GND*%
X139700000Y-90665000D03*
%TD*%
D14*
%TO.P,R11,1*%
%TO.N,5V_Conv*%
X123964200Y-135891800D03*
%TO.P,R11,2*%
%TO.N,Net-(U4-FB)*%
X123964200Y-137541800D03*
%TD*%
%TO.P,R1,1*%
%TO.N,BOOT0*%
X141097000Y-107760000D03*
%TO.P,R1,2*%
%TO.N,Net-(SW1-B)*%
X141097000Y-109410000D03*
%TD*%
D54*
%TO.P,D7,1,K*%
%TO.N,GND*%
X111607500Y-127254000D03*
%TO.P,D7,2,A*%
%TO.N,Net-(D7-A)*%
X113182500Y-127254000D03*
%TD*%
D57*
%TO.P,U6,1,CE*%
%TO.N,NRF_CE*%
X140556500Y-83582000D03*
%TO.P,U6,2,CSN*%
%TO.N,NRF_CSN*%
X140556500Y-84082000D03*
%TO.P,U6,3,SCK*%
%TO.N,NRF_SCK*%
X140556500Y-84582000D03*
%TO.P,U6,4,MOSI*%
%TO.N,NRF_MOSI*%
X140556500Y-85082000D03*
%TO.P,U6,5,MISO*%
%TO.N,NRF_MISO*%
X140556500Y-85582000D03*
D58*
%TO.P,U6,6,IRQ*%
%TO.N,NRF_IRQ*%
X141494000Y-86519500D03*
%TO.P,U6,7,VDD*%
%TO.N,+3.3V*%
X141994000Y-86519500D03*
%TO.P,U6,8,VSS*%
%TO.N,GND*%
X142494000Y-86519500D03*
%TO.P,U6,9,XC2*%
%TO.N,NRF_XC2*%
X142994000Y-86519500D03*
%TO.P,U6,10,XC1*%
%TO.N,NRF_XC1*%
X143494000Y-86519500D03*
D57*
%TO.P,U6,11,VDD_PA*%
%TO.N,NRF_VDD_PA*%
X144431500Y-85582000D03*
%TO.P,U6,12,ANT1*%
%TO.N,NRF_ANT1*%
X144431500Y-85082000D03*
%TO.P,U6,13,ANT2*%
%TO.N,NRF_ANT2*%
X144431500Y-84582000D03*
%TO.P,U6,14,VSS*%
%TO.N,GND*%
X144431500Y-84082000D03*
%TO.P,U6,15,VDD*%
%TO.N,+3.3V*%
X144431500Y-83582000D03*
D58*
%TO.P,U6,16,IREF*%
%TO.N,Net-(U6-IREF)*%
X143494000Y-82644500D03*
%TO.P,U6,17,VSS*%
%TO.N,GND*%
X142994000Y-82644500D03*
%TO.P,U6,18,VDD*%
%TO.N,+3.3V*%
X142494000Y-82644500D03*
%TO.P,U6,19,DVDD*%
%TO.N,Net-(U6-DVDD)*%
X141994000Y-82644500D03*
%TO.P,U6,20,VSS*%
%TO.N,GND*%
X141494000Y-82644500D03*
D59*
%TO.P,U6,21*%
%TO.N,N/C*%
X142494000Y-84582000D03*
%TD*%
D46*
%TO.P,C33,1*%
%TO.N,+3.3V*%
X139687000Y-88265000D03*
%TO.P,C33,2*%
%TO.N,GND*%
X141237000Y-88265000D03*
%TD*%
D10*
%TO.P,R17,1*%
%TO.N,NRF_XC2*%
X142812000Y-88265000D03*
%TO.P,R17,2*%
%TO.N,NRF_XC1*%
X144462000Y-88265000D03*
%TD*%
D60*
%TO.P,U8,1,CLKIN*%
%TO.N,GND*%
X141752000Y-101518000D03*
%TO.P,U8,2,NC*%
%TO.N,unconnected-(U8-NC-Pad2)*%
X142252000Y-101518000D03*
%TO.P,U8,3,NC*%
%TO.N,unconnected-(U8-NC-Pad3)*%
X142752000Y-101518000D03*
%TO.P,U8,4,NC*%
%TO.N,unconnected-(U8-NC-Pad4)*%
X143252000Y-101518000D03*
%TO.P,U8,5,NC*%
%TO.N,unconnected-(U8-NC-Pad5)*%
X143752000Y-101518000D03*
%TO.P,U8,6,AUX_DA*%
%TO.N,unconnected-(U8-AUX_DA-Pad6)*%
X144252000Y-101518000D03*
D61*
%TO.P,U8,7,AUX_CL*%
%TO.N,unconnected-(U8-AUX_CL-Pad7)*%
X144952000Y-100818000D03*
%TO.P,U8,8,VLOGIC*%
%TO.N,+3.3V*%
X144952000Y-100318000D03*
%TO.P,U8,9,AD0*%
%TO.N,GND*%
X144952000Y-99818000D03*
%TO.P,U8,10,REGOUT*%
%TO.N,Net-(U8-REGOUT)*%
X144952000Y-99318000D03*
%TO.P,U8,11,FSYNC*%
%TO.N,GND*%
X144952000Y-98818000D03*
%TO.P,U8,12,INT*%
%TO.N,MPU-6050_IRQ*%
X144952000Y-98318000D03*
D60*
%TO.P,U8,13,VDD*%
%TO.N,+3.3V*%
X144252000Y-97618000D03*
%TO.P,U8,14,NC*%
%TO.N,unconnected-(U8-NC-Pad14)*%
X143752000Y-97618000D03*
%TO.P,U8,15,NC*%
%TO.N,unconnected-(U8-NC-Pad15)*%
X143252000Y-97618000D03*
%TO.P,U8,16,NC*%
%TO.N,unconnected-(U8-NC-Pad16)*%
X142752000Y-97618000D03*
%TO.P,U8,17,NC*%
%TO.N,unconnected-(U8-NC-Pad17)*%
X142252000Y-97618000D03*
%TO.P,U8,18,GND*%
%TO.N,GND*%
X141752000Y-97618000D03*
D61*
%TO.P,U8,19,RESV*%
%TO.N,unconnected-(U8-RESV-Pad19)*%
X141052000Y-98318000D03*
%TO.P,U8,20,CPOUT*%
%TO.N,Net-(U8-CPOUT)*%
X141052000Y-98818000D03*
%TO.P,U8,21,RESV*%
%TO.N,unconnected-(U8-RESV-Pad21)*%
X141052000Y-99318000D03*
%TO.P,U8,22,RESV*%
%TO.N,unconnected-(U8-RESV-Pad22)*%
X141052000Y-99818000D03*
%TO.P,U8,23,SCL*%
%TO.N,I2C_SCL*%
X141052000Y-100318000D03*
%TO.P,U8,24,SDA*%
%TO.N,I2C_SDA*%
X141052000Y-100818000D03*
%TD*%
D33*
%TO.P,R13,1*%
%TO.N,+6V*%
X114935000Y-128841000D03*
%TO.P,R13,2*%
%TO.N,Net-(D7-A)*%
X114935000Y-127191000D03*
%TD*%
D56*
%TO.P,Y1,1,1*%
%TO.N,Net-(U2-PD0)*%
X127288000Y-83732000D03*
%TO.P,Y1,2,2*%
%TO.N,GND*%
X125088000Y-83732000D03*
%TO.P,Y1,3,3*%
%TO.N,Net-(U2-PD1)*%
X125088000Y-85432000D03*
%TO.P,Y1,4,4*%
%TO.N,GND*%
X127288000Y-85432000D03*
%TD*%
D32*
%TO.P,C8,1*%
%TO.N,+3.3VA*%
X117906800Y-88621200D03*
%TO.P,C8,2*%
%TO.N,GND*%
X117906800Y-87071200D03*
%TD*%
D13*
%TO.P,C27,1*%
%TO.N,5V_Stab*%
X129425200Y-127128000D03*
%TO.P,C27,2*%
%TO.N,GND*%
X129425200Y-128678000D03*
%TD*%
D62*
%TO.P,U1,1,I/O1*%
%TO.N,USB_CONN_D-*%
X143715200Y-138057500D03*
%TO.P,U1,2,GND*%
%TO.N,GND*%
X144665200Y-138057500D03*
%TO.P,U1,3,I/O2*%
%TO.N,USB_CONN_D+*%
X145615200Y-138057500D03*
%TO.P,U1,4,I/O2*%
%TO.N,USB_D+*%
X145615200Y-135782500D03*
%TO.P,U1,5,VBUS*%
%TO.N,V_USB*%
X144665200Y-135782500D03*
%TO.P,U1,6,I/O1*%
%TO.N,USB_D-*%
X143715200Y-135782500D03*
%TD*%
D46*
%TO.P,C19,1*%
%TO.N,+3.3V*%
X139826200Y-128919000D03*
%TO.P,C19,2*%
%TO.N,GND*%
X141376200Y-128919000D03*
%TD*%
D32*
%TO.P,C4,1*%
%TO.N,+3.3V*%
X117909600Y-93739000D03*
%TO.P,C4,2*%
%TO.N,GND*%
X117909600Y-92189000D03*
%TD*%
%TO.P,C3,1*%
%TO.N,+3.3V*%
X130556000Y-88659000D03*
%TO.P,C3,2*%
%TO.N,GND*%
X130556000Y-87109000D03*
%TD*%
D10*
%TO.P,R7,1*%
%TO.N,BATT_ADC_0*%
X106236000Y-116078000D03*
%TO.P,R7,2*%
%TO.N,+BATT*%
X107886000Y-116078000D03*
%TD*%
D36*
%TO.P,L4,1*%
%TO.N,NRF_ANT2*%
X146304000Y-83540500D03*
%TO.P,L4,2*%
%TO.N,NRF_ANT1*%
X146304000Y-85115500D03*
%TD*%
D10*
%TO.P,R18,1*%
%TO.N,+3.3V*%
X142805008Y-78994000D03*
%TO.P,R18,2*%
%TO.N,Net-(U6-IREF)*%
X144455008Y-78994000D03*
%TD*%
D63*
%TO.P,U4,1,SW*%
%TO.N,Net-(D5-A)*%
X127759000Y-138855900D03*
%TO.P,U4,2,GND*%
%TO.N,GND*%
X126809000Y-138855900D03*
%TO.P,U4,3,FB*%
%TO.N,Net-(U4-FB)*%
X125859000Y-138855900D03*
%TO.P,U4,4,EN*%
%TO.N,EN*%
X125859000Y-141130900D03*
%TO.P,U4,5,VIN*%
%TO.N,+BATT*%
X127759000Y-141130900D03*
%TD*%
D64*
%TO.P,C28,1*%
%TO.N,+6V*%
X118958000Y-115096000D03*
%TO.P,C28,2*%
%TO.N,GND*%
X123358000Y-115096000D03*
%TD*%
D65*
%TO.P,D6,1,K*%
%TO.N,GND*%
X148488500Y-127254000D03*
%TO.P,D6,2,A*%
%TO.N,Net-(D6-A)*%
X146913500Y-127254000D03*
%TD*%
D15*
%TO.P,C38,1*%
%TO.N,GND*%
X150889000Y-86614000D03*
%TO.P,C38,2*%
%TO.N,NRF_VDD_PA*%
X149339000Y-86614000D03*
%TD*%
D32*
%TO.P,C15,1*%
%TO.N,+BATT*%
X120662200Y-141745000D03*
%TO.P,C15,2*%
%TO.N,GND*%
X120662200Y-140195000D03*
%TD*%
%TO.P,C34,1*%
%TO.N,+3.3V*%
X146195408Y-80556400D03*
%TO.P,C34,2*%
%TO.N,GND*%
X146195408Y-79006400D03*
%TD*%
D66*
%TO.P,IC1,1,COMP*%
%TO.N,Net-(IC1-COMP)*%
X111748200Y-134247000D03*
%TO.P,IC1,2,FB*%
%TO.N,Net-(IC1-FB)*%
X111248200Y-134247000D03*
%TO.P,IC1,3,EN*%
%TO.N,EN*%
X110748200Y-134247000D03*
%TO.P,IC1,4,AGND_1*%
%TO.N,GND*%
X110248200Y-134247000D03*
%TO.P,IC1,5,PGND*%
X109748200Y-134247000D03*
%TO.P,IC1,6,SW_1*%
%TO.N,Net-(D4-A)*%
X109748200Y-137047000D03*
%TO.P,IC1,7,SW_2*%
X110248200Y-137047000D03*
%TO.P,IC1,8,IN*%
%TO.N,+BATT*%
X110748200Y-137047000D03*
%TO.P,IC1,9,FREQ*%
%TO.N,Net-(IC1-FREQ)*%
X111248200Y-137047000D03*
%TO.P,IC1,10,SS*%
%TO.N,Net-(IC1-SS)*%
X111748200Y-137047000D03*
D67*
%TO.P,IC1,11,AGND_2*%
%TO.N,GND*%
X110748200Y-135647000D03*
D68*
%TO.P,IC1,12,AGND_3*%
X109298200Y-135397000D03*
%TO.P,IC1,13,AGND_4*%
X109298200Y-135897000D03*
%TO.P,IC1,14,AGND_5*%
X112198200Y-135897000D03*
%TO.P,IC1,15,AGND_6*%
X112198200Y-135397000D03*
%TD*%
D33*
%TO.P,R20,1*%
%TO.N,+3.3V*%
X140208000Y-104838000D03*
%TO.P,R20,2*%
%TO.N,I2C_SDA*%
X140208000Y-103188000D03*
%TD*%
D16*
%TO.P,U3,1,GND*%
%TO.N,GND*%
X141123200Y-131103000D03*
%TO.P,U3,2,VO*%
%TO.N,+3.3V*%
X138823200Y-131103000D03*
D17*
X138823200Y-137403000D03*
D16*
%TO.P,U3,3,VI*%
%TO.N,5V_Conv*%
X136523200Y-131103000D03*
%TD*%
D69*
%TO.P,J10,1*%
%TO.N,GND*%
X157226000Y-83361000D03*
X157226000Y-86311000D03*
D70*
%TO.P,J10,2*%
%TO.N,Net-(C31-Pad2)*%
X155726000Y-84836000D03*
%TD*%
D35*
%TO.P,R5,1*%
%TO.N,+BATT*%
X149493200Y-138190000D03*
%TO.P,R5,2*%
%TO.N,Power_Btn*%
X147843200Y-138190000D03*
%TD*%
%TO.P,R8,1*%
%TO.N,Net-(Q2-B)*%
X153745200Y-138188000D03*
%TO.P,R8,2*%
%TO.N,KEEP_ALIVE*%
X152095200Y-138188000D03*
%TD*%
D33*
%TO.P,R19,1*%
%TO.N,+3.3V*%
X136906000Y-104838000D03*
%TO.P,R19,2*%
%TO.N,I2C_SCL*%
X136906000Y-103188000D03*
%TD*%
D71*
%TO.N,+BATT*%
X115074200Y-139206000D03*
D72*
X101092000Y-133096000D03*
D71*
X152666200Y-144286000D03*
X152666200Y-140222000D03*
X155194000Y-137160000D03*
X148602200Y-136158000D03*
X156730200Y-140222000D03*
%TO.N,GND*%
X116979200Y-135396000D03*
X124206000Y-89916000D03*
X156464000Y-82194400D03*
X148844000Y-140208000D03*
X134886200Y-141238000D03*
X151485600Y-101904800D03*
X158750000Y-89611200D03*
X141998200Y-144794000D03*
X143395200Y-131586000D03*
X146558000Y-131318000D03*
X147828000Y-89611200D03*
X141998200Y-143016000D03*
X139700000Y-79603600D03*
X131572000Y-85394800D03*
X143395200Y-128665000D03*
X158750000Y-80060800D03*
X151485600Y-92989400D03*
D72*
X129235200Y-118110000D03*
D71*
X146202400Y-77927200D03*
X150012400Y-89611200D03*
X141998200Y-141238000D03*
D72*
X110121200Y-135650000D03*
D71*
X122301000Y-113919000D03*
X151485600Y-110794800D03*
X156565600Y-89611200D03*
X111607600Y-126085600D03*
D72*
X118872000Y-92202000D03*
D71*
X134366000Y-106172000D03*
D72*
X130759200Y-118110000D03*
D71*
X132461000Y-87757000D03*
X140505534Y-88930474D03*
X125869200Y-135878600D03*
X144145000Y-93322000D03*
X156565600Y-80060800D03*
X120691467Y-85357340D03*
X106692200Y-135396000D03*
X139446000Y-96647000D03*
X155448000Y-132842000D03*
D72*
X111391200Y-135650000D03*
D71*
X143395200Y-130062000D03*
X123456200Y-143143000D03*
X147828000Y-82245200D03*
X127014500Y-115951000D03*
X117906800Y-86319500D03*
X151892000Y-132842000D03*
X156870400Y-93014800D03*
X138442200Y-141238000D03*
X139319000Y-113919000D03*
X131953000Y-119126000D03*
X138811000Y-90678000D03*
X122301000Y-116967000D03*
X147828000Y-80060800D03*
X113423200Y-135396000D03*
D72*
X123825000Y-85705250D03*
D71*
X147828000Y-87833200D03*
X135382000Y-113919000D03*
X157988000Y-82194400D03*
D72*
X102768400Y-117068600D03*
D71*
X157988000Y-87477600D03*
X147943000Y-100457000D03*
X146927000Y-96139000D03*
D72*
X128524000Y-85738200D03*
D71*
X146032841Y-98135398D03*
X124460000Y-113919000D03*
D72*
X117094000Y-100457000D03*
D71*
X140258800Y-95961200D03*
X123444000Y-116967000D03*
X131064000Y-106426000D03*
X140690600Y-90680400D03*
X131559000Y-87109000D03*
X152196800Y-80060800D03*
X140589000Y-97155000D03*
X154381200Y-89611200D03*
X156464000Y-87477600D03*
X131953000Y-117983000D03*
X106692200Y-133618000D03*
X156870400Y-110794800D03*
X154381200Y-80060800D03*
X134874000Y-94488000D03*
X123418600Y-113893600D03*
X138811000Y-118745000D03*
X136664200Y-141238000D03*
X120700800Y-87084200D03*
D72*
X151892000Y-86614000D03*
D71*
X146558000Y-136906000D03*
D72*
X130048000Y-118110000D03*
D71*
X116586000Y-126111000D03*
X150012400Y-80060800D03*
X156870400Y-101904800D03*
D72*
X145313233Y-83337233D03*
D71*
X129044200Y-135904000D03*
D72*
X151892000Y-88138000D03*
D71*
X145364200Y-92204400D03*
X127012200Y-137428000D03*
X136652000Y-108824500D03*
X152196800Y-89611200D03*
X108216200Y-135396000D03*
X137287000Y-113919000D03*
D72*
X153924000Y-81026000D03*
D71*
X134328497Y-101854000D03*
X143510000Y-81534000D03*
X141859000Y-102362000D03*
X125869200Y-137047000D03*
X140220200Y-141238000D03*
%TO.N,+3.3V*%
X143383000Y-118745000D03*
X146939000Y-103124000D03*
X140208000Y-105664000D03*
X131064000Y-104902000D03*
X139839200Y-127903000D03*
X135763000Y-79502000D03*
X131572000Y-83820000D03*
X134366000Y-87757000D03*
X137807200Y-127903000D03*
D72*
X116899500Y-93726000D03*
D71*
X139839200Y-126887000D03*
X134366000Y-91313000D03*
X138823200Y-127903000D03*
X141782800Y-79603600D03*
D72*
X117094000Y-101156500D03*
D71*
X138823200Y-126887000D03*
X135128000Y-101854000D03*
X141782800Y-78790800D03*
X120700800Y-83782200D03*
X143256000Y-94742000D03*
X146558000Y-81788000D03*
X148654000Y-108585000D03*
X136906000Y-105664000D03*
X129133600Y-88798400D03*
X137807200Y-126887000D03*
X138684000Y-88265000D03*
D72*
%TO.N,NRST*%
X129921000Y-93345000D03*
D71*
%TO.N,5V_Conv*%
X133985000Y-131394200D03*
X133985000Y-130505200D03*
X135001000Y-131394200D03*
X135001000Y-130505200D03*
%TO.N,+6V*%
X112776000Y-128905000D03*
X118973600Y-113919000D03*
X117856000Y-112928400D03*
X111760000Y-128905000D03*
X120015000Y-112928400D03*
X117856000Y-113944400D03*
X120015000Y-113944400D03*
X113792000Y-129921000D03*
X113792000Y-128905000D03*
X118973600Y-112928400D03*
X112776000Y-129921000D03*
X111760000Y-129921000D03*
%TO.N,5V_Stab*%
X131572000Y-127254000D03*
X130556000Y-126365000D03*
X130556000Y-127254000D03*
X131572000Y-126365000D03*
D72*
%TO.N,Net-(IC1-SS)*%
X116852200Y-131992400D03*
X112661200Y-137047000D03*
%TO.N,Power_Btn*%
X125476000Y-99441000D03*
X126365000Y-108966000D03*
X147718200Y-132242500D03*
%TO.N,EN*%
X125158000Y-140755400D03*
X110045000Y-133211600D03*
X125158000Y-141517400D03*
%TO.N,Net-(IC1-FREQ)*%
X111442000Y-137910600D03*
%TO.N,DRV_MODE*%
X129159000Y-90170000D03*
X129159000Y-113411000D03*
%TO.N,DRV_NSLEEP*%
X128333500Y-92745500D03*
X128346200Y-113411000D03*
D71*
%TO.N,+5V*%
X132715000Y-126365000D03*
X133731000Y-127254000D03*
X133731000Y-126365000D03*
X132715000Y-127254000D03*
D72*
%TO.N,SRF-05_TRIG*%
X123063000Y-96266000D03*
%TO.N,SRF-05_ECHO*%
X123063000Y-97155000D03*
%TO.N,SRF-05_IN*%
X127473000Y-96520000D03*
%TO.N,I2C_SDA*%
X127274589Y-115041411D03*
X131826000Y-107823000D03*
%TO.N,I2C_SCL*%
X128143000Y-115062000D03*
X132715000Y-107823000D03*
%TO.N,WS_LED_1*%
X123127433Y-93472000D03*
%TO.N,SWCLK*%
X136525000Y-101092000D03*
%TO.N,SWO*%
X134594767Y-97510767D03*
%TO.N,WS_LED_0*%
X122428000Y-93218000D03*
X106807000Y-96520000D03*
%TO.N,ENC_A_1*%
X124841000Y-100838000D03*
%TO.N,ENC_A_2*%
X124841000Y-100076000D03*
%TO.N,ENC_B_1*%
X133604000Y-96139000D03*
%TO.N,ENC_B_2*%
X133477000Y-95377000D03*
%TO.N,LATCH_POWERUP*%
X149902200Y-133842000D03*
%TO.N,BOOT0*%
X141097000Y-106426000D03*
X134472672Y-95138000D03*
%TO.N,Net-(SW1-B)*%
X141097000Y-112776000D03*
%TO.N,BATT_ADC_0*%
X105359200Y-116103400D03*
X121666000Y-97028000D03*
%TO.N,KEEP_ALIVE*%
X126111000Y-95250000D03*
X151142200Y-138190000D03*
X121666000Y-108458000D03*
%TO.N,Net-(U2-PC15)*%
X129794000Y-89570000D03*
X148590000Y-95250000D03*
%TO.N,EXT_USART_TX*%
X108423000Y-95850000D03*
X121716800Y-92964000D03*
%TO.N,EXT_USART_RX*%
X121017297Y-92710000D03*
X109728000Y-95250500D03*
%TO.N,NRF_SCK*%
X135607819Y-98147319D03*
X135636000Y-99824500D03*
%TO.N,MPU-6050_IRQ*%
X134874000Y-96266000D03*
X138633500Y-96266000D03*
%TO.N,EXT_PA4*%
X110998000Y-94650500D03*
X117094000Y-94650500D03*
%TD*%
D73*
%TO.N,+BATT*%
X107248400Y-117668600D02*
X107886000Y-117031000D01*
X110748200Y-138385200D02*
X110807000Y-138444000D01*
X102041400Y-117668600D02*
X107248400Y-117668600D01*
X107886000Y-117031000D02*
X107886000Y-116078000D01*
X158188200Y-135825500D02*
X158188200Y-138063000D01*
X110748200Y-137047000D02*
X110748200Y-138385200D01*
X101092000Y-118618000D02*
X102041400Y-117668600D01*
X101092000Y-133096000D02*
X101092000Y-118618000D01*
D74*
%TO.N,GND*%
X156885200Y-93000000D02*
X156870400Y-93014800D01*
D75*
X119735600Y-87084200D02*
X119735600Y-85370000D01*
X140690600Y-90680400D02*
X140706000Y-90665000D01*
D73*
X146927000Y-97142000D02*
X146102000Y-97967000D01*
D75*
X133591000Y-104902000D02*
X133591000Y-103124000D01*
X134366000Y-93980000D02*
X134366000Y-93739000D01*
X148488500Y-128117500D02*
X147941000Y-128665000D01*
D73*
X124250000Y-91325000D02*
X124250000Y-89960000D01*
D74*
X150203000Y-110780000D02*
X151470800Y-110780000D01*
D75*
X139192000Y-97650000D02*
X139192000Y-96901000D01*
X130556000Y-85407800D02*
X131559000Y-85407800D01*
X146304000Y-92215000D02*
X145374800Y-92215000D01*
D73*
X145645000Y-98818000D02*
X144952000Y-98818000D01*
D75*
X139700000Y-90665000D02*
X138824000Y-90665000D01*
D73*
X123571000Y-85959250D02*
X123571000Y-87358000D01*
D75*
X133591000Y-102591497D02*
X133591000Y-103124000D01*
D74*
X156885200Y-101890000D02*
X156870400Y-101904800D01*
D73*
X128524000Y-86373200D02*
X128524000Y-85738200D01*
D75*
X117906800Y-87071200D02*
X119722600Y-87071200D01*
X139192000Y-96901000D02*
X139446000Y-96647000D01*
X120700800Y-87084200D02*
X119735600Y-87084200D01*
X140258800Y-95961200D02*
X140462000Y-95758000D01*
X119735600Y-85370000D02*
X120678807Y-85370000D01*
D76*
X144480375Y-84033125D02*
X144940883Y-84033125D01*
D75*
X147930000Y-100444000D02*
X147943000Y-100457000D01*
D76*
X145313233Y-83660775D02*
X145313233Y-83337233D01*
D75*
X136652000Y-107380000D02*
X136652000Y-108824500D01*
D74*
X150203000Y-101890000D02*
X151470800Y-101890000D01*
D76*
X146229000Y-92290000D02*
X146304000Y-92215000D01*
D73*
X141167000Y-97618000D02*
X141052000Y-97618000D01*
D76*
X144145000Y-80645000D02*
X144405008Y-80645000D01*
D73*
X120325000Y-100250000D02*
X118144600Y-100250000D01*
X128217800Y-85432000D02*
X127288000Y-85432000D01*
D77*
X104058600Y-125500000D02*
X104000000Y-125441400D01*
D75*
X139700000Y-80625008D02*
X139680008Y-80645000D01*
D74*
X158153000Y-93000000D02*
X156885200Y-93000000D01*
D75*
X133591000Y-105397000D02*
X133591000Y-104902000D01*
X118859000Y-92189000D02*
X118872000Y-92202000D01*
X141827000Y-90665000D02*
X141902000Y-90590000D01*
X117909600Y-92189000D02*
X118859000Y-92189000D01*
D73*
X123571000Y-87358000D02*
X123465000Y-87464000D01*
D78*
X150889000Y-88138000D02*
X151892000Y-88138000D01*
D73*
X141167000Y-97618000D02*
X141752000Y-97618000D01*
D78*
X150889000Y-86614000D02*
X151892000Y-86614000D01*
D73*
X128524000Y-85738200D02*
X128217800Y-85432000D01*
D75*
X130556000Y-85407800D02*
X130556000Y-87109000D01*
D74*
X151470800Y-101890000D02*
X151485600Y-101904800D01*
D75*
X134874000Y-94488000D02*
X134366000Y-93980000D01*
D73*
X141752000Y-102255000D02*
X141859000Y-102362000D01*
X134355000Y-93750000D02*
X134366000Y-93739000D01*
D74*
X123977200Y-126278000D02*
X123724200Y-126531000D01*
D75*
X145374800Y-92215000D02*
X145364200Y-92204400D01*
X139700000Y-90665000D02*
X140675200Y-90665000D01*
D73*
X144952000Y-99818000D02*
X146301000Y-99818000D01*
D75*
X120678807Y-85370000D02*
X120691467Y-85357340D01*
D73*
X118144600Y-100250000D02*
X117906800Y-100012200D01*
D75*
X140675200Y-90665000D02*
X140690600Y-90680400D01*
X134366000Y-106172000D02*
X133591000Y-105397000D01*
X139700000Y-79603600D02*
X139700000Y-80625008D01*
X117906800Y-87071200D02*
X117906800Y-86319500D01*
D73*
X141752000Y-101518000D02*
X141752000Y-102255000D01*
X141052000Y-97618000D02*
X140589000Y-97155000D01*
X128524000Y-87222400D02*
X128765600Y-87464000D01*
D75*
X146195408Y-77934192D02*
X146202400Y-77927200D01*
D74*
X151470800Y-110780000D02*
X151485600Y-110794800D01*
D75*
X134328497Y-101854000D02*
X133591000Y-102591497D01*
X132461000Y-88760000D02*
X132461000Y-87757000D01*
D74*
X156885200Y-110780000D02*
X156870400Y-110794800D01*
D75*
X140505534Y-88930474D02*
X140571526Y-88930474D01*
D73*
X123825000Y-84214200D02*
X124307200Y-83732000D01*
D75*
X116598200Y-127255000D02*
X116598200Y-126123200D01*
X145364200Y-92204400D02*
X145353600Y-92215000D01*
D73*
X131675000Y-93750000D02*
X134355000Y-93750000D01*
D75*
X117094000Y-100457000D02*
X117538800Y-100012200D01*
X130302000Y-106439000D02*
X131051000Y-106439000D01*
X117538800Y-100012200D02*
X117906800Y-100012200D01*
D74*
X158153000Y-101890000D02*
X156885200Y-101890000D01*
D76*
X144399000Y-80645000D02*
X143510000Y-81534000D01*
D73*
X141494000Y-82644500D02*
X141494000Y-82458992D01*
D75*
X140462000Y-95758000D02*
X141199000Y-95758000D01*
D76*
X142994000Y-82644500D02*
X142994000Y-82183992D01*
D75*
X102807000Y-116649000D02*
X102768400Y-116687600D01*
X131051000Y-106439000D02*
X131064000Y-106426000D01*
D73*
X123825000Y-85705250D02*
X123571000Y-85959250D01*
D75*
X131559000Y-85407800D02*
X131572000Y-85394800D01*
X111607500Y-126085700D02*
X111607500Y-127254000D01*
D78*
X153924000Y-82029000D02*
X153924000Y-81026000D01*
D75*
X102807000Y-116078000D02*
X102807000Y-117030000D01*
D76*
X144940883Y-84033125D02*
X145313233Y-83660775D01*
D74*
X151475000Y-93000000D02*
X151485600Y-92989400D01*
D75*
X140571526Y-88930474D02*
X141237000Y-88265000D01*
D76*
X141352396Y-88265000D02*
X141237000Y-88265000D01*
D74*
X158153000Y-110780000D02*
X156885200Y-110780000D01*
D75*
X138824000Y-90665000D02*
X138811000Y-90678000D01*
D73*
X128765600Y-86614800D02*
X128524000Y-86373200D01*
D76*
X142994000Y-82050000D02*
X143510000Y-81534000D01*
D73*
X118872000Y-93173041D02*
X118872000Y-92202000D01*
D75*
X131559000Y-87109000D02*
X130556000Y-87109000D01*
D73*
X123825000Y-85705250D02*
X123825000Y-84214200D01*
D75*
X111607600Y-126085600D02*
X111607500Y-126085700D01*
D73*
X120325000Y-93750000D02*
X119448959Y-93750000D01*
X124250000Y-89960000D02*
X124206000Y-89916000D01*
X119448959Y-93750000D02*
X118872000Y-93173041D01*
D75*
X147941000Y-128665000D02*
X143395200Y-128665000D01*
X119722600Y-87071200D02*
X119735600Y-87084200D01*
X146195408Y-79006400D02*
X146195408Y-77934192D01*
D73*
X128765600Y-87464000D02*
X128765600Y-86614800D01*
D76*
X144431500Y-84082000D02*
X144480375Y-84033125D01*
D73*
X146301000Y-99818000D02*
X146927000Y-100444000D01*
D76*
X142494000Y-86519500D02*
X142494000Y-87123396D01*
D75*
X146927000Y-100444000D02*
X147930000Y-100444000D01*
D76*
X142494000Y-87123396D02*
X141352396Y-88265000D01*
D73*
X124307200Y-83732000D02*
X125088000Y-83732000D01*
D75*
X144177000Y-92215000D02*
X144102000Y-92290000D01*
D73*
X141494000Y-82458992D02*
X139680008Y-80645000D01*
D76*
X144405008Y-80645000D02*
X144399000Y-80645000D01*
D73*
X129250000Y-105387000D02*
X130302000Y-106439000D01*
D76*
X142994000Y-82183992D02*
X142994000Y-82050000D01*
D73*
X129250000Y-102675000D02*
X129250000Y-105387000D01*
D75*
X140706000Y-90665000D02*
X141827000Y-90665000D01*
X116598200Y-126123200D02*
X116586000Y-126111000D01*
X144102000Y-92290000D02*
X144102000Y-93279000D01*
X148488500Y-127254000D02*
X148488500Y-128117500D01*
X145353600Y-92215000D02*
X144177000Y-92215000D01*
D74*
X150203000Y-93000000D02*
X151475000Y-93000000D01*
D73*
X146102000Y-97967000D02*
X146102000Y-98361000D01*
D75*
X146927000Y-97142000D02*
X146927000Y-96139000D01*
D73*
X146102000Y-98361000D02*
X145645000Y-98818000D01*
D75*
%TO.N,+3.3V*%
X117909600Y-93739000D02*
X116912500Y-93739000D01*
X116912500Y-93739000D02*
X116899500Y-93726000D01*
X136906000Y-104838000D02*
X136906000Y-105664000D01*
D73*
X131675000Y-93250000D02*
X133305000Y-93250000D01*
X117906800Y-83807500D02*
X119723100Y-83807500D01*
D76*
X145796000Y-81788000D02*
X144431500Y-83152500D01*
D75*
X117094000Y-101156500D02*
X117499700Y-101562200D01*
D73*
X130556000Y-89656529D02*
X130556000Y-88659000D01*
D75*
X130302000Y-104889000D02*
X131051000Y-104889000D01*
D76*
X141516000Y-87465000D02*
X141994000Y-86987000D01*
D73*
X119723100Y-83807500D02*
X119735600Y-83820000D01*
X129750000Y-91325000D02*
X129750000Y-90462529D01*
X120325000Y-100750000D02*
X119468000Y-100750000D01*
D75*
X129273000Y-88659000D02*
X129133600Y-88798400D01*
D73*
X129750000Y-102675000D02*
X129750000Y-104337000D01*
D76*
X139687000Y-88265000D02*
X140487000Y-87465000D01*
D75*
X143574000Y-127254000D02*
X140206200Y-127254000D01*
X146558000Y-80918992D02*
X146558000Y-81788000D01*
D76*
X145796000Y-80955808D02*
X145796000Y-81788000D01*
X146195408Y-80556400D02*
X145796000Y-80955808D01*
D75*
X131534200Y-83857800D02*
X131572000Y-83820000D01*
D73*
X118655800Y-101562200D02*
X117906800Y-101562200D01*
X144252000Y-96258000D02*
X143752000Y-95758000D01*
D75*
X131051000Y-104889000D02*
X131064000Y-104902000D01*
D73*
X117909600Y-93739000D02*
X118420600Y-94250000D01*
D75*
X135141000Y-101867000D02*
X135128000Y-101854000D01*
X135141000Y-103124000D02*
X135141000Y-101867000D01*
D73*
X118420600Y-94250000D02*
X120325000Y-94250000D01*
D76*
X142494000Y-81913604D02*
X142748000Y-81659604D01*
D73*
X133305000Y-93250000D02*
X134366000Y-92189000D01*
X146927000Y-101994000D02*
X146102000Y-101169000D01*
D75*
X130556000Y-88659000D02*
X129273000Y-88659000D01*
X134366000Y-92189000D02*
X134366000Y-91313000D01*
D76*
X142494000Y-82644500D02*
X142494000Y-81913604D01*
D75*
X142749000Y-95249000D02*
X143256000Y-94742000D01*
X117964000Y-93739000D02*
X117951000Y-93726000D01*
D73*
X143752000Y-95758000D02*
X142749000Y-95758000D01*
D75*
X134366000Y-88710000D02*
X134366000Y-87757000D01*
D73*
X144252000Y-97618000D02*
X144252000Y-96258000D01*
D76*
X141994000Y-86987000D02*
X141994000Y-86519500D01*
D75*
X149734000Y-108585000D02*
X148654000Y-108585000D01*
D76*
X144431500Y-83152500D02*
X144431500Y-83582000D01*
D75*
X117499700Y-101562200D02*
X117906800Y-101562200D01*
D73*
X129750000Y-90462529D02*
X130556000Y-89656529D01*
X145657000Y-100318000D02*
X144952000Y-100318000D01*
D75*
X135382000Y-107380000D02*
X135382000Y-105143000D01*
X146927000Y-101994000D02*
X146927000Y-103124000D01*
X142749000Y-95758000D02*
X142749000Y-95249000D01*
X146195408Y-80556400D02*
X146558000Y-80918992D01*
X140206200Y-127254000D02*
X139839200Y-126887000D01*
X135141000Y-103124000D02*
X135141000Y-104902000D01*
X138684000Y-88265000D02*
X139687000Y-88265000D01*
D73*
X129750000Y-104337000D02*
X130302000Y-104889000D01*
D75*
X119735600Y-83820000D02*
X120663000Y-83820000D01*
D76*
X142748000Y-81659604D02*
X142748000Y-80752008D01*
X142748000Y-80752008D02*
X142855008Y-80645000D01*
X140487000Y-87465000D02*
X141516000Y-87465000D01*
D73*
X119468000Y-100750000D02*
X118655800Y-101562200D01*
D75*
X130556000Y-83857800D02*
X131534200Y-83857800D01*
X120663000Y-83820000D02*
X120700800Y-83782200D01*
X140208000Y-104838000D02*
X140208000Y-105664000D01*
X135763000Y-80582000D02*
X135763000Y-79502000D01*
D73*
X146102000Y-101169000D02*
X146102000Y-100763000D01*
D75*
X135382000Y-105143000D02*
X135141000Y-104902000D01*
D73*
X146102000Y-100763000D02*
X145657000Y-100318000D01*
%TO.N,Net-(U2-PD0)*%
X126238000Y-84482000D02*
X126238000Y-86486400D01*
X127750000Y-87998400D02*
X127750000Y-91325000D01*
X127215600Y-87464000D02*
X127750000Y-87998400D01*
X126988000Y-83732000D02*
X126238000Y-84482000D01*
X127215600Y-87724850D02*
X127215600Y-87464000D01*
X127288000Y-83732000D02*
X126988000Y-83732000D01*
X126238000Y-86486400D02*
X127215600Y-87464000D01*
X127275000Y-87731000D02*
X127275000Y-87464000D01*
%TO.N,Net-(U2-PD1)*%
X125984000Y-88481400D02*
X126238000Y-88735400D01*
X127250000Y-90420000D02*
X127250000Y-91325000D01*
X125088000Y-87391000D02*
X125015000Y-87464000D01*
X125015000Y-87464000D02*
X125015000Y-87512400D01*
X126238000Y-89408000D02*
X127250000Y-90420000D01*
X126238000Y-88735400D02*
X126238000Y-89408000D01*
X125015000Y-87512400D02*
X125984000Y-88481400D01*
X125895300Y-88392700D02*
X125984000Y-88481400D01*
X125088000Y-85432000D02*
X125088000Y-87391000D01*
%TO.N,NRST*%
X131305000Y-90310000D02*
X130556000Y-91059000D01*
X148717000Y-102997000D02*
X147701000Y-104013000D01*
X150203000Y-97500000D02*
X150150000Y-97500000D01*
X147701000Y-104013000D02*
X144272000Y-104013000D01*
X127510480Y-93345000D02*
X129921000Y-93345000D01*
X126750000Y-91325000D02*
X126750000Y-92584520D01*
X144272000Y-104013000D02*
X143542000Y-104743000D01*
X130556000Y-92710000D02*
X129921000Y-93345000D01*
X132461000Y-90310000D02*
X131305000Y-90310000D01*
X132511000Y-90360000D02*
X132461000Y-90310000D01*
X130556000Y-91059000D02*
X130556000Y-92710000D01*
X148717000Y-98933000D02*
X148717000Y-102997000D01*
X126750000Y-92584520D02*
X127510480Y-93345000D01*
X134366000Y-90360000D02*
X132511000Y-90360000D01*
X143542000Y-104743000D02*
X143542000Y-105410000D01*
X150150000Y-97500000D02*
X148717000Y-98933000D01*
D75*
%TO.N,+3.3VA*%
X117411800Y-88621200D02*
X116890800Y-88100200D01*
X117906800Y-88621200D02*
X117411800Y-88621200D01*
X116890800Y-85941200D02*
X117449500Y-85382500D01*
D73*
X119735600Y-89509600D02*
X120142000Y-89916000D01*
X123217041Y-89916000D02*
X123750000Y-90448959D01*
D75*
X116890800Y-88100200D02*
X116890800Y-85941200D01*
D73*
X119735600Y-88634200D02*
X119735600Y-89509600D01*
D75*
X117906800Y-88621200D02*
X119722600Y-88621200D01*
X117449500Y-85382500D02*
X117906800Y-85382500D01*
X119722600Y-88621200D02*
X119735600Y-88634200D01*
D73*
X123750000Y-90448959D02*
X123750000Y-91325000D01*
X120142000Y-89916000D02*
X123217041Y-89916000D01*
%TO.N,5V_Conv*%
X124530100Y-135891800D02*
X125813300Y-134608600D01*
X127256000Y-134608600D02*
X127672600Y-134192000D01*
X125813300Y-134608600D02*
X127256000Y-134608600D01*
X123964200Y-135891800D02*
X124530100Y-135891800D01*
D74*
%TO.N,5V_Stab*%
X121424200Y-126531000D02*
X121424200Y-125109000D01*
X127647200Y-125363000D02*
X127647200Y-127128000D01*
X121424200Y-125109000D02*
X121932200Y-124601000D01*
X121932200Y-124601000D02*
X126885200Y-124601000D01*
X126885200Y-124601000D02*
X127647200Y-125363000D01*
D73*
%TO.N,Net-(IC1-SS)*%
X112661200Y-137047000D02*
X111748200Y-137047000D01*
%TO.N,Net-(C24-Pad1)*%
X115074200Y-132843000D02*
X115074200Y-132144800D01*
X115074200Y-132144800D02*
X114769400Y-131840000D01*
X114769400Y-131840000D02*
X113486200Y-131840000D01*
D78*
%TO.N,Net-(C31-Pad1)*%
X149377500Y-83566000D02*
X150863000Y-83566000D01*
%TO.N,Net-(C31-Pad2)*%
X152413000Y-83566000D02*
X153911000Y-83566000D01*
X154469000Y-83579000D02*
X155726000Y-84836000D01*
X153911000Y-83566000D02*
X153924000Y-83579000D01*
X153924000Y-83579000D02*
X154469000Y-83579000D01*
%TO.N,NRF_VDD_PA*%
X145439750Y-86639500D02*
X144431500Y-85631250D01*
X149313500Y-86639500D02*
X149339000Y-86614000D01*
X149339000Y-86614000D02*
X149339000Y-88138000D01*
X147828000Y-86639500D02*
X145439750Y-86639500D01*
X147828000Y-86639500D02*
X149313500Y-86639500D01*
D76*
%TO.N,NRF_XC2*%
X142927000Y-91365000D02*
X142927000Y-88380000D01*
X142875000Y-87630000D02*
X142875000Y-88455000D01*
X141827000Y-92215000D02*
X141902000Y-92290000D01*
X142994000Y-86519500D02*
X142994000Y-87495000D01*
X142927000Y-88380000D02*
X142812000Y-88265000D01*
X142994000Y-87495000D02*
X143002000Y-87503000D01*
X139700000Y-92215000D02*
X141827000Y-92215000D01*
X143002000Y-87503000D02*
X142875000Y-87630000D01*
X142002000Y-92290000D02*
X141902000Y-92290000D01*
X142927000Y-91365000D02*
X142002000Y-92290000D01*
%TO.N,NRF_XC1*%
X144399000Y-88328000D02*
X144462000Y-88265000D01*
X143494000Y-86519500D02*
X143494000Y-87297000D01*
X143637000Y-90125000D02*
X144102000Y-90590000D01*
X144102000Y-90590000D02*
X144018000Y-90506000D01*
X146304000Y-90665000D02*
X144177000Y-90665000D01*
X144177000Y-90665000D02*
X144102000Y-90590000D01*
X143494000Y-87297000D02*
X144462000Y-88265000D01*
X144462000Y-88265000D02*
X144462000Y-90230000D01*
X144462000Y-90230000D02*
X144102000Y-90590000D01*
D73*
%TO.N,Net-(D1-K)*%
X124701041Y-88900000D02*
X126250000Y-90448959D01*
X126250000Y-90448959D02*
X126250000Y-91313000D01*
X124612500Y-80619500D02*
X121920000Y-83312000D01*
X121920000Y-88138000D02*
X122682000Y-88900000D01*
X122682000Y-88900000D02*
X124701041Y-88900000D01*
X121920000Y-83312000D02*
X121920000Y-88138000D01*
X133858000Y-80619500D02*
X124612500Y-80619500D01*
%TO.N,Net-(D1-A)*%
X135763000Y-82232000D02*
X133895500Y-82232000D01*
X133895500Y-82232000D02*
X133858000Y-82194500D01*
D76*
%TO.N,Net-(U6-DVDD)*%
X141994000Y-81408992D02*
X141994000Y-82644500D01*
X141230008Y-80645000D02*
X141994000Y-81408992D01*
D73*
%TO.N,V_USB*%
X145741000Y-142253000D02*
X145741000Y-141423000D01*
X145753200Y-142648000D02*
X145753200Y-141818000D01*
D77*
X133616200Y-138317000D02*
X133616200Y-137300000D01*
D73*
X145741000Y-141423000D02*
X145288000Y-140970000D01*
D77*
X143778000Y-139714000D02*
X142887200Y-139714000D01*
D73*
X143395200Y-136920000D02*
X142887200Y-137428000D01*
D77*
X144399000Y-140335000D02*
X143778000Y-139714000D01*
D73*
X142887200Y-137428000D02*
X142887200Y-139714000D01*
X144157200Y-136920000D02*
X143395200Y-136920000D01*
D77*
X135013200Y-139714000D02*
X133616200Y-138317000D01*
X142887200Y-139714000D02*
X135013200Y-139714000D01*
D73*
X144665200Y-136412000D02*
X144157200Y-136920000D01*
%TO.N,Power_Btn*%
X127250000Y-99818000D02*
X126873000Y-99441000D01*
X127250000Y-108081000D02*
X127250000Y-102675000D01*
X147718200Y-132242500D02*
X147718200Y-135825500D01*
X147718200Y-135825500D02*
X147718200Y-138065000D01*
X126873000Y-99441000D02*
X125476000Y-99441000D01*
X127250000Y-102675000D02*
X127250000Y-99818000D01*
X126365000Y-108966000D02*
X127250000Y-108081000D01*
%TO.N,Net-(Q1-G)*%
X156413200Y-138827000D02*
X155909200Y-139331000D01*
X155909200Y-139331000D02*
X153367200Y-139331000D01*
X152935400Y-137186700D02*
X151970200Y-136221500D01*
X156415200Y-135952500D02*
X156415200Y-138186000D01*
X153367200Y-139331000D02*
X152935400Y-138899200D01*
D76*
X149618200Y-135825500D02*
X151970200Y-135825500D01*
D73*
X152935400Y-138899200D02*
X152935400Y-137186700D01*
X156413200Y-138188000D02*
X156413200Y-138827000D01*
D75*
%TO.N,Net-(D6-A)*%
X145224000Y-127254000D02*
X146913500Y-127254000D01*
%TO.N,Net-(D7-A)*%
X114935000Y-127191000D02*
X113245500Y-127191000D01*
X113245500Y-127191000D02*
X113182500Y-127254000D01*
D73*
%TO.N,Net-(IC1-COMP)*%
X111748200Y-134247000D02*
X111823000Y-134172200D01*
X111823000Y-134172200D02*
X111823000Y-131853200D01*
X111823000Y-131853200D02*
X111836200Y-131840000D01*
%TO.N,Net-(IC1-FB)*%
X110248200Y-131903000D02*
X110248200Y-132221000D01*
X108723200Y-131903000D02*
X108660200Y-131840000D01*
X110248200Y-132221000D02*
X111248200Y-133221000D01*
X110248200Y-131903000D02*
X108723200Y-131903000D01*
X111248200Y-133221000D02*
X111248200Y-134247000D01*
%TO.N,EN*%
X110332800Y-133211600D02*
X110045000Y-133211600D01*
X110748200Y-133627000D02*
X110332800Y-133211600D01*
X110748200Y-134247000D02*
X110748200Y-133627000D01*
%TO.N,Net-(IC1-FREQ)*%
X111248200Y-137047000D02*
X111248200Y-137716800D01*
X111248200Y-137716800D02*
X111442000Y-137910600D01*
D77*
%TO.N,A1*%
X105969963Y-119431963D02*
X104104037Y-119431963D01*
D73*
X129298000Y-120511000D02*
X129298000Y-119160000D01*
D77*
X127939800Y-121666000D02*
X108204000Y-121666000D01*
X108204000Y-121666000D02*
X105969963Y-119431963D01*
%TO.N,A2*%
X128346200Y-122936000D02*
X108204000Y-122936000D01*
X105859037Y-126931963D02*
X104104037Y-126931963D01*
X106426000Y-124714000D02*
X106426000Y-126365000D01*
D73*
X129798000Y-121484200D02*
X129798000Y-119160000D01*
D77*
X108204000Y-122936000D02*
X106426000Y-124714000D01*
D73*
X128346200Y-122936000D02*
X129798000Y-121484200D01*
D77*
X106426000Y-126365000D02*
X105859037Y-126931963D01*
%TO.N,B1*%
X153682700Y-124714000D02*
X153682700Y-126365000D01*
X151904700Y-122936000D02*
X153682700Y-124714000D01*
X131762500Y-122936000D02*
X151904700Y-122936000D01*
X154249663Y-126931963D02*
X156004663Y-126931963D01*
X153682700Y-126365000D02*
X154249663Y-126931963D01*
D73*
X130298000Y-121471500D02*
X131762500Y-122936000D01*
X130298000Y-119160000D02*
X130298000Y-121471500D01*
D77*
%TO.N,B2*%
X132168900Y-121666000D02*
X151904700Y-121666000D01*
D73*
X130798000Y-119160000D02*
X130798000Y-120485600D01*
D77*
X154138737Y-119431963D02*
X156004663Y-119431963D01*
D73*
X130798000Y-120485600D02*
X130810000Y-120497600D01*
D77*
X151904700Y-121666000D02*
X154138737Y-119431963D01*
D73*
%TO.N,DRV_BIN2{slash}BENBL*%
X131298000Y-117060000D02*
X131298000Y-112531682D01*
X131298000Y-112531682D02*
X129899319Y-111133000D01*
X125750000Y-109240000D02*
X125750000Y-102675000D01*
X129899319Y-111133000D02*
X127643000Y-111133000D01*
X127643000Y-111133000D02*
X125750000Y-109240000D01*
%TO.N,DRV_BIN1{slash}BPHASE*%
X130798000Y-117060000D02*
X130798000Y-112738788D01*
X129692212Y-111633000D02*
X127381000Y-111633000D01*
X127381000Y-111633000D02*
X125250000Y-109502000D01*
X125250000Y-109502000D02*
X125250000Y-102675000D01*
X130798000Y-112738788D02*
X129692212Y-111633000D01*
%TO.N,DRV_AIN2{slash}AENBL*%
X129493106Y-112141000D02*
X130298000Y-112945894D01*
X124750000Y-109764000D02*
X124750000Y-102675000D01*
X129032000Y-112133000D02*
X127119000Y-112133000D01*
X130298000Y-112945894D02*
X130298000Y-117060000D01*
X127119000Y-112133000D02*
X124750000Y-109764000D01*
X129040000Y-112141000D02*
X129493106Y-112141000D01*
%TO.N,DRV_AIN1{slash}APHASE*%
X129286000Y-112641000D02*
X129798000Y-113153000D01*
X124250000Y-102616000D02*
X124250000Y-110026000D01*
X129798000Y-113153000D02*
X129798000Y-117060000D01*
X126865000Y-112641000D02*
X129286000Y-112641000D01*
X124250000Y-110026000D02*
X126865000Y-112641000D01*
%TO.N,DRV_MODE*%
X129159000Y-113411000D02*
X129298000Y-113550000D01*
X129298000Y-113550000D02*
X129298000Y-117060000D01*
X129159000Y-90170000D02*
X129250000Y-90261000D01*
X129250000Y-90261000D02*
X129250000Y-91325000D01*
%TO.N,DRV_NSLEEP*%
X128333500Y-92745500D02*
X128750000Y-92329000D01*
X128346200Y-113411000D02*
X128346200Y-113868200D01*
X128798000Y-114320000D02*
X128798000Y-117060000D01*
X128346200Y-113868200D02*
X128798000Y-114320000D01*
X128750000Y-92329000D02*
X128750000Y-91325000D01*
%TO.N,SRF-05_TRIG*%
X123571000Y-96266000D02*
X123063000Y-96266000D01*
X121408148Y-99750000D02*
X123952000Y-97206148D01*
X120325000Y-99750000D02*
X121408148Y-99750000D01*
X123952000Y-96647000D02*
X123571000Y-96266000D01*
X123952000Y-97206148D02*
X123952000Y-96647000D01*
%TO.N,SRF-05_ECHO*%
X123063000Y-97388042D02*
X123063000Y-97155000D01*
X120325000Y-99250000D02*
X121201042Y-99250000D01*
X121201042Y-99250000D02*
X123063000Y-97388042D01*
%TO.N,SRF-05_IN*%
X127473000Y-96520000D02*
X127473000Y-96555000D01*
X122250000Y-101778000D02*
X122250000Y-102675000D01*
X127473000Y-96555000D02*
X122250000Y-101778000D01*
%TO.N,I2C_SDA*%
X139466000Y-100818000D02*
X141052000Y-100818000D01*
X139192000Y-103124000D02*
X139192000Y-101092000D01*
X129413000Y-94869000D02*
X129413000Y-100838000D01*
X103047800Y-111664000D02*
X106203000Y-111664000D01*
X139256000Y-103188000D02*
X139192000Y-103124000D01*
X138557000Y-110109000D02*
X139192000Y-109474000D01*
X131675000Y-94250000D02*
X130032000Y-94250000D01*
X106203000Y-111664000D02*
X109601000Y-115062000D01*
X140208000Y-103188000D02*
X139256000Y-103188000D01*
X139192000Y-109474000D02*
X139192000Y-107380000D01*
X109601000Y-115062000D02*
X112263000Y-115062000D01*
X115951000Y-112141000D02*
X114305000Y-113787000D01*
X124374178Y-112141000D02*
X115951000Y-112141000D01*
X129413000Y-100838000D02*
X131826000Y-103251000D01*
X134112000Y-110109000D02*
X138557000Y-110109000D01*
X139192000Y-107380000D02*
X139192000Y-103124000D01*
X127274589Y-115041411D02*
X124374178Y-112141000D01*
X131826000Y-103251000D02*
X131826000Y-107823000D01*
X130032000Y-94250000D02*
X129413000Y-94869000D01*
X114305000Y-113787000D02*
X113538000Y-113787000D01*
X112263000Y-115062000D02*
X113538000Y-113787000D01*
X139192000Y-101092000D02*
X139466000Y-100818000D01*
X131826000Y-107823000D02*
X134112000Y-110109000D01*
%TO.N,I2C_SCL*%
X114681000Y-112522000D02*
X112263000Y-112522000D01*
X130048000Y-100647500D02*
X131127501Y-101727000D01*
X105727000Y-109664000D02*
X109850000Y-113787000D01*
X137922000Y-108966000D02*
X137922000Y-107380000D01*
X132715000Y-107823000D02*
X134366000Y-109474000D01*
X131127501Y-101727000D02*
X131136106Y-101727000D01*
X137922000Y-103124000D02*
X137922000Y-100838000D01*
X136906000Y-103188000D02*
X137858000Y-103188000D01*
X122413500Y-111506000D02*
X122174000Y-111506000D01*
X130048000Y-95123000D02*
X130048000Y-100647500D01*
X137858000Y-103188000D02*
X137922000Y-103124000D01*
X131136106Y-101727000D02*
X132461000Y-103051894D01*
X138442000Y-100318000D02*
X141052000Y-100318000D01*
X137922000Y-100838000D02*
X138442000Y-100318000D01*
X137414000Y-109474000D02*
X137922000Y-108966000D01*
X112263000Y-112522000D02*
X110998000Y-113787000D01*
X134366000Y-109474000D02*
X137414000Y-109474000D01*
X132461000Y-107569000D02*
X132715000Y-107823000D01*
X137922000Y-107380000D02*
X137922000Y-103124000D01*
X130421000Y-94750000D02*
X130048000Y-95123000D01*
X124587000Y-111506000D02*
X122174000Y-111506000D01*
X128143000Y-115062000D02*
X124587000Y-111506000D01*
X131675000Y-94750000D02*
X130421000Y-94750000D01*
X132461000Y-103051894D02*
X132461000Y-107569000D01*
X115697000Y-111506000D02*
X114681000Y-112522000D01*
X122174000Y-111506000D02*
X115697000Y-111506000D01*
X103047800Y-109664000D02*
X105727000Y-109664000D01*
X109850000Y-113787000D02*
X110998000Y-113787000D01*
%TO.N,WS_LED_1*%
X123250000Y-93349433D02*
X123250000Y-91325000D01*
X123127433Y-93472000D02*
X123250000Y-93349433D01*
D79*
%TO.N,USB_CONN_D-*%
X146391000Y-142380000D02*
X146391000Y-141311000D01*
X146391000Y-141311000D02*
X143715200Y-138635200D01*
X143715200Y-138635200D02*
X143715200Y-138057500D01*
%TO.N,USB_CONN_D+*%
X145839874Y-138821526D02*
X145839875Y-138821526D01*
X145966091Y-139385755D02*
X145966091Y-139997091D01*
X146408363Y-140207999D02*
X146408362Y-140208000D01*
X146639724Y-140208000D02*
X146832625Y-140400901D01*
X146832626Y-140863627D02*
X147025528Y-141056528D01*
X145966091Y-139997091D02*
X146177000Y-140208000D01*
X146064549Y-139046200D02*
X146064549Y-139196852D01*
X145615200Y-138057500D02*
X145615200Y-138596852D01*
X146832625Y-140632263D02*
X146832626Y-140632265D01*
X147041000Y-141072000D02*
X147041000Y-142380000D01*
X147025528Y-141056528D02*
X147041000Y-141072000D01*
X145615274Y-138596852D02*
G75*
G03*
X145839874Y-138821526I224626J-48D01*
G01*
X146064574Y-139046200D02*
G75*
G03*
X145839875Y-138821526I-224674J0D01*
G01*
X146177019Y-140207981D02*
G75*
G03*
X146408363Y-140207999I115681J115681D01*
G01*
X146639723Y-140208001D02*
G75*
G03*
X146408363Y-140208001I-115680J-115679D01*
G01*
X146832643Y-140632281D02*
G75*
G03*
X146832625Y-140400901I-115743J115681D01*
G01*
X145966119Y-139385794D02*
G75*
G03*
X146064548Y-139196852I-137219J191594D01*
G01*
X146832580Y-140632219D02*
G75*
G03*
X146832626Y-140863627I115720J-115681D01*
G01*
D73*
%TO.N,Net-(U8-REGOUT)*%
X146927000Y-98692000D02*
X146301000Y-99318000D01*
X146301000Y-99318000D02*
X144952000Y-99318000D01*
%TO.N,Net-(U8-CPOUT)*%
X140525959Y-98818000D02*
X141052000Y-98818000D01*
X139192000Y-99200000D02*
X139459000Y-98933000D01*
X139459000Y-98933000D02*
X140410959Y-98933000D01*
X140410959Y-98933000D02*
X140525959Y-98818000D01*
%TO.N,QTR_CTRL*%
X115117500Y-78494000D02*
X112014000Y-81597500D01*
X112014000Y-96012000D02*
X114752000Y-98750000D01*
X114752000Y-98750000D02*
X120325000Y-98750000D01*
X119126000Y-77206500D02*
X117838500Y-78494000D01*
X117838500Y-78494000D02*
X115117500Y-78494000D01*
X112014000Y-81597500D02*
X112014000Y-96012000D01*
%TO.N,QTR_0*%
X126746000Y-77597000D02*
X122047000Y-82296000D01*
X117054000Y-95750000D02*
X120325000Y-95750000D01*
X122047000Y-82296000D02*
X116586000Y-82296000D01*
X126746000Y-77206500D02*
X126746000Y-77597000D01*
X115824000Y-94520000D02*
X117054000Y-95750000D01*
X115824000Y-83058000D02*
X115824000Y-94520000D01*
X116586000Y-82296000D02*
X115824000Y-83058000D01*
%TO.N,QTR_1*%
X125476000Y-75936500D02*
X125476000Y-77851000D01*
X116697000Y-96250000D02*
X120325000Y-96250000D01*
X115189000Y-82804000D02*
X115189000Y-94742000D01*
X126746000Y-74666500D02*
X125476000Y-75936500D01*
X125476000Y-77851000D02*
X121666000Y-81661000D01*
X116332000Y-81661000D02*
X115189000Y-82804000D01*
X115189000Y-94742000D02*
X116697000Y-96250000D01*
X121666000Y-81661000D02*
X116332000Y-81661000D01*
%TO.N,QTR_2*%
X120325000Y-96750000D02*
X120396000Y-96750000D01*
X120325000Y-96750000D02*
X116308000Y-96750000D01*
X114554000Y-94996000D02*
X114554000Y-82550000D01*
X121412000Y-81026000D02*
X124206000Y-78232000D01*
X116078000Y-81026000D02*
X121412000Y-81026000D01*
X114554000Y-82550000D02*
X116078000Y-81026000D01*
X116308000Y-96750000D02*
X114554000Y-94996000D01*
X124206000Y-78232000D02*
X124206000Y-77206500D01*
%TO.N,QTR_3*%
X122936000Y-78486000D02*
X121031000Y-80391000D01*
X122936000Y-75936500D02*
X122936000Y-78486000D01*
X113919000Y-95250000D02*
X115919000Y-97250000D01*
X113919000Y-82296000D02*
X113919000Y-95250000D01*
X115919000Y-97250000D02*
X120396000Y-97250000D01*
X121031000Y-80391000D02*
X115824000Y-80391000D01*
X124206000Y-74666500D02*
X122936000Y-75936500D01*
X115824000Y-80391000D02*
X113919000Y-82296000D01*
%TO.N,QTR_4*%
X113284000Y-95504000D02*
X115530000Y-97750000D01*
X121666000Y-77206500D02*
X121666000Y-78801125D01*
X121666000Y-78801125D02*
X120711125Y-79756000D01*
X115530000Y-97750000D02*
X120325000Y-97750000D01*
X113284000Y-82042000D02*
X113284000Y-95504000D01*
X115570000Y-79756000D02*
X113284000Y-82042000D01*
X120711125Y-79756000D02*
X115570000Y-79756000D01*
%TO.N,QTR_5*%
X119380000Y-79121000D02*
X115316000Y-79121000D01*
X115316000Y-79121000D02*
X112649000Y-81788000D01*
X112649000Y-95758000D02*
X115141000Y-98250000D01*
X120396000Y-78105000D02*
X119380000Y-79121000D01*
X121294500Y-74666500D02*
X120396000Y-75565000D01*
X121666000Y-74666500D02*
X121294500Y-74666500D01*
X120396000Y-75565000D02*
X120396000Y-78105000D01*
X115141000Y-98250000D02*
X120325000Y-98250000D01*
X112649000Y-81788000D02*
X112649000Y-95758000D01*
%TO.N,Net-(D2-Pad3)*%
X157619200Y-130824000D02*
X159270200Y-129173000D01*
X159270200Y-116397200D02*
X158153000Y-115280000D01*
X159270200Y-129173000D02*
X159270200Y-116397200D01*
X149618200Y-130824000D02*
X157619200Y-130824000D01*
X148668200Y-131774000D02*
X149618200Y-130824000D01*
X148668200Y-133950500D02*
X148668200Y-131774000D01*
%TO.N,SWDIO*%
X143287000Y-113665000D02*
X140843000Y-113665000D01*
X143542000Y-113410000D02*
X143287000Y-113665000D01*
X128750000Y-107414000D02*
X128750000Y-102870000D01*
X133731000Y-110744000D02*
X131064000Y-108077000D01*
X129413000Y-108077000D02*
X128750000Y-107414000D01*
X131064000Y-108077000D02*
X129413000Y-108077000D01*
X140843000Y-113665000D02*
X140335000Y-113157000D01*
X140335000Y-113157000D02*
X140335000Y-111252000D01*
X139827000Y-110744000D02*
X133731000Y-110744000D01*
X140335000Y-111252000D02*
X139827000Y-110744000D01*
%TO.N,SWCLK*%
X133350000Y-101092000D02*
X136525000Y-101092000D01*
X133008000Y-100750000D02*
X133350000Y-101092000D01*
X131675000Y-100750000D02*
X133008000Y-100750000D01*
%TO.N,SWO*%
X134594767Y-97510767D02*
X134355534Y-97750000D01*
X134355534Y-97750000D02*
X131675000Y-97750000D01*
%TO.N,WS_LED_0*%
X105594000Y-84766000D02*
X106807000Y-85979000D01*
X103040000Y-84766000D02*
X105594000Y-84766000D01*
X122428000Y-93218000D02*
X122750000Y-92896000D01*
X106807000Y-85979000D02*
X106807000Y-96520000D01*
X122750000Y-92896000D02*
X122750000Y-91325000D01*
%TO.N,ENC_A_1*%
X125746761Y-100838000D02*
X126250000Y-101341239D01*
X124841000Y-100838000D02*
X125746761Y-100838000D01*
X126250000Y-101341239D02*
X126250000Y-102675000D01*
%TO.N,ENC_A_2*%
X126750000Y-100334000D02*
X126750000Y-102675000D01*
X126492000Y-100076000D02*
X126750000Y-100334000D01*
X124841000Y-100076000D02*
X126492000Y-100076000D01*
%TO.N,ENC_B_1*%
X131675000Y-96250000D02*
X133493000Y-96250000D01*
X133493000Y-96250000D02*
X133604000Y-96139000D01*
%TO.N,ENC_B_2*%
X133477000Y-95377000D02*
X133104000Y-95750000D01*
X133104000Y-95750000D02*
X131675000Y-95750000D01*
%TO.N,LATCH_POWERUP*%
X156603200Y-131586000D02*
X157238200Y-132221000D01*
X149902200Y-132191000D02*
X150507200Y-131586000D01*
X149902200Y-133842000D02*
X149902200Y-132191000D01*
X150507200Y-131586000D02*
X156603200Y-131586000D01*
X157238200Y-132221000D02*
X157238200Y-133950500D01*
D78*
%TO.N,NRF_ANT2*%
X146304000Y-83540500D02*
X147777000Y-83540500D01*
X145796000Y-84074000D02*
X145337250Y-84532750D01*
X146304000Y-83566000D02*
X145796000Y-84074000D01*
X146304000Y-83540500D02*
X146304000Y-83566000D01*
D76*
X145288000Y-84582000D02*
X145796000Y-84074000D01*
X144431500Y-84582000D02*
X145288000Y-84582000D01*
D78*
X145337250Y-84532750D02*
X145011438Y-84532750D01*
X147777000Y-83540500D02*
X147802500Y-83566000D01*
%TO.N,NRF_ANT1*%
X144431500Y-85082000D02*
X146270500Y-85082000D01*
X147777000Y-85115500D02*
X147828000Y-85064500D01*
X146270500Y-85082000D02*
X146304000Y-85115500D01*
X146304000Y-85115500D02*
X147777000Y-85115500D01*
D73*
%TO.N,Net-(Q2-B)*%
X153870200Y-135825500D02*
X153870200Y-138063000D01*
%TO.N,BOOT0*%
X134472672Y-95005911D02*
X134243761Y-94777000D01*
X141097000Y-107760000D02*
X141097000Y-106426000D01*
X131675000Y-95250000D02*
X132334000Y-95250000D01*
X134472672Y-95138000D02*
X134472672Y-95005911D01*
X133228471Y-94777000D02*
X132755471Y-95250000D01*
X134243761Y-94777000D02*
X133228471Y-94777000D01*
X132755471Y-95250000D02*
X131675000Y-95250000D01*
%TO.N,Net-(SW1-B)*%
X141097000Y-109410000D02*
X141097000Y-112776000D01*
D75*
%TO.N,BATT_ADC_0*%
X104457000Y-116078000D02*
X106236000Y-116078000D01*
D73*
X121666000Y-95714959D02*
X121201041Y-95250000D01*
X121666000Y-97028000D02*
X121666000Y-95714959D01*
X121201041Y-95250000D02*
X120325000Y-95250000D01*
D75*
%TO.N,unconnected-(J1-Shield-Pad6)*%
X144191000Y-143353000D02*
X144091000Y-143453000D01*
X144581000Y-145403000D02*
X144311000Y-145133000D01*
X148001000Y-145403000D02*
X146081000Y-145403000D01*
X149791000Y-142283000D02*
X149941000Y-142133000D01*
X144191000Y-142153000D02*
X144191000Y-143353000D01*
X148271000Y-145133000D02*
X148001000Y-145403000D01*
X146081000Y-145403000D02*
X144581000Y-145403000D01*
X149771000Y-145133000D02*
X148271000Y-145133000D01*
X149791000Y-144203000D02*
X149791000Y-142283000D01*
D73*
%TO.N,KEEP_ALIVE*%
X125750000Y-94889000D02*
X125750000Y-91325000D01*
X116332000Y-108458000D02*
X121666000Y-108458000D01*
X151144200Y-138188000D02*
X151142200Y-138190000D01*
X152095200Y-138188000D02*
X151144200Y-138188000D01*
X110998000Y-103627000D02*
X109601000Y-105024000D01*
X109601000Y-106680000D02*
X110363000Y-107442000D01*
X115316000Y-107442000D02*
X116332000Y-108458000D01*
X126111000Y-95250000D02*
X125750000Y-94889000D01*
X110363000Y-107442000D02*
X115316000Y-107442000D01*
X109601000Y-105024000D02*
X109601000Y-106680000D01*
%TO.N,Net-(U2-PC15)*%
X155003000Y-106454000D02*
X155067000Y-106390000D01*
X152806400Y-106390000D02*
X152146000Y-106390000D01*
X148590000Y-95250000D02*
X151257000Y-95250000D01*
X151384000Y-108585000D02*
X151384000Y-106454000D01*
X151257000Y-95250000D02*
X152806400Y-96799400D01*
X129794000Y-89570000D02*
X128910471Y-89570000D01*
D77*
X158153000Y-106390000D02*
X155067000Y-106390000D01*
X151384000Y-106390000D02*
X150203000Y-106390000D01*
D73*
X128250000Y-90230471D02*
X128250000Y-91325000D01*
X128910471Y-89570000D02*
X128250000Y-90230471D01*
D77*
X155067000Y-106390000D02*
X152146000Y-106390000D01*
D73*
X150114000Y-106301000D02*
X150203000Y-106390000D01*
D77*
X152146000Y-106390000D02*
X151384000Y-106390000D01*
D73*
X152806400Y-96799400D02*
X152806400Y-106390000D01*
%TO.N,Net-(U4-FB)*%
X124656600Y-138374400D02*
X125377500Y-138374400D01*
X124656600Y-138374400D02*
X123964200Y-139066800D01*
X123964200Y-137682000D02*
X124656600Y-138374400D01*
X125377500Y-138374400D02*
X125859000Y-138855900D01*
D76*
%TO.N,Net-(U6-IREF)*%
X145180008Y-79401000D02*
X145180008Y-81510809D01*
X144046317Y-82644500D02*
X143494000Y-82644500D01*
X145180008Y-81510809D02*
X144046317Y-82644500D01*
X144773008Y-78994000D02*
X145180008Y-79401000D01*
D73*
%TO.N,EXT_USART_TX*%
X108423000Y-95850000D02*
X108458000Y-95885000D01*
X108458000Y-95885000D02*
X108458000Y-99060000D01*
X110485000Y-101087000D02*
X110998000Y-101087000D01*
X108458000Y-99060000D02*
X110485000Y-101087000D01*
X122250000Y-92430800D02*
X122250000Y-91325000D01*
X121716800Y-92964000D02*
X122250000Y-92430800D01*
%TO.N,EXT_USART_RX*%
X112522000Y-99314000D02*
X113538000Y-100330000D01*
X110490000Y-99314000D02*
X112522000Y-99314000D01*
X121017297Y-92710000D02*
X121017297Y-92708097D01*
X120396000Y-92710000D02*
X120325000Y-92781000D01*
X121017297Y-92710000D02*
X120396000Y-92710000D01*
X120325000Y-92781000D02*
X120325000Y-93250000D01*
X109728000Y-95250500D02*
X109728000Y-98552000D01*
X109728000Y-98552000D02*
X110490000Y-99314000D01*
X113538000Y-100330000D02*
X113538000Y-101087000D01*
%TO.N,EXT_PC3*%
X110998000Y-106167000D02*
X112263000Y-104902000D01*
X117593394Y-104902000D02*
X124750000Y-97745394D01*
X112263000Y-104902000D02*
X117593394Y-104902000D01*
X124750000Y-97745394D02*
X124750000Y-91325000D01*
%TO.N,USB_D-*%
X157124290Y-129533000D02*
X157870145Y-128787145D01*
X157870145Y-128787145D02*
X158000200Y-128657090D01*
X132207000Y-115697000D02*
X132207000Y-110998000D01*
X145657945Y-129533000D02*
X157124290Y-129533000D01*
X128905000Y-110363000D02*
X127750000Y-109208000D01*
X127750000Y-109208000D02*
X127750000Y-102675000D01*
X132207000Y-110998000D02*
X131572000Y-110363000D01*
X157480000Y-117221000D02*
X133731000Y-117221000D01*
X144385800Y-133586055D02*
X144385800Y-130805145D01*
X131572000Y-110363000D02*
X128905000Y-110363000D01*
D79*
X143715200Y-135782500D02*
X143715200Y-135247604D01*
D73*
X157988000Y-128669290D02*
X157988000Y-117729000D01*
X144385800Y-130805145D02*
X145657945Y-129533000D01*
X143715200Y-135782500D02*
X143715200Y-134256655D01*
X157870145Y-128787145D02*
X157988000Y-128669290D01*
X157988000Y-117729000D02*
X157480000Y-117221000D01*
X143715200Y-134256655D02*
X144385800Y-133586055D01*
X133731000Y-117221000D02*
X132207000Y-115697000D01*
%TO.N,USB_D+*%
X132715000Y-115443000D02*
X132715000Y-110744000D01*
X128250000Y-108946000D02*
X128250000Y-102675000D01*
X157365200Y-130189000D02*
X158635200Y-128919000D01*
D79*
X145615200Y-135782500D02*
X145615200Y-135247604D01*
D73*
X144995400Y-131255800D02*
X146062200Y-130189000D01*
X145615200Y-134293000D02*
X144995400Y-133673200D01*
X132715000Y-110744000D02*
X131826000Y-109855000D01*
X144995400Y-133673200D02*
X144995400Y-131255800D01*
X146062200Y-130189000D02*
X157365200Y-130189000D01*
X145615200Y-135782500D02*
X145615200Y-134293000D01*
X133858000Y-116586000D02*
X132715000Y-115443000D01*
X129159000Y-109855000D02*
X128250000Y-108946000D01*
X158635200Y-117487200D02*
X157734000Y-116586000D01*
X131826000Y-109855000D02*
X129159000Y-109855000D01*
X158635200Y-128919000D02*
X158635200Y-117487200D01*
X157734000Y-116586000D02*
X133858000Y-116586000D01*
D76*
%TO.N,NRF_IRQ*%
X133179752Y-100250000D02*
X131675000Y-100250000D01*
X141002500Y-86519500D02*
X140589000Y-86106000D01*
X140589000Y-86106000D02*
X138811000Y-86106000D01*
X141494000Y-86519500D02*
X141002500Y-86519500D01*
X135947500Y-100399500D02*
X133329252Y-100399500D01*
X138811000Y-86106000D02*
X138059000Y-86858000D01*
X138059000Y-86858000D02*
X138059000Y-98288000D01*
X138059000Y-98288000D02*
X135947500Y-100399500D01*
X133329252Y-100399500D02*
X133179752Y-100250000D01*
%TO.N,NRF_SCK*%
X135636000Y-99824500D02*
X135561500Y-99750000D01*
X135561500Y-99750000D02*
X131675000Y-99750000D01*
X136525000Y-97230138D02*
X136525000Y-86106000D01*
X138049000Y-84582000D02*
X140556500Y-84582000D01*
X135607819Y-98147319D02*
X136525000Y-97230138D01*
X136525000Y-86106000D02*
X138049000Y-84582000D01*
%TO.N,NRF_MISO*%
X140556500Y-85582000D02*
X138509500Y-85582000D01*
X137541000Y-97790000D02*
X136081000Y-99250000D01*
X137541000Y-86550500D02*
X137541000Y-97790000D01*
X136081000Y-99250000D02*
X131675000Y-99250000D01*
X138509500Y-85582000D02*
X137541000Y-86550500D01*
%TO.N,NRF_MOSI*%
X140556500Y-85082000D02*
X138246802Y-85082000D01*
X137033000Y-97534604D02*
X135817604Y-98750000D01*
X135817604Y-98750000D02*
X131675000Y-98750000D01*
X138246802Y-85082000D02*
X137033000Y-86295802D01*
X137033000Y-86295802D02*
X137033000Y-97534604D01*
%TO.N,NRF_CSN*%
X140556500Y-84082000D02*
X137787000Y-84082000D01*
X134668000Y-98250000D02*
X131675000Y-98250000D01*
X136017000Y-85852000D02*
X136017000Y-96901000D01*
X137787000Y-84082000D02*
X136017000Y-85852000D01*
X136017000Y-96901000D02*
X134668000Y-98250000D01*
%TO.N,NRF_CE*%
X135509000Y-85598000D02*
X135509000Y-96520000D01*
X140556500Y-83582000D02*
X137525000Y-83582000D01*
X137525000Y-83582000D02*
X135509000Y-85598000D01*
X135128000Y-96901000D02*
X134391361Y-96901000D01*
X134391361Y-96901000D02*
X134042361Y-97250000D01*
X134042361Y-97250000D02*
X131675000Y-97250000D01*
X135509000Y-96520000D02*
X135128000Y-96901000D01*
D73*
%TO.N,MPU-6050_IRQ*%
X144257000Y-94092000D02*
X139207000Y-94092000D01*
X138633500Y-94665500D02*
X138633500Y-96266000D01*
X144952000Y-98318000D02*
X144952000Y-94787000D01*
X144952000Y-94787000D02*
X144257000Y-94092000D01*
X133870609Y-96750000D02*
X134354609Y-96266000D01*
X134354609Y-96266000D02*
X134874000Y-96266000D01*
X139207000Y-94092000D02*
X138633500Y-94665500D01*
X131675000Y-96750000D02*
X133870609Y-96750000D01*
%TO.N,EXT_PC2*%
X114295000Y-105410000D02*
X117856000Y-105410000D01*
X125250000Y-98016000D02*
X125250000Y-91325000D01*
X113538000Y-106167000D02*
X114295000Y-105410000D01*
X117856000Y-105410000D02*
X125250000Y-98016000D01*
%TO.N,EXT_PA4*%
X120325000Y-94750000D02*
X117193500Y-94750000D01*
X110998000Y-94650500D02*
X108422500Y-94650500D01*
X107569000Y-95504000D02*
X107569000Y-105918000D01*
X108422500Y-94650500D02*
X107569000Y-95504000D01*
D76*
X117193500Y-94750000D02*
X117094000Y-94650500D01*
D73*
X107569000Y-105918000D02*
X110358000Y-108707000D01*
D76*
X110358000Y-108707000D02*
X110998000Y-108707000D01*
D73*
%TO.N,EXT_SPI_SCK*%
X113538000Y-108707000D02*
X114051000Y-109220000D01*
X122301000Y-109220000D02*
X122750000Y-108771000D01*
X114051000Y-109220000D02*
X122301000Y-109220000D01*
X122750000Y-108771000D02*
X122750000Y-103124000D01*
%TO.N,EXT_SPI_MISO*%
X123250000Y-109414000D02*
X123250000Y-102675000D01*
X112263000Y-109982000D02*
X122682000Y-109982000D01*
X122682000Y-109982000D02*
X123250000Y-109414000D01*
X110998000Y-111247000D02*
X112263000Y-109982000D01*
%TO.N,EXT_SPI_MOSI*%
X123750000Y-109993500D02*
X123750000Y-103124000D01*
X113538000Y-111247000D02*
X114041000Y-110744000D01*
X114041000Y-110744000D02*
X122999500Y-110744000D01*
X122999500Y-110744000D02*
X123750000Y-109993500D01*
%TD*%
%TA.AperFunction,Conductor*%
%TO.N,5V_Stab*%
G36*
X121922841Y-125364527D02*
G01*
X122017407Y-125379504D01*
X122054302Y-125391491D01*
X122130817Y-125430477D01*
X122162202Y-125453281D01*
X122222918Y-125513997D01*
X122245722Y-125545383D01*
X122284707Y-125621895D01*
X122296695Y-125658792D01*
X122311673Y-125753358D01*
X122313200Y-125772756D01*
X122313200Y-127522000D01*
X122323832Y-127567188D01*
X122323833Y-127567191D01*
X123317748Y-131791329D01*
X123319186Y-131798345D01*
X123325296Y-131833243D01*
X123326947Y-131847469D01*
X123328993Y-131882846D01*
X123329200Y-131890005D01*
X123329200Y-133462244D01*
X123327673Y-133481642D01*
X123312695Y-133576207D01*
X123300707Y-133613104D01*
X123261722Y-133689616D01*
X123238918Y-133721002D01*
X123178202Y-133781718D01*
X123146816Y-133804522D01*
X123070304Y-133843507D01*
X123033407Y-133855495D01*
X122953625Y-133868131D01*
X122938840Y-133870473D01*
X122919444Y-133872000D01*
X119928956Y-133872000D01*
X119909559Y-133870473D01*
X119890458Y-133867447D01*
X119814992Y-133855495D01*
X119778095Y-133843507D01*
X119701583Y-133804522D01*
X119670197Y-133781718D01*
X119609481Y-133721002D01*
X119586677Y-133689616D01*
X119547692Y-133613104D01*
X119535704Y-133576206D01*
X119520727Y-133481641D01*
X119519200Y-133462244D01*
X119519200Y-131890005D01*
X119519407Y-131882849D01*
X119519795Y-131876120D01*
X119521453Y-131847458D01*
X119523100Y-131833264D01*
X119529219Y-131798313D01*
X119530645Y-131791356D01*
X120524567Y-127567191D01*
X120524567Y-127567188D01*
X120535200Y-127522000D01*
X120535200Y-125772756D01*
X120536725Y-125753370D01*
X120551705Y-125658784D01*
X120563690Y-125621898D01*
X120602679Y-125545379D01*
X120625478Y-125514000D01*
X120686200Y-125453278D01*
X120717579Y-125430479D01*
X120794098Y-125391490D01*
X120830984Y-125379505D01*
X120925570Y-125364525D01*
X120944956Y-125363000D01*
X121903444Y-125363000D01*
X121922841Y-125364527D01*
G37*
%TD.AperFunction*%
%TD*%
%TA.AperFunction,Conductor*%
%TO.N,GND*%
G36*
X126113841Y-125491527D02*
G01*
X126208407Y-125506504D01*
X126245302Y-125518491D01*
X126321817Y-125557477D01*
X126353202Y-125580281D01*
X126413918Y-125640997D01*
X126436722Y-125672383D01*
X126475707Y-125748895D01*
X126487695Y-125785792D01*
X126502673Y-125880358D01*
X126504200Y-125899756D01*
X126504200Y-130207998D01*
X126504200Y-133675578D01*
X126502880Y-133693620D01*
X126489917Y-133781765D01*
X126479530Y-133816319D01*
X126445630Y-133888696D01*
X126425736Y-133918795D01*
X126366321Y-133985182D01*
X126353311Y-133997739D01*
X126195365Y-134129361D01*
X126158200Y-134150694D01*
X126115987Y-134158100D01*
X125845562Y-134158100D01*
X125831679Y-134157320D01*
X125827226Y-134156818D01*
X125796264Y-134153329D01*
X125740084Y-134163958D01*
X125735519Y-134164734D01*
X125673061Y-134174149D01*
X125668134Y-134175770D01*
X125612264Y-134205299D01*
X125608125Y-134207389D01*
X125551249Y-134234779D01*
X125547008Y-134237788D01*
X125502346Y-134282449D01*
X125499009Y-134285663D01*
X125452694Y-134328637D01*
X125441268Y-134343526D01*
X124668493Y-135116301D01*
X124626556Y-135142000D01*
X123126000Y-135142000D01*
X123121530Y-135537475D01*
X123121529Y-135537482D01*
X123074878Y-139665080D01*
X123070306Y-140069600D01*
X121779800Y-140069600D01*
X121412000Y-140589000D01*
X121496772Y-140716000D01*
X118328977Y-140716000D01*
X118309160Y-140714406D01*
X118212618Y-140698776D01*
X118175011Y-140686272D01*
X118097278Y-140645656D01*
X118065539Y-140621926D01*
X117997569Y-140551592D01*
X117984950Y-140536241D01*
X117606446Y-139992141D01*
X117544097Y-139902514D01*
X116155487Y-137906388D01*
X116145902Y-137890083D01*
X116104944Y-137806363D01*
X116093714Y-137770334D01*
X116079846Y-137678176D01*
X116078467Y-137659313D01*
X116079806Y-137270578D01*
X116081189Y-136869200D01*
X117563400Y-136869200D01*
X117563400Y-134253000D01*
X123710200Y-134253000D01*
X123710200Y-131840000D01*
X123109034Y-128433393D01*
X122954753Y-127559132D01*
X122953935Y-127553826D01*
X122950431Y-127527227D01*
X122949489Y-127516473D01*
X122948318Y-127489672D01*
X122948200Y-127484261D01*
X122948200Y-125899756D01*
X122949725Y-125880370D01*
X122964705Y-125785784D01*
X122976690Y-125748898D01*
X123015679Y-125672379D01*
X123038478Y-125641000D01*
X123099200Y-125580278D01*
X123130579Y-125557479D01*
X123207098Y-125518490D01*
X123243984Y-125506505D01*
X123338570Y-125491525D01*
X123357956Y-125490000D01*
X126094444Y-125490000D01*
X126113841Y-125491527D01*
G37*
%TD.AperFunction*%
%TD*%
%TA.AperFunction,Conductor*%
%TO.N,GND*%
G36*
X143512841Y-128158527D02*
G01*
X143607407Y-128173504D01*
X143644302Y-128185491D01*
X143720817Y-128224477D01*
X143752202Y-128247281D01*
X143812918Y-128307997D01*
X143835722Y-128339383D01*
X143874707Y-128415895D01*
X143886695Y-128452792D01*
X143901673Y-128547358D01*
X143903200Y-128566756D01*
X143903200Y-131684244D01*
X143901673Y-131703642D01*
X143886695Y-131798207D01*
X143874707Y-131835104D01*
X143835722Y-131911616D01*
X143812918Y-131943002D01*
X143752202Y-132003718D01*
X143720816Y-132026522D01*
X143644304Y-132065507D01*
X143607407Y-132077495D01*
X143527625Y-132090131D01*
X143512840Y-132092473D01*
X143493444Y-132094000D01*
X140756956Y-132094000D01*
X140737559Y-132092473D01*
X140718458Y-132089447D01*
X140642992Y-132077495D01*
X140606095Y-132065507D01*
X140529583Y-132026522D01*
X140498197Y-132003718D01*
X140437481Y-131943002D01*
X140414677Y-131911616D01*
X140375692Y-131835104D01*
X140363704Y-131798206D01*
X140348727Y-131703641D01*
X140347200Y-131684244D01*
X140347200Y-130239896D01*
X140349581Y-130215713D01*
X140372837Y-130098796D01*
X140391348Y-130054108D01*
X140457577Y-129954989D01*
X140472990Y-129936209D01*
X140484043Y-129925157D01*
X140484043Y-129925156D01*
X140601200Y-129808000D01*
X140601200Y-128566756D01*
X140602725Y-128547370D01*
X140617705Y-128452784D01*
X140629690Y-128415898D01*
X140668679Y-128339379D01*
X140691478Y-128308000D01*
X140752200Y-128247278D01*
X140783579Y-128224479D01*
X140860098Y-128185490D01*
X140896984Y-128173505D01*
X140991570Y-128158525D01*
X141010956Y-128157000D01*
X143493444Y-128157000D01*
X143512841Y-128158527D01*
G37*
%TD.AperFunction*%
%TD*%
%TA.AperFunction,Conductor*%
%TO.N,B1*%
G36*
X130463875Y-121267942D02*
G01*
X130502571Y-121291846D01*
X132047275Y-122696122D01*
X132082560Y-122751998D01*
X132084132Y-122818064D01*
X132051544Y-122875555D01*
X131707894Y-123219205D01*
X131647937Y-123252385D01*
X131579513Y-123248654D01*
X131523518Y-123209152D01*
X130189605Y-121547611D01*
X130169325Y-121511128D01*
X130162300Y-121469983D01*
X130162300Y-121383600D01*
X130178913Y-121321600D01*
X130224300Y-121276213D01*
X130286300Y-121259600D01*
X130419161Y-121259600D01*
X130463875Y-121267942D01*
G37*
%TD.AperFunction*%
%TD*%
%TA.AperFunction,Conductor*%
%TO.N,GND*%
G36*
X139411971Y-111254381D02*
G01*
X139490618Y-111270024D01*
X139535308Y-111288535D01*
X139591626Y-111326166D01*
X139625833Y-111360373D01*
X139663462Y-111416688D01*
X139681976Y-111461387D01*
X139697617Y-111540020D01*
X139700000Y-111564211D01*
X139700000Y-113987789D01*
X139697617Y-114011980D01*
X139681976Y-114090612D01*
X139663462Y-114135311D01*
X139625836Y-114191623D01*
X139591623Y-114225836D01*
X139535311Y-114263462D01*
X139490612Y-114281976D01*
X139411980Y-114297617D01*
X139387789Y-114300000D01*
X135313211Y-114300000D01*
X135289020Y-114297617D01*
X135210387Y-114281976D01*
X135165689Y-114263462D01*
X135109373Y-114225833D01*
X135075166Y-114191626D01*
X135037535Y-114135308D01*
X135019024Y-114090618D01*
X135003381Y-114011971D01*
X135001000Y-113987789D01*
X135001000Y-111564211D01*
X135003381Y-111540028D01*
X135019025Y-111461379D01*
X135037534Y-111416693D01*
X135075168Y-111360370D01*
X135109370Y-111326168D01*
X135165693Y-111288534D01*
X135210379Y-111270025D01*
X135289028Y-111254381D01*
X135313211Y-111252000D01*
X139387789Y-111252000D01*
X139411971Y-111254381D01*
G37*
%TD.AperFunction*%
%TD*%
%TA.AperFunction,Conductor*%
%TO.N,GND*%
G36*
X158281600Y-85767013D02*
G01*
X158326987Y-85812400D01*
X158343600Y-85874400D01*
X158343600Y-87760000D01*
X158326987Y-87822000D01*
X158281600Y-87867387D01*
X158219600Y-87884000D01*
X156232400Y-87884000D01*
X156170400Y-87867387D01*
X156125013Y-87822000D01*
X156108400Y-87760000D01*
X156108400Y-85874400D01*
X156125013Y-85812400D01*
X156170400Y-85767013D01*
X156232400Y-85750400D01*
X158219600Y-85750400D01*
X158281600Y-85767013D01*
G37*
%TD.AperFunction*%
%TD*%
%TA.AperFunction,Conductor*%
%TO.N,GND*%
G36*
X124637407Y-113486193D02*
G01*
X124657419Y-113487933D01*
X124786683Y-113509833D01*
X124824567Y-113522810D01*
X124940103Y-113584761D01*
X124956980Y-113595657D01*
X126565856Y-114829863D01*
X126578063Y-114840567D01*
X126797081Y-115059585D01*
X126820284Y-115091761D01*
X126832138Y-115129619D01*
X126837891Y-115169637D01*
X126891707Y-115287475D01*
X126976539Y-115385377D01*
X126976540Y-115385378D01*
X126996993Y-115398522D01*
X127085520Y-115455416D01*
X127209816Y-115491911D01*
X127209817Y-115491911D01*
X127339360Y-115491911D01*
X127339361Y-115491911D01*
X127343669Y-115490645D01*
X127401338Y-115487725D01*
X127454074Y-115511235D01*
X128320806Y-116176125D01*
X128334887Y-116188746D01*
X128413064Y-116270393D01*
X128438569Y-116309943D01*
X128447500Y-116356150D01*
X128447500Y-117429749D01*
X128459132Y-117488230D01*
X128503447Y-117554552D01*
X128569769Y-117598867D01*
X128628251Y-117610500D01*
X128628252Y-117610500D01*
X128967748Y-117610500D01*
X128967749Y-117610500D01*
X128998481Y-117604386D01*
X129023808Y-117599349D01*
X129072190Y-117599349D01*
X129128250Y-117610500D01*
X129128252Y-117610500D01*
X129467748Y-117610500D01*
X129467749Y-117610500D01*
X129498481Y-117604386D01*
X129523808Y-117599349D01*
X129572190Y-117599349D01*
X129628250Y-117610500D01*
X129628252Y-117610500D01*
X129967748Y-117610500D01*
X129967749Y-117610500D01*
X129998481Y-117604386D01*
X130023808Y-117599349D01*
X130072190Y-117599349D01*
X130128250Y-117610500D01*
X130128252Y-117610500D01*
X130467748Y-117610500D01*
X130467749Y-117610500D01*
X130498481Y-117604386D01*
X130523808Y-117599349D01*
X130572190Y-117599349D01*
X130628250Y-117610500D01*
X130628252Y-117610500D01*
X130967748Y-117610500D01*
X130967749Y-117610500D01*
X130998481Y-117604386D01*
X131023808Y-117599349D01*
X131072190Y-117599349D01*
X131128250Y-117610500D01*
X131128252Y-117610500D01*
X131467748Y-117610500D01*
X131467749Y-117610500D01*
X131496989Y-117604683D01*
X131526231Y-117598867D01*
X131592552Y-117554552D01*
X131592552Y-117554551D01*
X131608378Y-117543977D01*
X131630814Y-117523642D01*
X131689268Y-117509000D01*
X131851274Y-117509000D01*
X131867459Y-117510061D01*
X131972623Y-117523906D01*
X132003891Y-117532284D01*
X132094318Y-117569740D01*
X132122351Y-117585925D01*
X132145387Y-117603601D01*
X132200002Y-117645509D01*
X132222891Y-117668398D01*
X132282474Y-117746048D01*
X132298659Y-117774081D01*
X132336115Y-117864508D01*
X132344493Y-117895775D01*
X132358339Y-118000940D01*
X132359400Y-118017126D01*
X132359400Y-119007474D01*
X132358339Y-119023660D01*
X132344493Y-119128824D01*
X132336115Y-119160091D01*
X132298659Y-119250518D01*
X132282474Y-119278551D01*
X132222891Y-119356201D01*
X132200001Y-119379091D01*
X132122351Y-119438674D01*
X132094318Y-119454859D01*
X132003891Y-119492315D01*
X131972624Y-119500693D01*
X131878798Y-119513046D01*
X131867458Y-119514539D01*
X131851274Y-119515600D01*
X131598757Y-119515600D01*
X131579359Y-119514073D01*
X131546795Y-119508915D01*
X131469711Y-119496706D01*
X131432816Y-119484718D01*
X131342700Y-119438802D01*
X131311313Y-119415998D01*
X131239801Y-119344486D01*
X131216997Y-119313099D01*
X131171081Y-119222983D01*
X131159093Y-119186086D01*
X131150027Y-119128844D01*
X131148500Y-119109447D01*
X131148500Y-118790251D01*
X131140200Y-118748525D01*
X131140200Y-118618000D01*
X131010484Y-118618000D01*
X130967749Y-118609500D01*
X130967748Y-118609500D01*
X130628252Y-118609500D01*
X130597498Y-118615617D01*
X130573309Y-118618000D01*
X130522691Y-118618000D01*
X130498501Y-118615617D01*
X130467748Y-118609500D01*
X130128252Y-118609500D01*
X130097498Y-118615617D01*
X130073309Y-118618000D01*
X130022691Y-118618000D01*
X129998501Y-118615617D01*
X129967748Y-118609500D01*
X129628252Y-118609500D01*
X129597498Y-118615617D01*
X129573309Y-118618000D01*
X129522691Y-118618000D01*
X129498501Y-118615617D01*
X129467748Y-118609500D01*
X129128252Y-118609500D01*
X129097498Y-118615617D01*
X129073309Y-118618000D01*
X129022697Y-118618000D01*
X128998508Y-118615618D01*
X128975932Y-118611127D01*
X128967748Y-118609500D01*
X128967747Y-118609500D01*
X128941472Y-118609500D01*
X128918996Y-118607446D01*
X128900233Y-118603987D01*
X128892883Y-118602400D01*
X128019332Y-118385811D01*
X128002035Y-118380146D01*
X127892034Y-118334931D01*
X127860834Y-118316359D01*
X127768635Y-118241210D01*
X127755416Y-118228713D01*
X127330200Y-117763000D01*
X127109660Y-117763000D01*
X122351926Y-117763000D01*
X122335741Y-117761939D01*
X122313417Y-117759000D01*
X122230575Y-117748093D01*
X122199308Y-117739715D01*
X122108881Y-117702259D01*
X122080848Y-117686074D01*
X122003198Y-117626491D01*
X121980308Y-117603601D01*
X121977045Y-117599349D01*
X121920725Y-117525951D01*
X121904540Y-117497918D01*
X121867084Y-117407491D01*
X121858706Y-117376223D01*
X121844861Y-117271059D01*
X121843800Y-117254874D01*
X121843800Y-113981395D01*
X121844868Y-113965153D01*
X121846765Y-113950788D01*
X121858813Y-113859607D01*
X121867247Y-113828247D01*
X121904970Y-113737539D01*
X121921260Y-113709448D01*
X121981243Y-113631656D01*
X122004279Y-113608752D01*
X122082404Y-113549213D01*
X122110592Y-113533079D01*
X122201508Y-113495870D01*
X122232913Y-113487613D01*
X122338548Y-113474263D01*
X122354777Y-113473289D01*
X124637407Y-113486193D01*
G37*
%TD.AperFunction*%
%TD*%
%TA.AperFunction,Conductor*%
%TO.N,+3.3V*%
G36*
X139956841Y-126380527D02*
G01*
X140051407Y-126395504D01*
X140088302Y-126407491D01*
X140164817Y-126446477D01*
X140196202Y-126469281D01*
X140256918Y-126529997D01*
X140279722Y-126561383D01*
X140318707Y-126637895D01*
X140330695Y-126674792D01*
X140345673Y-126769358D01*
X140347200Y-126788756D01*
X140347200Y-128277374D01*
X140339421Y-128316461D01*
X140340647Y-128316860D01*
X140327158Y-128358373D01*
X140315964Y-128405004D01*
X140300986Y-128499574D01*
X140298166Y-128523411D01*
X140296640Y-128542809D01*
X140295700Y-128566744D01*
X140295700Y-129281279D01*
X140290360Y-129317275D01*
X140274803Y-129350167D01*
X140236827Y-129407003D01*
X140236826Y-129407005D01*
X140221405Y-129425794D01*
X139829358Y-129817841D01*
X139829356Y-129817843D01*
X139712200Y-129935000D01*
X137934200Y-129935000D01*
X137424989Y-129425788D01*
X137409573Y-129407003D01*
X137371598Y-129350169D01*
X137356039Y-129317274D01*
X137350700Y-129281279D01*
X137350700Y-128566744D01*
X137349759Y-128542799D01*
X137348230Y-128523376D01*
X137345412Y-128499567D01*
X137330434Y-128405001D01*
X137319244Y-128358391D01*
X137319238Y-128358373D01*
X137305751Y-128316860D01*
X137306972Y-128316463D01*
X137299200Y-128277379D01*
X137299200Y-126788756D01*
X137300725Y-126769370D01*
X137315705Y-126674784D01*
X137327690Y-126637898D01*
X137366679Y-126561379D01*
X137389478Y-126530000D01*
X137450200Y-126469278D01*
X137481579Y-126446479D01*
X137558098Y-126407490D01*
X137594984Y-126395505D01*
X137689570Y-126380525D01*
X137708956Y-126379000D01*
X139937444Y-126379000D01*
X139956841Y-126380527D01*
G37*
%TD.AperFunction*%
%TD*%
%TA.AperFunction,Conductor*%
%TO.N,GND*%
G36*
X129314971Y-135068181D02*
G01*
X129393618Y-135083824D01*
X129438308Y-135102335D01*
X129494626Y-135139966D01*
X129528833Y-135174173D01*
X129566462Y-135230488D01*
X129584976Y-135275187D01*
X129600617Y-135353820D01*
X129603000Y-135378011D01*
X129603000Y-136716349D01*
X129583905Y-136782462D01*
X129532500Y-136828214D01*
X127496671Y-137801871D01*
X127477643Y-137811808D01*
X127462517Y-137820396D01*
X127444221Y-137831652D01*
X127372756Y-137879160D01*
X127338773Y-137905370D01*
X127312819Y-137928469D01*
X127282839Y-137959187D01*
X127233046Y-138017952D01*
X127217855Y-138038673D01*
X127139200Y-138063000D01*
X127139200Y-138187937D01*
X127121630Y-138241618D01*
X127110766Y-138292376D01*
X127104000Y-138356315D01*
X127104000Y-139331894D01*
X127098661Y-139367889D01*
X127083102Y-139400785D01*
X127065035Y-139427824D01*
X127030823Y-139462036D01*
X126974511Y-139499662D01*
X126929812Y-139518176D01*
X126851180Y-139533817D01*
X126826989Y-139536200D01*
X126791011Y-139536200D01*
X126766820Y-139533817D01*
X126688187Y-139518176D01*
X126643489Y-139499662D01*
X126587173Y-139462033D01*
X126552966Y-139427826D01*
X126515335Y-139371508D01*
X126496824Y-139326818D01*
X126481181Y-139248171D01*
X126478800Y-139223989D01*
X126478800Y-138251111D01*
X126478800Y-138063000D01*
X126264253Y-137959187D01*
X125083778Y-137387989D01*
X125064000Y-137376025D01*
X125002654Y-137330603D01*
X124971390Y-137296825D01*
X124937108Y-137242153D01*
X124920323Y-137199307D01*
X124906152Y-137124285D01*
X124904000Y-137101281D01*
X124904000Y-136064943D01*
X124913439Y-136017490D01*
X124940319Y-135977262D01*
X125351085Y-135566496D01*
X125815464Y-135102116D01*
X125855689Y-135075239D01*
X125903142Y-135065800D01*
X129290789Y-135065800D01*
X129314971Y-135068181D01*
G37*
%TD.AperFunction*%
%TD*%
%TA.AperFunction,Conductor*%
%TO.N,+BATT*%
G36*
X152415247Y-134652812D02*
G01*
X152460985Y-134703539D01*
X152481001Y-134744483D01*
X152563715Y-134827197D01*
X152563716Y-134827197D01*
X152563717Y-134827198D01*
X152668807Y-134878573D01*
X152696060Y-134882543D01*
X152736937Y-134888500D01*
X152736940Y-134888500D01*
X153103460Y-134888500D01*
X153103463Y-134888500D01*
X153137526Y-134883536D01*
X153171593Y-134878573D01*
X153276683Y-134827198D01*
X153359398Y-134744483D01*
X153359397Y-134744483D01*
X153379415Y-134703539D01*
X153425153Y-134652812D01*
X153490815Y-134634000D01*
X156667585Y-134634000D01*
X156733247Y-134652812D01*
X156778985Y-134703539D01*
X156799001Y-134744483D01*
X156881715Y-134827197D01*
X156881716Y-134827197D01*
X156881717Y-134827198D01*
X156986807Y-134878573D01*
X157014060Y-134882543D01*
X157054937Y-134888500D01*
X157054940Y-134888500D01*
X157421460Y-134888500D01*
X157421463Y-134888500D01*
X157455526Y-134883536D01*
X157489593Y-134878573D01*
X157594683Y-134827198D01*
X157677398Y-134744483D01*
X157677397Y-134744483D01*
X157697415Y-134703539D01*
X157743153Y-134652812D01*
X157808815Y-134634000D01*
X159575500Y-134634000D01*
X159637500Y-134650613D01*
X159682887Y-134696000D01*
X159699500Y-134758000D01*
X159699500Y-142996954D01*
X159699350Y-143003048D01*
X159681989Y-143355880D01*
X159680793Y-143368009D01*
X159629325Y-143714431D01*
X159626943Y-143726383D01*
X159541721Y-144066058D01*
X159538178Y-144077719D01*
X159420018Y-144407402D01*
X159415347Y-144418660D01*
X159265395Y-144735143D01*
X159259642Y-144745887D01*
X159079343Y-145046127D01*
X159072562Y-145056254D01*
X158863660Y-145337343D01*
X158855919Y-145346756D01*
X158620434Y-145605977D01*
X158611805Y-145614585D01*
X158352010Y-145849437D01*
X158342578Y-145857156D01*
X158060977Y-146065374D01*
X158050833Y-146072129D01*
X157750169Y-146251686D01*
X157739411Y-146257413D01*
X157422549Y-146406598D01*
X157411281Y-146411242D01*
X157081319Y-146528595D01*
X157069649Y-146532110D01*
X156729752Y-146616507D01*
X156717793Y-146618859D01*
X156371262Y-146669479D01*
X156359130Y-146670646D01*
X156006231Y-146687146D01*
X156000140Y-146687281D01*
X155960389Y-146687184D01*
X155955608Y-146687173D01*
X155937024Y-146687128D01*
X155935807Y-146687319D01*
X151266258Y-146689509D01*
X151204234Y-146672916D01*
X151158823Y-146627526D01*
X151142200Y-146565509D01*
X151142200Y-143894284D01*
X151144583Y-143870093D01*
X151154000Y-143822750D01*
X151154000Y-143083250D01*
X151144583Y-143035907D01*
X151142200Y-143011716D01*
X151142200Y-142999999D01*
X154206650Y-142999999D01*
X154226816Y-143269100D01*
X154258085Y-143406099D01*
X154286866Y-143532195D01*
X154385457Y-143783398D01*
X154520385Y-144017102D01*
X154688639Y-144228085D01*
X154886459Y-144411635D01*
X155109426Y-144563651D01*
X155352559Y-144680738D01*
X155610428Y-144760280D01*
X155877271Y-144800500D01*
X156147129Y-144800500D01*
X156413972Y-144760280D01*
X156671841Y-144680738D01*
X156914975Y-144563651D01*
X157137941Y-144411635D01*
X157335761Y-144228085D01*
X157504015Y-144017102D01*
X157638943Y-143783398D01*
X157737534Y-143532195D01*
X157797583Y-143269103D01*
X157817749Y-143000000D01*
X157816523Y-142983646D01*
X157797583Y-142730899D01*
X157797583Y-142730897D01*
X157737534Y-142467805D01*
X157638943Y-142216602D01*
X157504015Y-141982898D01*
X157335761Y-141771915D01*
X157335760Y-141771914D01*
X157137943Y-141588366D01*
X157080405Y-141549137D01*
X156914975Y-141436349D01*
X156671841Y-141319262D01*
X156592298Y-141294726D01*
X156413971Y-141239719D01*
X156147129Y-141199500D01*
X155877271Y-141199500D01*
X155610428Y-141239719D01*
X155352559Y-141319262D01*
X155109428Y-141436347D01*
X154886457Y-141588366D01*
X154688639Y-141771915D01*
X154520384Y-141982899D01*
X154385457Y-142216601D01*
X154286866Y-142467804D01*
X154226816Y-142730899D01*
X154206650Y-142999999D01*
X151142200Y-142999999D01*
X151142200Y-141431740D01*
X151154105Y-141378724D01*
X151187534Y-141335887D01*
X151246669Y-141287356D01*
X151280099Y-141244520D01*
X151318602Y-141163113D01*
X151330507Y-141110096D01*
X151332726Y-141090085D01*
X151335500Y-141065077D01*
X151335500Y-139347746D01*
X151334867Y-139331647D01*
X151333338Y-139312220D01*
X151332647Y-139306386D01*
X151331443Y-139296210D01*
X151316465Y-139201644D01*
X151308938Y-139170292D01*
X151296950Y-139133395D01*
X151284609Y-139103600D01*
X151245624Y-139027088D01*
X151228773Y-138999591D01*
X151205969Y-138968205D01*
X151185028Y-138943687D01*
X151124312Y-138882971D01*
X151116031Y-138875898D01*
X151096092Y-138858867D01*
X151097414Y-138857318D01*
X151064298Y-138817254D01*
X151052764Y-138756679D01*
X151071833Y-138698037D01*
X151116790Y-138655832D01*
X151176517Y-138640500D01*
X151206973Y-138640500D01*
X151269120Y-138622252D01*
X151331269Y-138604004D01*
X151356300Y-138587917D01*
X151421567Y-138568245D01*
X151487372Y-138586044D01*
X151533824Y-138635937D01*
X151567150Y-138701343D01*
X151656856Y-138791049D01*
X151656858Y-138791050D01*
X151769896Y-138848646D01*
X151863681Y-138863500D01*
X152326718Y-138863499D01*
X152420504Y-138848646D01*
X152420506Y-138848644D01*
X152439902Y-138845573D01*
X152440127Y-138846994D01*
X152465060Y-138840981D01*
X152521156Y-138854266D01*
X152565184Y-138891480D01*
X152587626Y-138944580D01*
X152588066Y-138947218D01*
X152588803Y-138952278D01*
X152595751Y-139008009D01*
X152622481Y-139057402D01*
X152624821Y-139061947D01*
X152646202Y-139105684D01*
X152646203Y-139105685D01*
X152649484Y-139112396D01*
X152654981Y-139117456D01*
X152654982Y-139117458D01*
X152672294Y-139133395D01*
X152690799Y-139150430D01*
X152694497Y-139153979D01*
X153084561Y-139544043D01*
X153100689Y-139563903D01*
X153105763Y-139571669D01*
X153128673Y-139589500D01*
X153139694Y-139599233D01*
X153155547Y-139610552D01*
X153159650Y-139613611D01*
X153198074Y-139643517D01*
X153198075Y-139643517D01*
X153203972Y-139648107D01*
X153257778Y-139664126D01*
X153262652Y-139665687D01*
X153308712Y-139681500D01*
X153308713Y-139681500D01*
X153315777Y-139683925D01*
X153323243Y-139683616D01*
X153323246Y-139683617D01*
X153371868Y-139681605D01*
X153376992Y-139681500D01*
X155859988Y-139681500D01*
X155885434Y-139684139D01*
X155886756Y-139684416D01*
X155894515Y-139686043D01*
X155920564Y-139682795D01*
X155923323Y-139682452D01*
X155937995Y-139681541D01*
X155957213Y-139678334D01*
X155962269Y-139677596D01*
X156010593Y-139671573D01*
X156010594Y-139671572D01*
X156018008Y-139670648D01*
X156024578Y-139667092D01*
X156024581Y-139667092D01*
X156067401Y-139643918D01*
X156071947Y-139641577D01*
X156115684Y-139620198D01*
X156115686Y-139620195D01*
X156122395Y-139616916D01*
X156127454Y-139611419D01*
X156127458Y-139611418D01*
X156160454Y-139575572D01*
X156163956Y-139571924D01*
X156626246Y-139109634D01*
X156646103Y-139093510D01*
X156653869Y-139088437D01*
X156671696Y-139065531D01*
X156681428Y-139054511D01*
X156681570Y-139054311D01*
X156681576Y-139054306D01*
X156692786Y-139038603D01*
X156695800Y-139034561D01*
X156725717Y-138996126D01*
X156725717Y-138996124D01*
X156730308Y-138990227D01*
X156737227Y-138966985D01*
X156746331Y-138936404D01*
X156747886Y-138931550D01*
X156768083Y-138872721D01*
X156791744Y-138831675D01*
X156829069Y-138802500D01*
X156851542Y-138791050D01*
X156941250Y-138701342D01*
X156998846Y-138588304D01*
X157013700Y-138494519D01*
X157013699Y-137881482D01*
X156998846Y-137787696D01*
X156970617Y-137732295D01*
X156941251Y-137674659D01*
X156902900Y-137636308D01*
X156851542Y-137584950D01*
X156833404Y-137575708D01*
X156783972Y-137530013D01*
X156765700Y-137465224D01*
X156765700Y-136569822D01*
X156778301Y-136515359D01*
X156778398Y-136515159D01*
X156778773Y-136514393D01*
X156788700Y-136446260D01*
X156788700Y-135204740D01*
X156778773Y-135136607D01*
X156727398Y-135031517D01*
X156727397Y-135031516D01*
X156727397Y-135031515D01*
X156644684Y-134948802D01*
X156590912Y-134922515D01*
X156539593Y-134897427D01*
X156539591Y-134897426D01*
X156539590Y-134897426D01*
X156471463Y-134887500D01*
X156471460Y-134887500D01*
X156104940Y-134887500D01*
X156104937Y-134887500D01*
X156036809Y-134897426D01*
X155931715Y-134948802D01*
X155849002Y-135031515D01*
X155797626Y-135136609D01*
X155787700Y-135204737D01*
X155787700Y-136446263D01*
X155797626Y-136514390D01*
X155797626Y-136514391D01*
X155797627Y-136514393D01*
X155802254Y-136523857D01*
X155849002Y-136619484D01*
X155931715Y-136702197D01*
X155995160Y-136733213D01*
X156045888Y-136778952D01*
X156064700Y-136844614D01*
X156064700Y-137463186D01*
X156046428Y-137527975D01*
X155996996Y-137573670D01*
X155974859Y-137584949D01*
X155885149Y-137674658D01*
X155827553Y-137787697D01*
X155812700Y-137881478D01*
X155812700Y-138494514D01*
X155813018Y-138496519D01*
X155827554Y-138588304D01*
X155827554Y-138588305D01*
X155827555Y-138588306D01*
X155894066Y-138718842D01*
X155892152Y-138719816D01*
X155908575Y-138748261D01*
X155908575Y-138812448D01*
X155876482Y-138868036D01*
X155800334Y-138944183D01*
X155760109Y-138971061D01*
X155712656Y-138980500D01*
X154293455Y-138980500D01*
X154237160Y-138966985D01*
X154193137Y-138929385D01*
X154170982Y-138875898D01*
X154175524Y-138818182D01*
X154205774Y-138768819D01*
X154273249Y-138701343D01*
X154273250Y-138701342D01*
X154330846Y-138588304D01*
X154345700Y-138494519D01*
X154345699Y-137881482D01*
X154330846Y-137787696D01*
X154303165Y-137733370D01*
X154273250Y-137674657D01*
X154257019Y-137658426D01*
X154230139Y-137618198D01*
X154220700Y-137570745D01*
X154220700Y-136759543D01*
X154230139Y-136712090D01*
X154257016Y-136671864D01*
X154309398Y-136619483D01*
X154360773Y-136514393D01*
X154370700Y-136446260D01*
X154370700Y-135204740D01*
X154360773Y-135136607D01*
X154309398Y-135031517D01*
X154309397Y-135031516D01*
X154309397Y-135031515D01*
X154226684Y-134948802D01*
X154172912Y-134922515D01*
X154121593Y-134897427D01*
X154121591Y-134897426D01*
X154121590Y-134897426D01*
X154053463Y-134887500D01*
X154053460Y-134887500D01*
X153686940Y-134887500D01*
X153686937Y-134887500D01*
X153618809Y-134897426D01*
X153513715Y-134948802D01*
X153431002Y-135031515D01*
X153379626Y-135136609D01*
X153369700Y-135204737D01*
X153369700Y-136446263D01*
X153379626Y-136514390D01*
X153379626Y-136514391D01*
X153379627Y-136514393D01*
X153384254Y-136523857D01*
X153431001Y-136619482D01*
X153431002Y-136619483D01*
X153483383Y-136671864D01*
X153510261Y-136712090D01*
X153519700Y-136759543D01*
X153519700Y-137047877D01*
X153502224Y-137111348D01*
X153454723Y-137156929D01*
X153390585Y-137171771D01*
X153327888Y-137151692D01*
X153284306Y-137102351D01*
X153280655Y-137094885D01*
X153275447Y-137078628D01*
X153258805Y-137047877D01*
X153248325Y-137028511D01*
X153245981Y-137023956D01*
X153221318Y-136973505D01*
X153215818Y-136968442D01*
X153179987Y-136935457D01*
X153176314Y-136931932D01*
X152507019Y-136262637D01*
X152480139Y-136222409D01*
X152470700Y-136174956D01*
X152470700Y-135204737D01*
X152460773Y-135136609D01*
X152460773Y-135136607D01*
X152409398Y-135031517D01*
X152409397Y-135031516D01*
X152409397Y-135031515D01*
X152326684Y-134948802D01*
X152272912Y-134922515D01*
X152221593Y-134897427D01*
X152221591Y-134897426D01*
X152221590Y-134897426D01*
X152153463Y-134887500D01*
X152153460Y-134887500D01*
X151786940Y-134887500D01*
X151786937Y-134887500D01*
X151718809Y-134897426D01*
X151613715Y-134948802D01*
X151531002Y-135031515D01*
X151479626Y-135136609D01*
X151469700Y-135204737D01*
X151469700Y-135376000D01*
X151453087Y-135438000D01*
X151407700Y-135483387D01*
X151345700Y-135500000D01*
X150242700Y-135500000D01*
X150180700Y-135483387D01*
X150135313Y-135438000D01*
X150118700Y-135376000D01*
X150118700Y-135204737D01*
X150108773Y-135136609D01*
X150108773Y-135136607D01*
X150057398Y-135031517D01*
X150057397Y-135031516D01*
X150057397Y-135031515D01*
X149974684Y-134948802D01*
X149920912Y-134922515D01*
X149869593Y-134897427D01*
X149869591Y-134897426D01*
X149869590Y-134897426D01*
X149801463Y-134887500D01*
X149801460Y-134887500D01*
X149434940Y-134887500D01*
X149434937Y-134887500D01*
X149366809Y-134897426D01*
X149261715Y-134948802D01*
X149179002Y-135031515D01*
X149127626Y-135136609D01*
X149117700Y-135204737D01*
X149117700Y-136446263D01*
X149127626Y-136514390D01*
X149127626Y-136514391D01*
X149127627Y-136514393D01*
X149132254Y-136523857D01*
X149179002Y-136619484D01*
X149261715Y-136702197D01*
X149261716Y-136702197D01*
X149261717Y-136702198D01*
X149366807Y-136753573D01*
X149394060Y-136757543D01*
X149434937Y-136763500D01*
X149434940Y-136763500D01*
X149801460Y-136763500D01*
X149801463Y-136763500D01*
X149841700Y-136757637D01*
X149869593Y-136753573D01*
X149974683Y-136702198D01*
X150057398Y-136619483D01*
X150108773Y-136514393D01*
X150118700Y-136446260D01*
X150118700Y-136275000D01*
X150135313Y-136213000D01*
X150180700Y-136167613D01*
X150242700Y-136151000D01*
X151345700Y-136151000D01*
X151407700Y-136167613D01*
X151453087Y-136213000D01*
X151469700Y-136275000D01*
X151469700Y-136446263D01*
X151479626Y-136514390D01*
X151479626Y-136514391D01*
X151479627Y-136514393D01*
X151484254Y-136523857D01*
X151531002Y-136619484D01*
X151613715Y-136702197D01*
X151613716Y-136702197D01*
X151613717Y-136702198D01*
X151718807Y-136753573D01*
X151746060Y-136757543D01*
X151786937Y-136763500D01*
X151786940Y-136763500D01*
X151965156Y-136763500D01*
X152012609Y-136772939D01*
X152052837Y-136799819D01*
X152548581Y-137295562D01*
X152575461Y-137335790D01*
X152584900Y-137383243D01*
X152584900Y-137408768D01*
X152569091Y-137469354D01*
X152525696Y-137514492D01*
X152465779Y-137532672D01*
X152440426Y-137527112D01*
X152439902Y-137530426D01*
X152326721Y-137512500D01*
X151863685Y-137512500D01*
X151816789Y-137519927D01*
X151769896Y-137527354D01*
X151769894Y-137527354D01*
X151769893Y-137527355D01*
X151656857Y-137584949D01*
X151567148Y-137674658D01*
X151532288Y-137743075D01*
X151485837Y-137792967D01*
X151420034Y-137810767D01*
X151354766Y-137791096D01*
X151331269Y-137775996D01*
X151206973Y-137739500D01*
X151206972Y-137739500D01*
X151077428Y-137739500D01*
X151077427Y-137739500D01*
X150953131Y-137775994D01*
X150844150Y-137846033D01*
X150759318Y-137943935D01*
X150705502Y-138061773D01*
X150687067Y-138190000D01*
X150705502Y-138318226D01*
X150759318Y-138436064D01*
X150839211Y-138528266D01*
X150865903Y-138579828D01*
X150866197Y-138637888D01*
X150840028Y-138689718D01*
X150793134Y-138723953D01*
X150738831Y-138732604D01*
X150738807Y-138733229D01*
X150720254Y-138732500D01*
X150720244Y-138732500D01*
X148551510Y-138732500D01*
X148499596Y-138721110D01*
X148457220Y-138689032D01*
X148432166Y-138642159D01*
X148429037Y-138589103D01*
X148438672Y-138528266D01*
X148443700Y-138496519D01*
X148443699Y-137883482D01*
X148428846Y-137789696D01*
X148401165Y-137735370D01*
X148371250Y-137676657D01*
X148281543Y-137586950D01*
X148155621Y-137522790D01*
X148119816Y-137507960D01*
X148082216Y-137463937D01*
X148068700Y-137407641D01*
X148068700Y-136759543D01*
X148078139Y-136712090D01*
X148105016Y-136671864D01*
X148157398Y-136619483D01*
X148208773Y-136514393D01*
X148218700Y-136446260D01*
X148218700Y-135204740D01*
X148208773Y-135136607D01*
X148157398Y-135031517D01*
X148105016Y-134979135D01*
X148078139Y-134938910D01*
X148068700Y-134891457D01*
X148068700Y-134883544D01*
X148082215Y-134827249D01*
X148119815Y-134783226D01*
X148173302Y-134761071D01*
X148231018Y-134765613D01*
X148280381Y-134795863D01*
X148311715Y-134827197D01*
X148311716Y-134827197D01*
X148311717Y-134827198D01*
X148416807Y-134878573D01*
X148444060Y-134882543D01*
X148484937Y-134888500D01*
X148484940Y-134888500D01*
X148851460Y-134888500D01*
X148851463Y-134888500D01*
X148885526Y-134883536D01*
X148919593Y-134878573D01*
X149024683Y-134827198D01*
X149107398Y-134744483D01*
X149107397Y-134744483D01*
X149127415Y-134703539D01*
X149173153Y-134652812D01*
X149238815Y-134634000D01*
X152349585Y-134634000D01*
X152415247Y-134652812D01*
G37*
%TD.AperFunction*%
%TD*%
%TA.AperFunction,Conductor*%
%TO.N,Net-(D5-A)*%
G36*
X131376025Y-136794716D02*
G01*
X131402519Y-136799170D01*
X131476073Y-136811537D01*
X131514923Y-136824981D01*
X131594759Y-136868568D01*
X131627078Y-136893980D01*
X131695327Y-136969039D01*
X131707889Y-136985405D01*
X132658874Y-138464716D01*
X132667357Y-138480247D01*
X132703579Y-138559541D01*
X132713527Y-138593410D01*
X132716993Y-138617507D01*
X132708313Y-138680379D01*
X132708514Y-138680437D01*
X132708111Y-138681847D01*
X132707620Y-138685406D01*
X132706142Y-138688741D01*
X132693669Y-138732418D01*
X132687443Y-138754220D01*
X132675700Y-138838112D01*
X132675700Y-139470489D01*
X132662176Y-139526801D01*
X132659713Y-139531633D01*
X132636918Y-139563002D01*
X132576202Y-139623718D01*
X132544816Y-139646522D01*
X132468304Y-139685507D01*
X132431407Y-139697495D01*
X132351625Y-139710131D01*
X132336840Y-139712473D01*
X132317444Y-139714000D01*
X127802956Y-139714000D01*
X127783559Y-139712473D01*
X127764458Y-139709447D01*
X127688992Y-139697495D01*
X127652095Y-139685507D01*
X127575583Y-139646522D01*
X127544197Y-139623718D01*
X127483481Y-139563002D01*
X127460677Y-139531616D01*
X127423015Y-139457700D01*
X127409500Y-139401405D01*
X127409500Y-138356320D01*
X127420365Y-138305561D01*
X127420469Y-138305328D01*
X127447615Y-138244825D01*
X127466135Y-138215438D01*
X127515923Y-138156677D01*
X127541873Y-138133582D01*
X127613357Y-138086061D01*
X127628486Y-138077471D01*
X130226117Y-136835126D01*
X130238876Y-136829876D01*
X130303335Y-136807467D01*
X130330243Y-136801364D01*
X130389608Y-136794716D01*
X130398056Y-136793770D01*
X130411855Y-136793000D01*
X131355465Y-136793000D01*
X131376025Y-136794716D01*
G37*
%TD.AperFunction*%
%TD*%
%TA.AperFunction,Conductor*%
%TO.N,GND*%
G36*
X149163950Y-130553015D02*
G01*
X149207973Y-130590615D01*
X149230128Y-130644102D01*
X149225586Y-130701818D01*
X149195336Y-130751181D01*
X148455155Y-131491361D01*
X148435304Y-131507483D01*
X148427532Y-131512561D01*
X148409700Y-131535471D01*
X148399965Y-131546496D01*
X148388641Y-131562357D01*
X148385592Y-131566445D01*
X148369154Y-131587566D01*
X148351091Y-131610773D01*
X148335071Y-131664582D01*
X148333509Y-131669458D01*
X148315274Y-131722577D01*
X148317594Y-131778668D01*
X148317700Y-131783792D01*
X148317700Y-131913970D01*
X148303370Y-131971837D01*
X148263691Y-132016329D01*
X148207835Y-132037162D01*
X148148712Y-132029521D01*
X148099987Y-131995173D01*
X148043136Y-131929563D01*
X148016249Y-131898533D01*
X148016248Y-131898532D01*
X147907268Y-131828494D01*
X147782973Y-131792000D01*
X147782972Y-131792000D01*
X147653428Y-131792000D01*
X147653427Y-131792000D01*
X147529131Y-131828494D01*
X147420150Y-131898533D01*
X147335318Y-131996435D01*
X147281502Y-132114273D01*
X147263067Y-132242500D01*
X147281502Y-132370726D01*
X147335318Y-132488564D01*
X147337414Y-132490983D01*
X147359882Y-132528851D01*
X147367700Y-132572184D01*
X147367700Y-134547138D01*
X147358261Y-134594591D01*
X147332200Y-134633593D01*
X147332200Y-134926956D01*
X147322761Y-134974409D01*
X147295881Y-135014637D01*
X147279002Y-135031515D01*
X147227626Y-135136609D01*
X147217700Y-135204737D01*
X147217700Y-136446263D01*
X147227626Y-136514390D01*
X147279002Y-136619484D01*
X147295881Y-136636363D01*
X147322761Y-136676591D01*
X147332200Y-136724044D01*
X147332200Y-137613425D01*
X147318685Y-137669720D01*
X147257553Y-137789697D01*
X147242700Y-137883478D01*
X147242700Y-138496514D01*
X147242701Y-138496518D01*
X147257554Y-138590304D01*
X147257554Y-138590305D01*
X147257555Y-138590306D01*
X147318685Y-138710281D01*
X147332200Y-138766575D01*
X147332200Y-138938000D01*
X147320000Y-138938000D01*
X147320000Y-140951778D01*
X147311997Y-140938853D01*
X147303994Y-140923669D01*
X147293206Y-140899235D01*
X147288309Y-140894338D01*
X147270563Y-140871934D01*
X147266919Y-140866048D01*
X147245604Y-140849952D01*
X147232655Y-140838684D01*
X147187425Y-140793454D01*
X147155333Y-140737874D01*
X147155327Y-140673698D01*
X147181048Y-140577654D01*
X147181038Y-140455473D01*
X147181038Y-140455470D01*
X147149414Y-140337457D01*
X147149414Y-140337456D01*
X147088328Y-140231641D01*
X147088327Y-140231640D01*
X147088317Y-140231622D01*
X147045132Y-140188437D01*
X147026555Y-140169856D01*
X147011484Y-140154781D01*
X147011482Y-140154780D01*
X146998321Y-140141616D01*
X146998282Y-140141587D01*
X146852210Y-139995515D01*
X146832521Y-139975826D01*
X146832520Y-139975825D01*
X146826288Y-139969593D01*
X146826287Y-139969593D01*
X146809006Y-139952312D01*
X146703178Y-139891210D01*
X146585143Y-139859584D01*
X146462943Y-139859584D01*
X146422684Y-139870371D01*
X146366399Y-139872213D01*
X146315104Y-139848972D01*
X146279379Y-139805440D01*
X146266591Y-139750596D01*
X146266591Y-139544748D01*
X146280619Y-139487458D01*
X146300814Y-139448691D01*
X146333534Y-139385884D01*
X146364262Y-139263379D01*
X146364261Y-139263379D01*
X146365049Y-139260242D01*
X146365049Y-139199232D01*
X146365057Y-139197836D01*
X146365444Y-139163500D01*
X146365566Y-139152642D01*
X146365565Y-139152641D01*
X146365746Y-139136627D01*
X146365049Y-139132061D01*
X146365049Y-139097587D01*
X146365074Y-139097456D01*
X146365073Y-139033987D01*
X146365073Y-138987023D01*
X146338735Y-138871637D01*
X146287380Y-138765005D01*
X146213583Y-138672475D01*
X146162391Y-138631657D01*
X146127982Y-138588513D01*
X146115700Y-138534707D01*
X146115700Y-137511737D01*
X146105773Y-137443609D01*
X146105773Y-137443607D01*
X146054398Y-137338517D01*
X146054397Y-137338516D01*
X146054397Y-137338515D01*
X145971684Y-137255802D01*
X145876352Y-137209198D01*
X145866593Y-137204427D01*
X145866591Y-137204426D01*
X145866590Y-137204426D01*
X145798463Y-137194500D01*
X145798460Y-137194500D01*
X145431940Y-137194500D01*
X145431937Y-137194500D01*
X145363809Y-137204426D01*
X145258715Y-137255802D01*
X145176002Y-137338515D01*
X145124626Y-137443609D01*
X145114700Y-137511737D01*
X145114700Y-138603263D01*
X145124626Y-138671390D01*
X145124626Y-138671391D01*
X145124627Y-138671393D01*
X145134283Y-138691145D01*
X145176002Y-138776484D01*
X145258715Y-138859197D01*
X145258716Y-138859197D01*
X145258717Y-138859198D01*
X145363807Y-138910573D01*
X145367974Y-138911180D01*
X145377043Y-138912502D01*
X145420909Y-138927671D01*
X145456124Y-138957908D01*
X145466169Y-138970508D01*
X145486871Y-138987023D01*
X145558679Y-139044307D01*
X145558680Y-139044307D01*
X145558681Y-139044308D01*
X145636482Y-139081789D01*
X145682055Y-139119357D01*
X145705080Y-139173748D01*
X145700330Y-139232621D01*
X145684197Y-139281146D01*
X145682157Y-139286817D01*
X145665591Y-139329581D01*
X145665591Y-139384335D01*
X145665588Y-139385180D01*
X145665155Y-139448691D01*
X145665591Y-139451506D01*
X145665591Y-139861258D01*
X145652076Y-139917553D01*
X145614476Y-139961576D01*
X145560989Y-139983731D01*
X145503273Y-139979189D01*
X145453910Y-139948939D01*
X144246026Y-138741055D01*
X144216015Y-138692421D01*
X144211003Y-138635494D01*
X144215700Y-138603260D01*
X144215700Y-137511737D01*
X144205773Y-137443609D01*
X144205773Y-137443607D01*
X144199091Y-137429940D01*
X144186500Y-137374193D01*
X144200248Y-137318719D01*
X144237415Y-137275303D01*
X144255363Y-137267763D01*
X144254378Y-137265943D01*
X144273117Y-137255802D01*
X144315401Y-137232918D01*
X144319947Y-137230577D01*
X144363684Y-137209198D01*
X144363686Y-137209195D01*
X144370395Y-137205916D01*
X144375454Y-137200419D01*
X144375458Y-137200418D01*
X144408454Y-137164572D01*
X144411956Y-137160924D01*
X144848838Y-136724044D01*
X144940842Y-136632041D01*
X144942963Y-136634162D01*
X144974989Y-136607024D01*
X145021683Y-136584198D01*
X145052519Y-136553361D01*
X145108105Y-136521268D01*
X145172292Y-136521268D01*
X145227880Y-136553362D01*
X145258715Y-136584197D01*
X145258716Y-136584197D01*
X145258717Y-136584198D01*
X145363807Y-136635573D01*
X145389435Y-136639307D01*
X145431937Y-136645500D01*
X145431940Y-136645500D01*
X145798460Y-136645500D01*
X145798463Y-136645500D01*
X145832526Y-136640536D01*
X145866593Y-136635573D01*
X145971683Y-136584198D01*
X146054398Y-136501483D01*
X146105773Y-136396393D01*
X146115700Y-136328260D01*
X146115700Y-135236740D01*
X146105773Y-135168607D01*
X146054398Y-135063517D01*
X146002016Y-135011135D01*
X145975139Y-134970910D01*
X145965700Y-134923457D01*
X145965700Y-134342213D01*
X145968339Y-134316767D01*
X145968564Y-134315688D01*
X145970243Y-134307686D01*
X145966652Y-134278878D01*
X145965741Y-134264214D01*
X145965700Y-134263968D01*
X145965700Y-134263960D01*
X145962525Y-134244938D01*
X145961797Y-134239941D01*
X145955773Y-134191608D01*
X145955772Y-134191606D01*
X145954848Y-134184192D01*
X145951292Y-134177621D01*
X145951292Y-134177619D01*
X145928120Y-134134802D01*
X145925776Y-134130246D01*
X145901117Y-134079803D01*
X145859789Y-134041758D01*
X145856091Y-134038210D01*
X145382219Y-133564337D01*
X145355339Y-133524109D01*
X145345900Y-133476656D01*
X145345900Y-131452344D01*
X145355339Y-131404891D01*
X145382219Y-131364663D01*
X146171063Y-130575819D01*
X146211291Y-130548939D01*
X146258744Y-130539500D01*
X149107655Y-130539500D01*
X149163950Y-130553015D01*
G37*
%TD.AperFunction*%
%TA.AperFunction,Conductor*%
G36*
X156454109Y-131945939D02*
G01*
X156494337Y-131972819D01*
X156851381Y-132329863D01*
X156878261Y-132370091D01*
X156887700Y-132417544D01*
X156887700Y-133016457D01*
X156878261Y-133063910D01*
X156851383Y-133104135D01*
X156837744Y-133117775D01*
X156799001Y-133156517D01*
X156747626Y-133261609D01*
X156737700Y-133329737D01*
X156737700Y-134304500D01*
X156721087Y-134366500D01*
X156675700Y-134411887D01*
X156613700Y-134428500D01*
X153490815Y-134428500D01*
X153434214Y-134436448D01*
X153368560Y-134455258D01*
X153368556Y-134455259D01*
X153368555Y-134455260D01*
X153367420Y-134455765D01*
X153316331Y-134478489D01*
X153272530Y-134515200D01*
X153226796Y-134565923D01*
X153217675Y-134579423D01*
X153173100Y-134619509D01*
X153114930Y-134634000D01*
X152725470Y-134634000D01*
X152667299Y-134619509D01*
X152622724Y-134579421D01*
X152613605Y-134565925D01*
X152567869Y-134515200D01*
X152524068Y-134478489D01*
X152524066Y-134478488D01*
X152471845Y-134455260D01*
X152471840Y-134455258D01*
X152471839Y-134455258D01*
X152406185Y-134436448D01*
X152349585Y-134428500D01*
X150245165Y-134428500D01*
X150184190Y-134412473D01*
X150138978Y-134368533D01*
X150121216Y-134308041D01*
X150135495Y-134246633D01*
X150178125Y-134200185D01*
X150191471Y-134191608D01*
X150200249Y-134185967D01*
X150207483Y-134177619D01*
X150285081Y-134088064D01*
X150285080Y-134088064D01*
X150285082Y-134088063D01*
X150338897Y-133970226D01*
X150357333Y-133842000D01*
X150338897Y-133713774D01*
X150285082Y-133595937D01*
X150285081Y-133595936D01*
X150285081Y-133595935D01*
X150282986Y-133593517D01*
X150260518Y-133555649D01*
X150252700Y-133512316D01*
X150252700Y-132387544D01*
X150262139Y-132340091D01*
X150289019Y-132299863D01*
X150616063Y-131972819D01*
X150656291Y-131945939D01*
X150703744Y-131936500D01*
X156406656Y-131936500D01*
X156454109Y-131945939D01*
G37*
%TD.AperFunction*%
%TD*%
%TA.AperFunction,Conductor*%
%TO.N,EN*%
G36*
X125885971Y-140452981D02*
G01*
X125964618Y-140468624D01*
X126009308Y-140487135D01*
X126065626Y-140524766D01*
X126099833Y-140558973D01*
X126130410Y-140604734D01*
X126137462Y-140615288D01*
X126155976Y-140659987D01*
X126171617Y-140738620D01*
X126174000Y-140762811D01*
X126174000Y-141509989D01*
X126171617Y-141534180D01*
X126155976Y-141612812D01*
X126137462Y-141657511D01*
X126099836Y-141713823D01*
X126065623Y-141748036D01*
X126009311Y-141785662D01*
X125964612Y-141804176D01*
X125885980Y-141819817D01*
X125861789Y-141822200D01*
X125165411Y-141822200D01*
X125141220Y-141819817D01*
X125062587Y-141804176D01*
X125017887Y-141785661D01*
X124984064Y-141763061D01*
X124945567Y-141721957D01*
X124929220Y-141668068D01*
X124928385Y-141655320D01*
X124926425Y-141635424D01*
X124913016Y-141533584D01*
X124913016Y-141501211D01*
X124926424Y-141399381D01*
X124926425Y-141399376D01*
X124928385Y-141379480D01*
X124929446Y-141363294D01*
X124930100Y-141343311D01*
X124930100Y-140929489D01*
X124929446Y-140909506D01*
X124928385Y-140893320D01*
X124926425Y-140873424D01*
X124913016Y-140771584D01*
X124913016Y-140739211D01*
X124921393Y-140675595D01*
X124926425Y-140637376D01*
X124928385Y-140617480D01*
X124929220Y-140604731D01*
X124945567Y-140550842D01*
X124984061Y-140509740D01*
X125017891Y-140487136D01*
X125062579Y-140468625D01*
X125141228Y-140452981D01*
X125165411Y-140450600D01*
X125861789Y-140450600D01*
X125885971Y-140452981D01*
G37*
%TD.AperFunction*%
%TD*%
%TA.AperFunction,Conductor*%
%TO.N,A1*%
G36*
X129349573Y-120212474D02*
G01*
X129380973Y-120232456D01*
X129423099Y-120277400D01*
X129438400Y-120337070D01*
X129438400Y-120524967D01*
X129429776Y-120570404D01*
X129405102Y-120609520D01*
X128177338Y-121926575D01*
X128124852Y-121959986D01*
X128062744Y-121963699D01*
X128006652Y-121936777D01*
X127970696Y-121885999D01*
X127795179Y-121423273D01*
X127787410Y-121370827D01*
X127802258Y-121319927D01*
X127837006Y-121279886D01*
X129159000Y-120294400D01*
X129159000Y-120294397D01*
X129172172Y-120268151D01*
X129172369Y-120268249D01*
X129176288Y-120253934D01*
X129223330Y-120208389D01*
X129287011Y-120193153D01*
X129349573Y-120212474D01*
G37*
%TD.AperFunction*%
%TD*%
%TA.AperFunction,Conductor*%
%TO.N,B2*%
G36*
X130885370Y-120208389D02*
G01*
X130932412Y-120253934D01*
X130936330Y-120268249D01*
X130936528Y-120268151D01*
X130949701Y-120294401D01*
X132271689Y-121279883D01*
X132306441Y-121319927D01*
X132321289Y-121370827D01*
X132313519Y-121423276D01*
X132138003Y-121885999D01*
X132102047Y-121936777D01*
X132045955Y-121963699D01*
X131983847Y-121959986D01*
X131931361Y-121926575D01*
X130703598Y-120609520D01*
X130678924Y-120570404D01*
X130670300Y-120524967D01*
X130670300Y-120337070D01*
X130685601Y-120277400D01*
X130727727Y-120232456D01*
X130759127Y-120212474D01*
X130821689Y-120193153D01*
X130885370Y-120208389D01*
G37*
%TD.AperFunction*%
%TD*%
%TA.AperFunction,Conductor*%
%TO.N,+3.3V*%
G36*
X143018771Y-78437581D02*
G01*
X143097418Y-78453224D01*
X143142108Y-78471735D01*
X143198426Y-78509366D01*
X143232633Y-78543573D01*
X143270262Y-78599888D01*
X143288776Y-78644587D01*
X143304417Y-78723220D01*
X143306800Y-78747411D01*
X143306800Y-80815389D01*
X143304417Y-80839580D01*
X143288776Y-80918212D01*
X143270262Y-80962911D01*
X143232636Y-81019223D01*
X143198423Y-81053436D01*
X143142111Y-81091062D01*
X143097412Y-81109576D01*
X143018780Y-81125217D01*
X142994589Y-81127600D01*
X142450611Y-81127600D01*
X142426420Y-81125217D01*
X142347787Y-81109576D01*
X142303089Y-81091062D01*
X142246773Y-81053433D01*
X142212566Y-81019226D01*
X142174935Y-80962908D01*
X142156424Y-80918218D01*
X142140781Y-80839571D01*
X142138400Y-80815389D01*
X142138400Y-80309999D01*
X142138400Y-80010000D01*
X141838401Y-80010000D01*
X141688611Y-80010000D01*
X141664420Y-80007617D01*
X141628012Y-80000375D01*
X141595908Y-79989242D01*
X141588133Y-79985280D01*
X141576522Y-79983441D01*
X141527034Y-79964070D01*
X141484777Y-79935835D01*
X141450565Y-79901624D01*
X141412938Y-79845312D01*
X141394424Y-79800618D01*
X141378781Y-79721971D01*
X141376400Y-79697789D01*
X141376400Y-78747411D01*
X141378781Y-78723228D01*
X141394425Y-78644579D01*
X141412934Y-78599893D01*
X141450568Y-78543570D01*
X141484770Y-78509368D01*
X141541093Y-78471734D01*
X141585779Y-78453225D01*
X141664428Y-78437581D01*
X141688611Y-78435200D01*
X142994589Y-78435200D01*
X143018771Y-78437581D01*
G37*
%TD.AperFunction*%
%TD*%
%TA.AperFunction,Conductor*%
%TO.N,+6V*%
G36*
X120069130Y-112492561D02*
G01*
X120085423Y-112494706D01*
X120116691Y-112503084D01*
X120207118Y-112540540D01*
X120235152Y-112556725D01*
X120312802Y-112616309D01*
X120335691Y-112639198D01*
X120395274Y-112716848D01*
X120411459Y-112744881D01*
X120448915Y-112835308D01*
X120457293Y-112866575D01*
X120471139Y-112971740D01*
X120472200Y-112987926D01*
X120472200Y-118220200D01*
X127213829Y-118244985D01*
X127232690Y-118246498D01*
X127354758Y-118265750D01*
X127390702Y-118277231D01*
X127501326Y-118332303D01*
X127517572Y-118342003D01*
X127812800Y-118550400D01*
X128651000Y-118804400D01*
X128787074Y-118804400D01*
X128819166Y-118808625D01*
X128847505Y-118816218D01*
X128903094Y-118848312D01*
X128911181Y-118856399D01*
X128938061Y-118896627D01*
X128947500Y-118944080D01*
X128947500Y-119202648D01*
X128945973Y-119222046D01*
X128941468Y-119250489D01*
X128929479Y-119287387D01*
X128896802Y-119351517D01*
X128873999Y-119382902D01*
X128823102Y-119433799D01*
X128791717Y-119456602D01*
X128760588Y-119472463D01*
X128727585Y-119489279D01*
X128690689Y-119501268D01*
X128609841Y-119514073D01*
X128590443Y-119515600D01*
X117957726Y-119515600D01*
X117941541Y-119514539D01*
X117928517Y-119512824D01*
X117836375Y-119500693D01*
X117805108Y-119492315D01*
X117714681Y-119454859D01*
X117686648Y-119438674D01*
X117608998Y-119379091D01*
X117586108Y-119356201D01*
X117526525Y-119278551D01*
X117510340Y-119250518D01*
X117472884Y-119160091D01*
X117464506Y-119128823D01*
X117450661Y-119023659D01*
X117449600Y-119007474D01*
X117449600Y-112987926D01*
X117450661Y-112971741D01*
X117464506Y-112866576D01*
X117472884Y-112835308D01*
X117510340Y-112744881D01*
X117526523Y-112716850D01*
X117586113Y-112639192D01*
X117608992Y-112616313D01*
X117686650Y-112556723D01*
X117714679Y-112540540D01*
X117805109Y-112503083D01*
X117836377Y-112494706D01*
X117852671Y-112492561D01*
X117868855Y-112491500D01*
X120052945Y-112491500D01*
X120069130Y-112492561D01*
G37*
%TD.AperFunction*%
%TD*%
%TA.AperFunction,Conductor*%
%TO.N,GND*%
G36*
X107572571Y-130699381D02*
G01*
X107651218Y-130715024D01*
X107695908Y-130733535D01*
X107752226Y-130771166D01*
X107786433Y-130805373D01*
X107824062Y-130861688D01*
X107842576Y-130906387D01*
X107858217Y-130985020D01*
X107860600Y-131009211D01*
X107860600Y-133770400D01*
X110139189Y-133770400D01*
X110163379Y-133772782D01*
X110177625Y-133775616D01*
X110197892Y-133779648D01*
X110249187Y-133802890D01*
X110284912Y-133846422D01*
X110297700Y-133901265D01*
X110297700Y-134280762D01*
X110302563Y-134313022D01*
X110312852Y-134381287D01*
X110315421Y-134386621D01*
X110327700Y-134440420D01*
X110327700Y-134591867D01*
X110330614Y-134616988D01*
X110375995Y-134719767D01*
X110455432Y-134799204D01*
X110455433Y-134799204D01*
X110455435Y-134799206D01*
X110558209Y-134844585D01*
X110583335Y-134847500D01*
X110913064Y-134847499D01*
X110913067Y-134847499D01*
X110931909Y-134845313D01*
X110938191Y-134844585D01*
X110948112Y-134840204D01*
X110998200Y-134829638D01*
X111048287Y-134840204D01*
X111058209Y-134844585D01*
X111083335Y-134847500D01*
X111413064Y-134847499D01*
X111413067Y-134847499D01*
X111431909Y-134845313D01*
X111438191Y-134844585D01*
X111448112Y-134840204D01*
X111498200Y-134829638D01*
X111548287Y-134840204D01*
X111558209Y-134844585D01*
X111583335Y-134847500D01*
X111913064Y-134847499D01*
X111913067Y-134847499D01*
X111925627Y-134846042D01*
X111938191Y-134844585D01*
X112040965Y-134799206D01*
X112040965Y-134799205D01*
X112046040Y-134796965D01*
X112096126Y-134786400D01*
X112234201Y-134786400D01*
X112534200Y-134786400D01*
X112534200Y-134486396D01*
X112534708Y-134483842D01*
X112536581Y-134464828D01*
X112552225Y-134386179D01*
X112570734Y-134341493D01*
X112608368Y-134285170D01*
X112642570Y-134250968D01*
X112698893Y-134213334D01*
X112743579Y-134194825D01*
X112822228Y-134179181D01*
X112846411Y-134176800D01*
X117464763Y-134176800D01*
X117512215Y-134186239D01*
X117552443Y-134213118D01*
X117563400Y-134229516D01*
X117563400Y-136869200D01*
X114654612Y-136869200D01*
X114630422Y-136866817D01*
X114602571Y-136861277D01*
X114588826Y-136858543D01*
X114544131Y-136840029D01*
X114539495Y-136836931D01*
X114519223Y-136823386D01*
X114485013Y-136789176D01*
X114468369Y-136764267D01*
X114449856Y-136719570D01*
X114439200Y-136666000D01*
X114439200Y-136462800D01*
X114236001Y-136462800D01*
X111994662Y-136462800D01*
X111944576Y-136452234D01*
X111938191Y-136449415D01*
X111938189Y-136449414D01*
X111916361Y-136446882D01*
X111913064Y-136446500D01*
X111583332Y-136446500D01*
X111558209Y-136449414D01*
X111551822Y-136452235D01*
X111501737Y-136462800D01*
X111494663Y-136462800D01*
X111444579Y-136452235D01*
X111438192Y-136449415D01*
X111429815Y-136448443D01*
X111413065Y-136446500D01*
X111413063Y-136446500D01*
X111083332Y-136446500D01*
X111058209Y-136449414D01*
X111051822Y-136452235D01*
X111001737Y-136462800D01*
X110994663Y-136462800D01*
X110944579Y-136452235D01*
X110938192Y-136449415D01*
X110929815Y-136448443D01*
X110913065Y-136446500D01*
X110913063Y-136446500D01*
X110583332Y-136446500D01*
X110558209Y-136449414D01*
X110551822Y-136452235D01*
X110501737Y-136462800D01*
X110494663Y-136462800D01*
X110444579Y-136452235D01*
X110438192Y-136449415D01*
X110429815Y-136448443D01*
X110413065Y-136446500D01*
X110413063Y-136446500D01*
X110083332Y-136446500D01*
X110058209Y-136449414D01*
X110051822Y-136452235D01*
X110001737Y-136462800D01*
X109994663Y-136462800D01*
X109944579Y-136452235D01*
X109938192Y-136449415D01*
X109929815Y-136448443D01*
X109913065Y-136446500D01*
X109913063Y-136446500D01*
X109583332Y-136446500D01*
X109558210Y-136449414D01*
X109551825Y-136452234D01*
X109501738Y-136462800D01*
X104870811Y-136462800D01*
X104846620Y-136460417D01*
X104767987Y-136444776D01*
X104723289Y-136426262D01*
X104666973Y-136388633D01*
X104632766Y-136354426D01*
X104595135Y-136298108D01*
X104576624Y-136253418D01*
X104560981Y-136174771D01*
X104558600Y-136150589D01*
X104558600Y-131009211D01*
X104560981Y-130985028D01*
X104576625Y-130906379D01*
X104595134Y-130861693D01*
X104632768Y-130805370D01*
X104666970Y-130771168D01*
X104723293Y-130733534D01*
X104767979Y-130715025D01*
X104846628Y-130699381D01*
X104870811Y-130697000D01*
X107548389Y-130697000D01*
X107572571Y-130699381D01*
G37*
%TD.AperFunction*%
%TD*%
%TA.AperFunction,Conductor*%
%TO.N,5V_Stab*%
G36*
X131727971Y-125492381D02*
G01*
X131806618Y-125508024D01*
X131851308Y-125526535D01*
X131907626Y-125564166D01*
X131941833Y-125598373D01*
X131979462Y-125654688D01*
X131997976Y-125699387D01*
X132013617Y-125778020D01*
X132016000Y-125802211D01*
X132016000Y-127590789D01*
X132013617Y-127614980D01*
X131997976Y-127693612D01*
X131979462Y-127738311D01*
X131941836Y-127794623D01*
X131907623Y-127828836D01*
X131851311Y-127866462D01*
X131806612Y-127884976D01*
X131727980Y-127900617D01*
X131703789Y-127903000D01*
X127197411Y-127903000D01*
X127173220Y-127900617D01*
X127094587Y-127884976D01*
X127049889Y-127866462D01*
X126993573Y-127828833D01*
X126959366Y-127794626D01*
X126921735Y-127738308D01*
X126903224Y-127693618D01*
X126887581Y-127614971D01*
X126885200Y-127590789D01*
X126885200Y-125802211D01*
X126887581Y-125778028D01*
X126903225Y-125699379D01*
X126921734Y-125654693D01*
X126959368Y-125598370D01*
X126993570Y-125564168D01*
X127049893Y-125526534D01*
X127094579Y-125508025D01*
X127173228Y-125492381D01*
X127197411Y-125490000D01*
X131703789Y-125490000D01*
X131727971Y-125492381D01*
G37*
%TD.AperFunction*%
%TD*%
%TA.AperFunction,Conductor*%
%TO.N,V_USB*%
G36*
X144715281Y-140143281D02*
G01*
X145606719Y-141034719D01*
X145638813Y-141090307D01*
X145638813Y-141154494D01*
X145606718Y-141210082D01*
X145557337Y-141259462D01*
X145512707Y-141288067D01*
X145460209Y-141295420D01*
X145409437Y-141280176D01*
X145125440Y-141122400D01*
X144263300Y-140643433D01*
X144221280Y-140605200D01*
X144200721Y-140552238D01*
X144205939Y-140495665D01*
X144235839Y-140447360D01*
X144539919Y-140143281D01*
X144595507Y-140111187D01*
X144659694Y-140111187D01*
X144715281Y-140143281D01*
G37*
%TD.AperFunction*%
%TD*%
%TA.AperFunction,Conductor*%
%TO.N,GND*%
G36*
X126971794Y-128165642D02*
G01*
X126971852Y-128165454D01*
X126973766Y-128166034D01*
X126975780Y-128166435D01*
X126977680Y-128167222D01*
X127015368Y-128178654D01*
X127034979Y-128184604D01*
X127034983Y-128184604D01*
X127034987Y-128184606D01*
X127113620Y-128200247D01*
X127143271Y-128204645D01*
X127167462Y-128207028D01*
X127167475Y-128207028D01*
X127167479Y-128207029D01*
X127197402Y-128208500D01*
X127197411Y-128208500D01*
X131703789Y-128208500D01*
X131703798Y-128208500D01*
X131733720Y-128207029D01*
X131733722Y-128207028D01*
X131733738Y-128207028D01*
X131757929Y-128204645D01*
X131787581Y-128200247D01*
X131866213Y-128184606D01*
X131923517Y-128167223D01*
X131925412Y-128166437D01*
X131927423Y-128166037D01*
X131929345Y-128165455D01*
X131929402Y-128165644D01*
X131972863Y-128157000D01*
X136635444Y-128157000D01*
X136654841Y-128158527D01*
X136749407Y-128173504D01*
X136786302Y-128185491D01*
X136862817Y-128224477D01*
X136894202Y-128247281D01*
X136954918Y-128307997D01*
X136977722Y-128339383D01*
X137016707Y-128415895D01*
X137028695Y-128452792D01*
X137043673Y-128547358D01*
X137045200Y-128566756D01*
X137045200Y-129398244D01*
X137043673Y-129417642D01*
X137028695Y-129512207D01*
X137016707Y-129549104D01*
X136977722Y-129625616D01*
X136954918Y-129657002D01*
X136894202Y-129717718D01*
X136862817Y-129740521D01*
X136786308Y-129779505D01*
X136749409Y-129791495D01*
X136689558Y-129800974D01*
X136670161Y-129802500D01*
X135728339Y-129802500D01*
X135688035Y-129807175D01*
X135673751Y-129808000D01*
X126504200Y-129808000D01*
X126504200Y-128157000D01*
X126904198Y-128157000D01*
X126928337Y-128157000D01*
X126971794Y-128165642D01*
G37*
%TD.AperFunction*%
%TD*%
%TA.AperFunction,Conductor*%
%TO.N,Net-(D4-A)*%
G36*
X109898176Y-136754670D02*
G01*
X109931607Y-136761722D01*
X109994663Y-136768300D01*
X110001733Y-136768300D01*
X110001737Y-136768300D01*
X110064792Y-136761722D01*
X110098223Y-136754669D01*
X110123816Y-136752000D01*
X110170894Y-136752000D01*
X110206888Y-136757339D01*
X110239781Y-136772895D01*
X110266823Y-136790964D01*
X110301033Y-136825173D01*
X110338661Y-136881487D01*
X110338662Y-136881488D01*
X110357176Y-136926187D01*
X110372817Y-137004820D01*
X110375200Y-137029011D01*
X110375200Y-143973789D01*
X110372817Y-143997980D01*
X110357176Y-144076612D01*
X110338662Y-144121311D01*
X110301036Y-144177623D01*
X110266823Y-144211836D01*
X110210511Y-144249462D01*
X110165812Y-144267976D01*
X110087180Y-144283617D01*
X110062989Y-144286000D01*
X108020411Y-144286000D01*
X107996220Y-144283617D01*
X107917587Y-144267976D01*
X107872889Y-144249462D01*
X107816573Y-144211833D01*
X107782366Y-144177626D01*
X107744735Y-144121308D01*
X107726224Y-144076618D01*
X107710581Y-143997971D01*
X107708200Y-143973789D01*
X107708200Y-140636554D01*
X107708200Y-140476000D01*
X107031492Y-140024861D01*
X105945257Y-139300704D01*
X105929354Y-139288107D01*
X105880293Y-139242237D01*
X105855652Y-139210171D01*
X105828825Y-139160045D01*
X105815812Y-139121753D01*
X105804860Y-139055486D01*
X105803200Y-139035267D01*
X105803200Y-137029011D01*
X105805581Y-137004828D01*
X105821225Y-136926179D01*
X105839738Y-136881488D01*
X105877366Y-136825173D01*
X105911591Y-136790954D01*
X105914239Y-136789185D01*
X105947126Y-136773636D01*
X105983111Y-136768300D01*
X109501733Y-136768300D01*
X109501738Y-136768300D01*
X109564796Y-136761721D01*
X109594196Y-136755518D01*
X109598221Y-136754670D01*
X109623815Y-136752000D01*
X109872583Y-136752000D01*
X109898176Y-136754670D01*
G37*
%TD.AperFunction*%
%TD*%
%TA.AperFunction,Conductor*%
%TO.N,A2*%
G36*
X129884400Y-121276213D02*
G01*
X129929787Y-121321600D01*
X129946400Y-121383600D01*
X129946400Y-121427534D01*
X129943761Y-121452979D01*
X129942956Y-121456818D01*
X129943057Y-121457628D01*
X129939308Y-121506781D01*
X129916704Y-121550588D01*
X128585181Y-123209152D01*
X128529186Y-123248654D01*
X128460762Y-123252385D01*
X128400805Y-123219205D01*
X128057155Y-122875555D01*
X128024567Y-122818064D01*
X128026139Y-122751998D01*
X128061422Y-122696125D01*
X129606128Y-121291846D01*
X129644825Y-121267942D01*
X129689539Y-121259600D01*
X129822400Y-121259600D01*
X129884400Y-121276213D01*
G37*
%TD.AperFunction*%
%TD*%
%TA.AperFunction,Conductor*%
%TO.N,GND*%
G36*
X158281600Y-81804613D02*
G01*
X158326987Y-81850000D01*
X158343600Y-81912000D01*
X158343600Y-83797600D01*
X158326987Y-83859600D01*
X158281600Y-83904987D01*
X158219600Y-83921600D01*
X156232400Y-83921600D01*
X156170400Y-83904987D01*
X156125013Y-83859600D01*
X156108400Y-83797600D01*
X156108400Y-81912000D01*
X156125013Y-81850000D01*
X156170400Y-81804613D01*
X156232400Y-81788000D01*
X158219600Y-81788000D01*
X158281600Y-81804613D01*
G37*
%TD.AperFunction*%
%TD*%
%TA.AperFunction,Conductor*%
%TO.N,Net-(IC1-SS)*%
G36*
X117072171Y-131588381D02*
G01*
X117150818Y-131604024D01*
X117195508Y-131622535D01*
X117251826Y-131660166D01*
X117286033Y-131694373D01*
X117323662Y-131750688D01*
X117342176Y-131795387D01*
X117357817Y-131874020D01*
X117360200Y-131898211D01*
X117360200Y-133051789D01*
X117357817Y-133075980D01*
X117342176Y-133154612D01*
X117323662Y-133199311D01*
X117286036Y-133255623D01*
X117251823Y-133289836D01*
X117195511Y-133327462D01*
X117150812Y-133345976D01*
X117072180Y-133361617D01*
X117047989Y-133364000D01*
X116656411Y-133364000D01*
X116632220Y-133361617D01*
X116553587Y-133345976D01*
X116508889Y-133327462D01*
X116452573Y-133289833D01*
X116418366Y-133255626D01*
X116380735Y-133199308D01*
X116362224Y-133154618D01*
X116346581Y-133075971D01*
X116344200Y-133051789D01*
X116344200Y-131898211D01*
X116346581Y-131874028D01*
X116362225Y-131795379D01*
X116380734Y-131750693D01*
X116418368Y-131694370D01*
X116452570Y-131660168D01*
X116508893Y-131622534D01*
X116553579Y-131604025D01*
X116632228Y-131588381D01*
X116656411Y-131586000D01*
X117047989Y-131586000D01*
X117072171Y-131588381D01*
G37*
%TD.AperFunction*%
%TD*%
%TA.AperFunction,Conductor*%
%TO.N,GND*%
G36*
X133180685Y-138739732D02*
G01*
X133212968Y-138764503D01*
X133225164Y-138775199D01*
X134554999Y-140105034D01*
X134565694Y-140117229D01*
X134584917Y-140142282D01*
X134631777Y-140178238D01*
X134710359Y-140238536D01*
X134856438Y-140299044D01*
X134981898Y-140315561D01*
X135013199Y-140319682D01*
X135013199Y-140319681D01*
X135013200Y-140319682D01*
X135044502Y-140315560D01*
X135060687Y-140314500D01*
X142847839Y-140314500D01*
X142926561Y-140314500D01*
X143139327Y-140314500D01*
X143201568Y-140331252D01*
X143246991Y-140376982D01*
X143263324Y-140439334D01*
X143259332Y-141033069D01*
X143246300Y-141087576D01*
X143210601Y-141130779D01*
X143159527Y-141153852D01*
X143093261Y-141167033D01*
X143010399Y-141222399D01*
X142955033Y-141305261D01*
X142940500Y-141378325D01*
X142940500Y-142927676D01*
X142944421Y-142947388D01*
X142944421Y-142995770D01*
X142928000Y-143078324D01*
X142928000Y-143827675D01*
X142942533Y-143900738D01*
X142942533Y-143900739D01*
X142942534Y-143900740D01*
X142997899Y-143983601D01*
X143080760Y-144038966D01*
X143107386Y-144044262D01*
X143156192Y-144053971D01*
X143207487Y-144077213D01*
X143243212Y-144120745D01*
X143256000Y-144175588D01*
X143256000Y-146569325D01*
X143239397Y-146631308D01*
X143194034Y-146676693D01*
X143132058Y-146693325D01*
X137674307Y-146695885D01*
X137612463Y-146679396D01*
X137567081Y-146634263D01*
X137550251Y-146572511D01*
X137537176Y-143983600D01*
X137527800Y-142127000D01*
X136912736Y-142127000D01*
X136888544Y-142124617D01*
X136872875Y-142121500D01*
X136872874Y-142121500D01*
X134423526Y-142121500D01*
X134423525Y-142121500D01*
X134407856Y-142124617D01*
X134383664Y-142127000D01*
X133105200Y-142127000D01*
X133043200Y-142110387D01*
X132997813Y-142065000D01*
X132981200Y-142003000D01*
X132981200Y-138838109D01*
X132999899Y-138772629D01*
X133050356Y-138726897D01*
X133117353Y-138714706D01*
X133180685Y-138739732D01*
G37*
%TD.AperFunction*%
%TD*%
%TA.AperFunction,Conductor*%
%TO.N,GND*%
G36*
X150739641Y-138939527D02*
G01*
X150834207Y-138954504D01*
X150871102Y-138966491D01*
X150947617Y-139005477D01*
X150979002Y-139028281D01*
X151039718Y-139088997D01*
X151062522Y-139120383D01*
X151101507Y-139196895D01*
X151113495Y-139233792D01*
X151128473Y-139328358D01*
X151130000Y-139347756D01*
X151130000Y-141065072D01*
X151118095Y-141118089D01*
X151084665Y-141160925D01*
X151036129Y-141185356D01*
X150981808Y-141186689D01*
X150960749Y-141182500D01*
X150960748Y-141182500D01*
X149486446Y-141182500D01*
X149479236Y-141182290D01*
X149417065Y-141178668D01*
X149406023Y-141180616D01*
X149384490Y-141182500D01*
X148921251Y-141182500D01*
X148862769Y-141194132D01*
X148796447Y-141238447D01*
X148752132Y-141304769D01*
X148740500Y-141363251D01*
X148740500Y-141704209D01*
X148737156Y-141732806D01*
X148710500Y-141845279D01*
X148710500Y-142376709D01*
X148725759Y-142507255D01*
X148733022Y-142527209D01*
X148740500Y-142569620D01*
X148740500Y-142902749D01*
X148752132Y-142961230D01*
X148752133Y-142961231D01*
X148796448Y-143027552D01*
X148798463Y-143028898D01*
X148840056Y-143075706D01*
X148853475Y-143136869D01*
X148835298Y-143196790D01*
X148790160Y-143240190D01*
X148729571Y-143256000D01*
X148211116Y-143256000D01*
X148158099Y-143244095D01*
X148115262Y-143210664D01*
X148090832Y-143162129D01*
X148089499Y-143107808D01*
X148091500Y-143097749D01*
X148091500Y-141408251D01*
X148079867Y-141349769D01*
X148035552Y-141283447D01*
X147969230Y-141239132D01*
X147910749Y-141227500D01*
X147910748Y-141227500D01*
X147471252Y-141227500D01*
X147467409Y-141227500D01*
X147407070Y-141211829D01*
X147361981Y-141168777D01*
X147343541Y-141109225D01*
X147341632Y-141067921D01*
X147341500Y-141062196D01*
X147341500Y-141043178D01*
X147339817Y-141028680D01*
X147338585Y-141002009D01*
X147335786Y-140995671D01*
X147327332Y-140968367D01*
X147326061Y-140961568D01*
X147326061Y-140961567D01*
X147320000Y-140951778D01*
X147320000Y-138938000D01*
X147732198Y-138938000D01*
X150720244Y-138938000D01*
X150739641Y-138939527D01*
G37*
%TD.AperFunction*%
%TD*%
%TA.AperFunction,Conductor*%
%TO.N,GND*%
G36*
X124336571Y-140071981D02*
G01*
X124415218Y-140087624D01*
X124459908Y-140106135D01*
X124516226Y-140143766D01*
X124550433Y-140177973D01*
X124588062Y-140234288D01*
X124606576Y-140278987D01*
X124622217Y-140357620D01*
X124624600Y-140381811D01*
X124624600Y-140581311D01*
X124623539Y-140597497D01*
X124602749Y-140755400D01*
X124623539Y-140913303D01*
X124624600Y-140929489D01*
X124624600Y-141343311D01*
X124623539Y-141359497D01*
X124602749Y-141517399D01*
X124623539Y-141675303D01*
X124624600Y-141691489D01*
X124624600Y-142736600D01*
X126141189Y-142736600D01*
X126165371Y-142738981D01*
X126244018Y-142754624D01*
X126288708Y-142773135D01*
X126345026Y-142810766D01*
X126379233Y-142844973D01*
X126416862Y-142901288D01*
X126435376Y-142945987D01*
X126451017Y-143024620D01*
X126453400Y-143048811D01*
X126453400Y-143697226D01*
X126451045Y-143721277D01*
X126435584Y-143799477D01*
X126417280Y-143843958D01*
X126380061Y-143900081D01*
X126346206Y-143934251D01*
X126290431Y-143971987D01*
X126246121Y-143990702D01*
X126168069Y-144006886D01*
X126144041Y-144009464D01*
X125565179Y-144014823D01*
X125394928Y-144016400D01*
X123882695Y-144030401D01*
X123862286Y-144028902D01*
X123795356Y-144018377D01*
X123756645Y-144005495D01*
X123705960Y-143978688D01*
X123673530Y-143953946D01*
X123627161Y-143904554D01*
X123614433Y-143888529D01*
X122830278Y-142713764D01*
X121412000Y-140589000D01*
X121779800Y-140069600D01*
X123373715Y-140069600D01*
X124312389Y-140069600D01*
X124336571Y-140071981D01*
G37*
%TD.AperFunction*%
%TD*%
%TA.AperFunction,Conductor*%
%TO.N,+BATT*%
G36*
X114642400Y-138647200D02*
G01*
X110924926Y-138647200D01*
X110892831Y-138642974D01*
X110864491Y-138635380D01*
X110808905Y-138603287D01*
X110800112Y-138594494D01*
X110768019Y-138538908D01*
X110764800Y-138526895D01*
X110764799Y-138462708D01*
X110768018Y-138450694D01*
X110800110Y-138395107D01*
X110808907Y-138386310D01*
X110864491Y-138354218D01*
X110892837Y-138346623D01*
X110924926Y-138342400D01*
X111295713Y-138342400D01*
X111330646Y-138347422D01*
X111377228Y-138361100D01*
X111506772Y-138361100D01*
X111553353Y-138347422D01*
X111588287Y-138342400D01*
X111675913Y-138342400D01*
X111772200Y-138342400D01*
X113793308Y-137533957D01*
X114217329Y-137364348D01*
X114228435Y-137360507D01*
X114302596Y-137338749D01*
X114325700Y-137334299D01*
X114402630Y-137326959D01*
X114414390Y-137326400D01*
X114667800Y-137326400D01*
X114642400Y-138647200D01*
G37*
%TD.AperFunction*%
%TD*%
%TA.AperFunction,Conductor*%
%TO.N,+BATT*%
G36*
X128933971Y-140376781D02*
G01*
X129012618Y-140392424D01*
X129057308Y-140410935D01*
X129113626Y-140448566D01*
X129147833Y-140482773D01*
X129185462Y-140539088D01*
X129203976Y-140583787D01*
X129219617Y-140662420D01*
X129222000Y-140686611D01*
X129222000Y-142787400D01*
X132778000Y-142787400D01*
X132778000Y-144311400D01*
X126936000Y-144311400D01*
X126936000Y-140686611D01*
X126938381Y-140662428D01*
X126954025Y-140583779D01*
X126972534Y-140539093D01*
X127010168Y-140482770D01*
X127044370Y-140448568D01*
X127100693Y-140410934D01*
X127145379Y-140392425D01*
X127224028Y-140376781D01*
X127248211Y-140374400D01*
X128909789Y-140374400D01*
X128933971Y-140376781D01*
G37*
%TD.AperFunction*%
%TD*%
%TA.AperFunction,Conductor*%
%TO.N,5V_Conv*%
G36*
X136960371Y-130089781D02*
G01*
X137039018Y-130105424D01*
X137083708Y-130123935D01*
X137140026Y-130161566D01*
X137174233Y-130195773D01*
X137211862Y-130252088D01*
X137230376Y-130296787D01*
X137246017Y-130375420D01*
X137248400Y-130399611D01*
X137248400Y-131451589D01*
X137246017Y-131475780D01*
X137230376Y-131554412D01*
X137211862Y-131599111D01*
X137174236Y-131655423D01*
X137140023Y-131689636D01*
X137083711Y-131727262D01*
X137039012Y-131745776D01*
X136960380Y-131761417D01*
X136936189Y-131763800D01*
X128714000Y-131763800D01*
X128714000Y-132094000D01*
X134116789Y-132094000D01*
X134140971Y-132096381D01*
X134219618Y-132112024D01*
X134264308Y-132130535D01*
X134320626Y-132168166D01*
X134354833Y-132202373D01*
X134392462Y-132258688D01*
X134410976Y-132303387D01*
X134426617Y-132382020D01*
X134429000Y-132406211D01*
X134429000Y-134448789D01*
X134426617Y-134472980D01*
X134410976Y-134551612D01*
X134392462Y-134596311D01*
X134354836Y-134652623D01*
X134320623Y-134686836D01*
X134264311Y-134724462D01*
X134219612Y-134742976D01*
X134140980Y-134758617D01*
X134116789Y-134761000D01*
X127146611Y-134761000D01*
X127122420Y-134758617D01*
X127043787Y-134742976D01*
X126999089Y-134724462D01*
X126942773Y-134686833D01*
X126908566Y-134652626D01*
X126870935Y-134596308D01*
X126852424Y-134551618D01*
X126836781Y-134472971D01*
X126834400Y-134448789D01*
X126834400Y-130399611D01*
X126836781Y-130375428D01*
X126852425Y-130296779D01*
X126870934Y-130252093D01*
X126908568Y-130195770D01*
X126942773Y-130161566D01*
X126983437Y-130134395D01*
X127016331Y-130118839D01*
X127052325Y-130113500D01*
X135673768Y-130113500D01*
X135691331Y-130112993D01*
X135691330Y-130112993D01*
X135691366Y-130112992D01*
X135705650Y-130112167D01*
X135723235Y-130110640D01*
X135734191Y-130109369D01*
X135738875Y-130108826D01*
X135753161Y-130108000D01*
X136670174Y-130108000D01*
X136694108Y-130107060D01*
X136694121Y-130107059D01*
X136713518Y-130105533D01*
X136713523Y-130105532D01*
X136713528Y-130105532D01*
X136717350Y-130105079D01*
X136737346Y-130102713D01*
X136797197Y-130093234D01*
X136799198Y-130092753D01*
X136807229Y-130090826D01*
X136836174Y-130087400D01*
X136936189Y-130087400D01*
X136960371Y-130089781D01*
G37*
%TD.AperFunction*%
%TD*%
%TA.AperFunction,Conductor*%
%TO.N,+6V*%
G36*
X104254570Y-136180524D02*
G01*
X104256951Y-136204706D01*
X104261350Y-136234368D01*
X104276993Y-136313015D01*
X104276994Y-136313020D01*
X104276996Y-136313027D01*
X104279200Y-136320293D01*
X104279200Y-136500900D01*
X104279200Y-136500903D01*
X104279200Y-138199907D01*
X104278603Y-138212061D01*
X104261182Y-138388934D01*
X104256440Y-138412775D01*
X104206624Y-138576998D01*
X104197321Y-138599456D01*
X104116427Y-138750798D01*
X104102922Y-138771010D01*
X103994054Y-138903666D01*
X103976866Y-138920854D01*
X103844210Y-139029722D01*
X103823998Y-139043227D01*
X103672656Y-139124121D01*
X103650198Y-139133424D01*
X103485975Y-139183240D01*
X103462134Y-139187982D01*
X103285261Y-139205403D01*
X103273107Y-139206000D01*
X102618293Y-139206000D01*
X102606139Y-139205403D01*
X102429265Y-139187982D01*
X102405424Y-139183240D01*
X102241201Y-139133424D01*
X102218743Y-139124121D01*
X102067401Y-139043227D01*
X102047189Y-139029722D01*
X101914533Y-138920854D01*
X101897345Y-138903666D01*
X101788477Y-138771010D01*
X101774972Y-138750798D01*
X101694078Y-138599456D01*
X101684775Y-138576998D01*
X101634957Y-138412769D01*
X101630218Y-138388941D01*
X101612797Y-138212061D01*
X101612200Y-138199907D01*
X101612200Y-137087268D01*
X101612601Y-137077305D01*
X101613913Y-137061022D01*
X101624310Y-136932047D01*
X101627499Y-136912399D01*
X101662327Y-136770884D01*
X101665088Y-136761334D01*
X101751900Y-136500900D01*
X101866200Y-136158000D01*
X104253464Y-136158000D01*
X104254570Y-136180524D01*
G37*
%TD.AperFunction*%
%TD*%
%TA.AperFunction,Conductor*%
%TO.N,+3.3V*%
G36*
X139712200Y-132094000D02*
G01*
X139727140Y-132147119D01*
X140839108Y-136100788D01*
X140841127Y-136109042D01*
X140849708Y-136150184D01*
X140852029Y-136167006D01*
X140854909Y-136208940D01*
X140855200Y-136217436D01*
X140855200Y-138034244D01*
X140853673Y-138053642D01*
X140838695Y-138148207D01*
X140826707Y-138185104D01*
X140787722Y-138261616D01*
X140764918Y-138293002D01*
X140704202Y-138353718D01*
X140672816Y-138376522D01*
X140596304Y-138415507D01*
X140559407Y-138427495D01*
X140479625Y-138440131D01*
X140464840Y-138442473D01*
X140445444Y-138444000D01*
X137200956Y-138444000D01*
X137181559Y-138442473D01*
X137162458Y-138439447D01*
X137086992Y-138427495D01*
X137050095Y-138415507D01*
X136973583Y-138376522D01*
X136942197Y-138353718D01*
X136881481Y-138293002D01*
X136858677Y-138261616D01*
X136819692Y-138185104D01*
X136807704Y-138148206D01*
X136792727Y-138053641D01*
X136791200Y-138034244D01*
X136791200Y-136217436D01*
X136791491Y-136208943D01*
X136794370Y-136167009D01*
X136796691Y-136150184D01*
X136805272Y-136109042D01*
X136807291Y-136100788D01*
X137919260Y-132147119D01*
X137934200Y-132094000D01*
X137934200Y-129935000D01*
X139712200Y-129935000D01*
X139712200Y-132094000D01*
G37*
%TD.AperFunction*%
%TD*%
%TA.AperFunction,Conductor*%
%TO.N,+6V*%
G36*
X119293882Y-125507541D02*
G01*
X119320943Y-125513717D01*
X119455633Y-125560848D01*
X119480643Y-125572891D01*
X119601471Y-125648812D01*
X119623180Y-125666125D01*
X119724074Y-125767019D01*
X119741387Y-125788728D01*
X119817306Y-125909553D01*
X119829353Y-125934570D01*
X119876480Y-126069250D01*
X119882659Y-126096321D01*
X119899420Y-126245077D01*
X119900200Y-126258961D01*
X119900200Y-127777366D01*
X119899972Y-127784881D01*
X119893311Y-127894589D01*
X119891493Y-127909507D01*
X119871607Y-128017614D01*
X119870023Y-128024963D01*
X119479666Y-129602655D01*
X119476309Y-129613909D01*
X119419533Y-129775802D01*
X119409708Y-129797109D01*
X119326431Y-129940290D01*
X119312770Y-129959364D01*
X119204007Y-130084304D01*
X119186996Y-130100464D01*
X119056651Y-130202676D01*
X119036902Y-130215342D01*
X118889631Y-130291175D01*
X118867849Y-130299894D01*
X118708940Y-130346627D01*
X118685905Y-130351088D01*
X118587543Y-130360611D01*
X118515145Y-130367621D01*
X118503433Y-130368197D01*
X105384488Y-130391500D01*
X104870811Y-130391500D01*
X104840877Y-130392970D01*
X104816694Y-130395351D01*
X104816687Y-130395351D01*
X104816687Y-130395352D01*
X104787033Y-130399750D01*
X104708375Y-130415396D01*
X104651076Y-130432777D01*
X104606379Y-130451291D01*
X104553568Y-130479518D01*
X104497241Y-130517154D01*
X104450948Y-130555147D01*
X104416747Y-130589348D01*
X104378754Y-130635641D01*
X104341118Y-130691968D01*
X104312891Y-130744779D01*
X104294377Y-130789476D01*
X104276996Y-130846775D01*
X104276995Y-130846779D01*
X104276995Y-130846780D01*
X104261351Y-130925429D01*
X104256951Y-130955094D01*
X104254570Y-130979277D01*
X104254570Y-130979279D01*
X104253100Y-131009219D01*
X104253100Y-136150581D01*
X104253464Y-136158000D01*
X101866200Y-136158000D01*
X101866200Y-129855171D01*
X101866822Y-129842762D01*
X101885043Y-129661897D01*
X101890000Y-129637552D01*
X101942070Y-129469950D01*
X101951781Y-129447086D01*
X102036234Y-129293241D01*
X102050318Y-129272762D01*
X102089761Y-129226201D01*
X102163759Y-129138854D01*
X102181642Y-129121599D01*
X102265599Y-129055474D01*
X102324431Y-129009139D01*
X102334581Y-129001939D01*
X103012601Y-128570472D01*
X103022735Y-128564677D01*
X103175048Y-128486871D01*
X103196774Y-128478247D01*
X103355345Y-128432071D01*
X103378302Y-128427682D01*
X103524736Y-128413810D01*
X103548565Y-128411553D01*
X103560259Y-128411000D01*
X117376199Y-128411000D01*
X117376200Y-128411000D01*
X118376200Y-128411000D01*
X118376200Y-126258961D01*
X118376980Y-126245078D01*
X118378497Y-126231607D01*
X118393741Y-126096315D01*
X118399917Y-126069258D01*
X118447049Y-125934562D01*
X118459089Y-125909559D01*
X118535015Y-125788724D01*
X118552321Y-125767023D01*
X118653223Y-125666121D01*
X118674924Y-125648815D01*
X118795759Y-125572889D01*
X118820762Y-125560849D01*
X118955458Y-125513717D01*
X118982515Y-125507541D01*
X119124319Y-125491564D01*
X119152081Y-125491564D01*
X119293882Y-125507541D01*
G37*
%TD.AperFunction*%
%TD*%
%TA.AperFunction,Conductor*%
%TO.N,+BATT*%
G36*
X115033132Y-137328248D02*
G01*
X115153190Y-137347336D01*
X115197676Y-137361850D01*
X115295277Y-137411801D01*
X115333067Y-137439395D01*
X115418769Y-137525610D01*
X115433952Y-137543506D01*
X117820911Y-140853722D01*
X117969800Y-141060200D01*
X118224348Y-141061277D01*
X118224349Y-141061278D01*
X118224350Y-141061278D01*
X118224353Y-141061279D01*
X120905324Y-141072638D01*
X121289550Y-141074266D01*
X121359466Y-141092024D01*
X121412847Y-141140543D01*
X122890880Y-143354826D01*
X122904610Y-143380527D01*
X122931664Y-143445842D01*
X123033397Y-143578422D01*
X123056857Y-143603482D01*
X123186404Y-143797560D01*
X123342893Y-144032000D01*
X121932200Y-144032000D01*
X121932200Y-146703269D01*
X119043937Y-146704624D01*
X118979070Y-146689797D01*
X118927128Y-146648213D01*
X117163772Y-144424851D01*
X117002338Y-144221304D01*
X117002336Y-144221302D01*
X116852200Y-144032000D01*
X116610588Y-144032000D01*
X114821963Y-144032000D01*
X114802516Y-144030725D01*
X114769435Y-144026370D01*
X114702238Y-144017523D01*
X114664667Y-144007456D01*
X114580322Y-143972519D01*
X114546637Y-143953071D01*
X114474205Y-143897491D01*
X114446708Y-143869994D01*
X114391127Y-143797560D01*
X114371680Y-143763877D01*
X114336743Y-143679532D01*
X114326676Y-143641960D01*
X114318311Y-143578422D01*
X114313474Y-143541684D01*
X114312200Y-143522237D01*
X114312200Y-139147197D01*
X114312200Y-138647200D01*
X114642400Y-138647200D01*
X114667800Y-137326400D01*
X115009736Y-137326400D01*
X115033132Y-137328248D01*
G37*
%TD.AperFunction*%
%TD*%
%TA.AperFunction,Conductor*%
%TO.N,+BATT*%
G36*
X137009389Y-142385184D02*
G01*
X137088412Y-142400461D01*
X137133365Y-142418838D01*
X137190035Y-142456389D01*
X137224481Y-142490624D01*
X137253642Y-142534048D01*
X137269227Y-142566746D01*
X137274698Y-142602552D01*
X137294742Y-146571495D01*
X137278349Y-146633742D01*
X137232958Y-146679384D01*
X137170802Y-146696121D01*
X129318312Y-146699804D01*
X121932200Y-146703269D01*
X121932200Y-144032000D01*
X123342893Y-144032000D01*
X123360339Y-144058136D01*
X123365144Y-144064727D01*
X123375222Y-144078553D01*
X123387932Y-144094555D01*
X123404430Y-144113652D01*
X123437868Y-144149269D01*
X123450800Y-144163044D01*
X123488225Y-144196830D01*
X123520655Y-144221572D01*
X123563129Y-144248743D01*
X123607346Y-144272129D01*
X123613818Y-144275552D01*
X123660182Y-144295366D01*
X123698887Y-144308246D01*
X123698890Y-144308246D01*
X123698894Y-144308248D01*
X123747898Y-144320168D01*
X123814828Y-144330693D01*
X123839908Y-144333581D01*
X123860317Y-144335080D01*
X123885523Y-144335888D01*
X126146869Y-144314951D01*
X126176632Y-144313221D01*
X126200660Y-144310643D01*
X126230095Y-144306023D01*
X126308147Y-144289839D01*
X126364986Y-144272129D01*
X126409296Y-144253414D01*
X126461624Y-144225015D01*
X126517399Y-144187279D01*
X126563225Y-144149269D01*
X126597080Y-144115099D01*
X126634663Y-144068925D01*
X126634662Y-144068925D01*
X126638487Y-144064227D01*
X126639101Y-144064727D01*
X126668407Y-144035264D01*
X126676267Y-144032000D01*
X126936000Y-144032000D01*
X126936000Y-144311400D01*
X132778000Y-144311400D01*
X132778000Y-142787400D01*
X129222000Y-142787400D01*
X129222000Y-142430706D01*
X132558202Y-142410175D01*
X136985099Y-142382933D01*
X137009389Y-142385184D01*
G37*
%TD.AperFunction*%
%TD*%
%TA.AperFunction,Conductor*%
%TO.N,GND*%
G36*
X148047971Y-87378381D02*
G01*
X148126618Y-87394024D01*
X148171308Y-87412535D01*
X148227626Y-87450166D01*
X148261833Y-87484373D01*
X148299462Y-87540688D01*
X148317976Y-87585387D01*
X148333617Y-87664020D01*
X148336000Y-87688211D01*
X148336000Y-89103200D01*
X159575500Y-89103200D01*
X159637500Y-89119813D01*
X159682887Y-89165200D01*
X159699500Y-89227200D01*
X159699500Y-89995200D01*
X159682887Y-90057200D01*
X159637500Y-90102587D01*
X159575500Y-90119200D01*
X147632211Y-90119200D01*
X147608020Y-90116817D01*
X147529387Y-90101176D01*
X147484689Y-90082662D01*
X147428373Y-90045033D01*
X147394166Y-90010826D01*
X147356535Y-89954508D01*
X147338024Y-89909818D01*
X147322381Y-89831171D01*
X147320000Y-89806989D01*
X147320000Y-87688211D01*
X147322381Y-87664028D01*
X147338025Y-87585379D01*
X147356534Y-87540693D01*
X147394168Y-87484370D01*
X147428370Y-87450168D01*
X147484693Y-87412534D01*
X147529379Y-87394025D01*
X147608028Y-87378381D01*
X147632211Y-87376000D01*
X148023789Y-87376000D01*
X148047971Y-87378381D01*
G37*
%TD.AperFunction*%
%TD*%
%TA.AperFunction,Conductor*%
%TO.N,GND*%
G36*
X159637500Y-79569413D02*
G01*
X159682887Y-79614800D01*
X159699500Y-79676800D01*
X159699500Y-80444800D01*
X159682887Y-80506800D01*
X159637500Y-80552187D01*
X159575500Y-80568800D01*
X148336000Y-80568800D01*
X148336000Y-82629200D01*
X148319387Y-82691200D01*
X148274000Y-82736587D01*
X148212000Y-82753200D01*
X147444000Y-82753200D01*
X147382000Y-82736587D01*
X147336613Y-82691200D01*
X147320000Y-82629200D01*
X147320000Y-79676800D01*
X147336613Y-79614800D01*
X147382000Y-79569413D01*
X147444000Y-79552800D01*
X159575500Y-79552800D01*
X159637500Y-79569413D01*
G37*
%TD.AperFunction*%
%TD*%
M02*
