%TF.GenerationSoftware,KiCad,Pcbnew,7.0.1*%
%TF.CreationDate,2023-10-06T11:10:41+02:00*%
%TF.ProjectId,Drv_board,4472765f-626f-4617-9264-2e6b69636164,rev?*%
%TF.SameCoordinates,Original*%
%TF.FileFunction,Copper,L4,Bot*%
%TF.FilePolarity,Positive*%
%FSLAX46Y46*%
G04 Gerber Fmt 4.6, Leading zero omitted, Abs format (unit mm)*
G04 Created by KiCad (PCBNEW 7.0.1) date 2023-10-06 11:10:41*
%MOMM*%
%LPD*%
G01*
G04 APERTURE LIST*
G04 Aperture macros list*
%AMRoundRect*
0 Rectangle with rounded corners*
0 $1 Rounding radius*
0 $2 $3 $4 $5 $6 $7 $8 $9 X,Y pos of 4 corners*
0 Add a 4 corners polygon primitive as box body*
4,1,4,$2,$3,$4,$5,$6,$7,$8,$9,$2,$3,0*
0 Add four circle primitives for the rounded corners*
1,1,$1+$1,$2,$3*
1,1,$1+$1,$4,$5*
1,1,$1+$1,$6,$7*
1,1,$1+$1,$8,$9*
0 Add four rect primitives between the rounded corners*
20,1,$1+$1,$2,$3,$4,$5,0*
20,1,$1+$1,$4,$5,$6,$7,0*
20,1,$1+$1,$6,$7,$8,$9,0*
20,1,$1+$1,$8,$9,$2,$3,0*%
G04 Aperture macros list end*
%TA.AperFunction,ComponentPad*%
%ADD10R,1.500000X1.500000*%
%TD*%
%TA.AperFunction,ComponentPad*%
%ADD11C,1.500000*%
%TD*%
%TA.AperFunction,ComponentPad*%
%ADD12R,1.350000X1.350000*%
%TD*%
%TA.AperFunction,ComponentPad*%
%ADD13O,1.350000X1.350000*%
%TD*%
%TA.AperFunction,ComponentPad*%
%ADD14O,1.350000X1.700000*%
%TD*%
%TA.AperFunction,ComponentPad*%
%ADD15O,1.100000X1.500000*%
%TD*%
%TA.AperFunction,ComponentPad*%
%ADD16RoundRect,0.250000X0.685000X-0.335000X0.685000X0.335000X-0.685000X0.335000X-0.685000X-0.335000X0*%
%TD*%
%TA.AperFunction,ComponentPad*%
%ADD17O,1.870000X1.170000*%
%TD*%
%TA.AperFunction,ComponentPad*%
%ADD18RoundRect,0.250000X0.600000X-0.600000X0.600000X0.600000X-0.600000X0.600000X-0.600000X-0.600000X0*%
%TD*%
%TA.AperFunction,ComponentPad*%
%ADD19C,1.700000*%
%TD*%
%TA.AperFunction,ComponentPad*%
%ADD20R,2.400000X2.400000*%
%TD*%
%TA.AperFunction,ComponentPad*%
%ADD21C,2.400000*%
%TD*%
%TA.AperFunction,ComponentPad*%
%ADD22R,1.700000X1.700000*%
%TD*%
%TA.AperFunction,ComponentPad*%
%ADD23O,1.700000X1.700000*%
%TD*%
%TA.AperFunction,ComponentPad*%
%ADD24RoundRect,0.250000X-0.685000X0.335000X-0.685000X-0.335000X0.685000X-0.335000X0.685000X0.335000X0*%
%TD*%
%TA.AperFunction,SMDPad,CuDef*%
%ADD25R,1.500000X1.000000*%
%TD*%
%TA.AperFunction,SMDPad,CuDef*%
%ADD26R,1.000000X1.500000*%
%TD*%
%TA.AperFunction,ViaPad*%
%ADD27C,0.600000*%
%TD*%
%TA.AperFunction,ViaPad*%
%ADD28C,0.500000*%
%TD*%
%TA.AperFunction,Conductor*%
%ADD29C,0.500000*%
%TD*%
%TA.AperFunction,Conductor*%
%ADD30C,0.300000*%
%TD*%
%TA.AperFunction,Conductor*%
%ADD31C,1.000000*%
%TD*%
%TA.AperFunction,Conductor*%
%ADD32C,0.250000*%
%TD*%
G04 APERTURE END LIST*
D10*
%TO.P,J5,1,Pin_1*%
%TO.N,+5V*%
X138294000Y-72560000D03*
D11*
%TO.P,J5,2,Pin_2*%
%TO.N,SRF-05_TRIG*%
X140294000Y-72560000D03*
%TO.P,J5,3,Pin_3*%
%TO.N,SRF-05_ECHO*%
X142294000Y-72560000D03*
%TO.P,J5,4,Pin_4*%
%TO.N,SRF-05_IN*%
X144294000Y-72560000D03*
%TO.P,J5,5,Pin_5*%
%TO.N,GND*%
X146294000Y-72560000D03*
%TD*%
D12*
%TO.P,J7,1,Pin_1*%
%TO.N,+3.3V*%
X145542000Y-113410000D03*
D13*
%TO.P,J7,2,Pin_2*%
%TO.N,SWDIO*%
X143542000Y-113410000D03*
%TO.P,J7,3,Pin_3*%
%TO.N,GND*%
X145542000Y-111410000D03*
%TO.P,J7,4,Pin_4*%
%TO.N,SWCLK*%
X143542000Y-111410000D03*
%TO.P,J7,5,Pin_5*%
%TO.N,GND*%
X145542000Y-109410000D03*
%TO.P,J7,6,Pin_6*%
%TO.N,SWO*%
X143542000Y-109410000D03*
%TO.P,J7,7,Pin_7*%
%TO.N,unconnected-(J7-Pin_7-Pad7)*%
X145542000Y-107410000D03*
%TO.P,J7,8,Pin_8*%
%TO.N,unconnected-(J7-Pin_8-Pad8)*%
X143542000Y-107410000D03*
%TO.P,J7,9,Pin_9*%
%TO.N,GND*%
X145542000Y-105410000D03*
%TO.P,J7,10,Pin_10*%
%TO.N,NRST*%
X143542000Y-105410000D03*
%TD*%
D14*
%TO.P,J1,6,Shield*%
%TO.N,unconnected-(J1-Shield-Pad6)*%
X144311000Y-145133000D03*
D15*
X144621000Y-142133000D03*
X149461000Y-142133000D03*
D14*
X149771000Y-145133000D03*
%TD*%
D16*
%TO.P,J8,1,Pin_1*%
%TO.N,A2*%
X104000000Y-126940000D03*
D17*
%TO.P,J8,2,Pin_2*%
%TO.N,GND*%
X104000000Y-125440000D03*
%TO.P,J8,3,Pin_3*%
%TO.N,ENC_A_1*%
X104000000Y-123940000D03*
%TO.P,J8,4,Pin_4*%
%TO.N,ENC_A_2*%
X104000000Y-122440000D03*
%TO.P,J8,5,Pin_5*%
%TO.N,+3.3V*%
X104000000Y-120940000D03*
%TO.P,J8,6,Pin_6*%
%TO.N,A1*%
X104000000Y-119440000D03*
%TD*%
D18*
%TO.P,J4,1,Pin_1*%
%TO.N,+3.3V*%
X116586000Y-77206500D03*
D19*
%TO.P,J4,2,Pin_2*%
%TO.N,GND*%
X116586000Y-74666500D03*
%TO.P,J4,3,Pin_3*%
%TO.N,QTR_CTRL*%
X119126000Y-77206500D03*
%TO.P,J4,4,Pin_4*%
%TO.N,unconnected-(J4-Pin_4-Pad4)*%
X119126000Y-74666500D03*
%TO.P,J4,5,Pin_5*%
%TO.N,QTR_4*%
X121666000Y-77206500D03*
%TO.P,J4,6,Pin_6*%
%TO.N,QTR_5*%
X121666000Y-74666500D03*
%TO.P,J4,7,Pin_7*%
%TO.N,QTR_2*%
X124206000Y-77206500D03*
%TO.P,J4,8,Pin_8*%
%TO.N,QTR_3*%
X124206000Y-74666500D03*
%TO.P,J4,9,Pin_9*%
%TO.N,QTR_0*%
X126746000Y-77206500D03*
%TO.P,J4,10,Pin_10*%
%TO.N,QTR_1*%
X126746000Y-74666500D03*
%TD*%
D20*
%TO.P,BT1,1,+*%
%TO.N,+BATT*%
X135648200Y-143572000D03*
D21*
%TO.P,BT1,2,-*%
%TO.N,GND*%
X139148200Y-143572000D03*
%TD*%
D22*
%TO.P,J11,1,Pin_1*%
%TO.N,EXT_USART_TX*%
X110998000Y-101087000D03*
D23*
%TO.P,J11,2,Pin_2*%
%TO.N,EXT_USART_RX*%
X113538000Y-101087000D03*
%TO.P,J11,3,Pin_3*%
%TO.N,KEEP_ALIVE*%
X110998000Y-103627000D03*
%TO.P,J11,4,Pin_4*%
%TO.N,Power_Btn*%
X113538000Y-103627000D03*
%TO.P,J11,5,Pin_5*%
%TO.N,EXT_PC3*%
X110998000Y-106167000D03*
%TO.P,J11,6,Pin_6*%
%TO.N,EXT_PC2*%
X113538000Y-106167000D03*
%TO.P,J11,7,Pin_7*%
%TO.N,EXT_PA4*%
X110998000Y-108707000D03*
%TO.P,J11,8,Pin_8*%
%TO.N,EXT_SPI_SCK*%
X113538000Y-108707000D03*
%TO.P,J11,9,Pin_9*%
%TO.N,EXT_SPI_MISO*%
X110998000Y-111247000D03*
%TO.P,J11,10,Pin_10*%
%TO.N,EXT_SPI_MOSI*%
X113538000Y-111247000D03*
%TO.P,J11,11,Pin_11*%
%TO.N,I2C_SCL*%
X110998000Y-113787000D03*
%TO.P,J11,12,Pin_12*%
%TO.N,I2C_SDA*%
X113538000Y-113787000D03*
%TO.P,J11,13,Pin_13*%
%TO.N,GND*%
X110998000Y-116327000D03*
%TO.P,J11,14,Pin_14*%
%TO.N,+3.3V*%
X113538000Y-116327000D03*
%TO.P,J11,15,Pin_15*%
%TO.N,GND*%
X110998000Y-118867000D03*
%TO.P,J11,16,Pin_16*%
%TO.N,+5V*%
X113538000Y-118867000D03*
%TD*%
D10*
%TO.P,J2,1,Pin_1*%
%TO.N,GND*%
X103040000Y-99212000D03*
D11*
%TO.P,J2,2,Pin_2*%
%TO.N,WS_LED_1*%
X103040000Y-97212000D03*
%TO.P,J2,3,Pin_3*%
%TO.N,+5V*%
X103040000Y-95212000D03*
%TO.P,J2,4,Pin_4*%
%TO.N,GND*%
X103040000Y-93212000D03*
%TD*%
D10*
%TO.P,J6,1,Pin_1*%
%TO.N,I2C_SDA*%
X103047800Y-111664000D03*
D11*
%TO.P,J6,2,Pin_2*%
%TO.N,I2C_SCL*%
X103047800Y-109664000D03*
%TO.P,J6,3,Pin_3*%
%TO.N,+3.3V*%
X103047800Y-107664000D03*
%TO.P,J6,4,Pin_4*%
%TO.N,GND*%
X103047800Y-105664000D03*
%TD*%
D24*
%TO.P,J9,1,Pin_1*%
%TO.N,B2*%
X156000000Y-119440000D03*
D17*
%TO.P,J9,2,Pin_2*%
%TO.N,GND*%
X156000000Y-120940000D03*
%TO.P,J9,3,Pin_3*%
%TO.N,ENC_B_1*%
X156000000Y-122440000D03*
%TO.P,J9,4,Pin_4*%
%TO.N,ENC_B_2*%
X156000000Y-123940000D03*
%TO.P,J9,5,Pin_5*%
%TO.N,+3.3V*%
X156000000Y-125440000D03*
%TO.P,J9,6,Pin_6*%
%TO.N,B1*%
X156000000Y-126940000D03*
%TD*%
D10*
%TO.P,J3,1,Pin_1*%
%TO.N,GND*%
X103040000Y-86766000D03*
D11*
%TO.P,J3,2,Pin_2*%
%TO.N,WS_LED_0*%
X103040000Y-84766000D03*
%TO.P,J3,3,Pin_3*%
%TO.N,+5V*%
X103040000Y-82766000D03*
%TO.P,J3,4,Pin_4*%
%TO.N,GND*%
X103040000Y-80766000D03*
%TD*%
D25*
%TO.P,JP2,1,A*%
%TO.N,+BATT*%
X135648200Y-136442000D03*
%TO.P,JP2,2,C*%
%TO.N,EN*%
X135648200Y-135142000D03*
%TO.P,JP2,3,B*%
%TO.N,LATCH_POWERUP*%
X135648200Y-133842000D03*
%TD*%
D26*
%TO.P,JP1,1,A*%
%TO.N,5V_Stab*%
X131923000Y-128905000D03*
%TO.P,JP1,2,C*%
%TO.N,+5V*%
X133223000Y-128905000D03*
%TO.P,JP1,3,B*%
%TO.N,5V_Conv*%
X134523000Y-128905000D03*
%TD*%
D25*
%TO.P,JP3,1,A*%
%TO.N,GND*%
X115074200Y-135645400D03*
%TO.P,JP3,2,C*%
%TO.N,Net-(IC1-FREQ)*%
X115074200Y-136945400D03*
%TO.P,JP3,3,B*%
%TO.N,+BATT*%
X115074200Y-138245400D03*
%TD*%
D26*
%TO.P,SW1,1,A*%
%TO.N,+3.3V*%
X142427000Y-118745000D03*
%TO.P,SW1,2,B*%
%TO.N,Net-(SW1-B)*%
X141127000Y-118745000D03*
%TO.P,SW1,3,C*%
%TO.N,GND*%
X139827000Y-118745000D03*
%TD*%
D27*
%TO.N,+BATT*%
X115074200Y-139206000D03*
D28*
X101092000Y-133096000D03*
D27*
X152666200Y-144286000D03*
X152666200Y-140222000D03*
X155194000Y-137160000D03*
X148602200Y-136158000D03*
X156730200Y-140222000D03*
%TO.N,GND*%
X116979200Y-135396000D03*
X124206000Y-89916000D03*
X156464000Y-82194400D03*
X148844000Y-140208000D03*
X134886200Y-141238000D03*
X151485600Y-101904800D03*
X158750000Y-89611200D03*
X141998200Y-144794000D03*
X143395200Y-131586000D03*
X146558000Y-131318000D03*
X147828000Y-89611200D03*
X141998200Y-143016000D03*
X139700000Y-79603600D03*
X131572000Y-85394800D03*
X143395200Y-128665000D03*
X158750000Y-80060800D03*
X151485600Y-92989400D03*
D28*
X129235200Y-118110000D03*
D27*
X146202400Y-77927200D03*
X150012400Y-89611200D03*
X141998200Y-141238000D03*
D28*
X110121200Y-135650000D03*
D27*
X122301000Y-113919000D03*
X151485600Y-110794800D03*
X156565600Y-89611200D03*
X111607600Y-126085600D03*
D28*
X118872000Y-92202000D03*
D27*
X134366000Y-106172000D03*
D28*
X130759200Y-118110000D03*
D27*
X132461000Y-87757000D03*
X140505534Y-88930474D03*
X125869200Y-135878600D03*
X144145000Y-93322000D03*
X156565600Y-80060800D03*
X120691467Y-85357340D03*
X106692200Y-135396000D03*
X139446000Y-96647000D03*
X155448000Y-132842000D03*
D28*
X111391200Y-135650000D03*
D27*
X143395200Y-130062000D03*
X123456200Y-143143000D03*
X147828000Y-82245200D03*
X127014500Y-115951000D03*
X117906800Y-86319500D03*
X151892000Y-132842000D03*
X156870400Y-93014800D03*
X138442200Y-141238000D03*
X139319000Y-113919000D03*
X131953000Y-119126000D03*
X138811000Y-90678000D03*
X122301000Y-116967000D03*
X147828000Y-80060800D03*
X113423200Y-135396000D03*
D28*
X123825000Y-85705250D03*
D27*
X147828000Y-87833200D03*
X135382000Y-113919000D03*
X157988000Y-82194400D03*
D28*
X102768400Y-117068600D03*
D27*
X157988000Y-87477600D03*
X147943000Y-100457000D03*
X146927000Y-96139000D03*
D28*
X128524000Y-85738200D03*
D27*
X146032841Y-98135398D03*
X124460000Y-113919000D03*
D28*
X117094000Y-100457000D03*
D27*
X140258800Y-95961200D03*
X123444000Y-116967000D03*
X131064000Y-106426000D03*
X140690600Y-90680400D03*
X131559000Y-87109000D03*
X152196800Y-80060800D03*
X140589000Y-97155000D03*
X154381200Y-89611200D03*
X156464000Y-87477600D03*
X131953000Y-117983000D03*
X106692200Y-133618000D03*
X156870400Y-110794800D03*
X154381200Y-80060800D03*
X134874000Y-94488000D03*
X123418600Y-113893600D03*
X138811000Y-118745000D03*
X136664200Y-141238000D03*
X120700800Y-87084200D03*
D28*
X151892000Y-86614000D03*
D27*
X146558000Y-136906000D03*
D28*
X130048000Y-118110000D03*
D27*
X116586000Y-126111000D03*
X150012400Y-80060800D03*
X156870400Y-101904800D03*
D28*
X145313233Y-83337233D03*
D27*
X129044200Y-135904000D03*
D28*
X151892000Y-88138000D03*
D27*
X145364200Y-92204400D03*
X127012200Y-137428000D03*
X136652000Y-108824500D03*
X152196800Y-89611200D03*
X108216200Y-135396000D03*
X137287000Y-113919000D03*
D28*
X153924000Y-81026000D03*
D27*
X134328497Y-101854000D03*
X143510000Y-81534000D03*
X141859000Y-102362000D03*
X125869200Y-137047000D03*
X140220200Y-141238000D03*
%TO.N,+3.3V*%
X143383000Y-118745000D03*
X146939000Y-103124000D03*
X140208000Y-105664000D03*
X131064000Y-104902000D03*
X139839200Y-127903000D03*
X135763000Y-79502000D03*
X131572000Y-83820000D03*
X134366000Y-87757000D03*
X137807200Y-127903000D03*
D28*
X116899500Y-93726000D03*
D27*
X139839200Y-126887000D03*
X134366000Y-91313000D03*
X138823200Y-127903000D03*
X141782800Y-79603600D03*
D28*
X117094000Y-101156500D03*
D27*
X138823200Y-126887000D03*
X135128000Y-101854000D03*
X141782800Y-78790800D03*
X120700800Y-83782200D03*
X143256000Y-94742000D03*
X146558000Y-81788000D03*
X148654000Y-108585000D03*
X136906000Y-105664000D03*
X129133600Y-88798400D03*
X137807200Y-126887000D03*
X138684000Y-88265000D03*
D28*
%TO.N,NRST*%
X129921000Y-93345000D03*
D27*
%TO.N,5V_Conv*%
X133985000Y-131394200D03*
X133985000Y-130505200D03*
X135001000Y-131394200D03*
X135001000Y-130505200D03*
%TO.N,+6V*%
X112776000Y-128905000D03*
X118973600Y-113919000D03*
X117856000Y-112928400D03*
X111760000Y-128905000D03*
X120015000Y-112928400D03*
X117856000Y-113944400D03*
X120015000Y-113944400D03*
X113792000Y-129921000D03*
X113792000Y-128905000D03*
X118973600Y-112928400D03*
X112776000Y-129921000D03*
X111760000Y-129921000D03*
%TO.N,5V_Stab*%
X131572000Y-127254000D03*
X130556000Y-126365000D03*
X130556000Y-127254000D03*
X131572000Y-126365000D03*
D28*
%TO.N,Net-(IC1-SS)*%
X116852200Y-131992400D03*
X112661200Y-137047000D03*
%TO.N,Power_Btn*%
X125476000Y-99441000D03*
X126365000Y-108966000D03*
X147718200Y-132242500D03*
%TO.N,EN*%
X125158000Y-140755400D03*
X110045000Y-133211600D03*
X125158000Y-141517400D03*
%TO.N,Net-(IC1-FREQ)*%
X111442000Y-137910600D03*
%TO.N,DRV_MODE*%
X129159000Y-90170000D03*
X129159000Y-113411000D03*
%TO.N,DRV_NSLEEP*%
X128333500Y-92745500D03*
X128346200Y-113411000D03*
D27*
%TO.N,+5V*%
X132715000Y-126365000D03*
X133731000Y-127254000D03*
X133731000Y-126365000D03*
X132715000Y-127254000D03*
D28*
%TO.N,SRF-05_TRIG*%
X123063000Y-96266000D03*
%TO.N,SRF-05_ECHO*%
X123063000Y-97155000D03*
%TO.N,SRF-05_IN*%
X127473000Y-96520000D03*
%TO.N,I2C_SDA*%
X127274589Y-115041411D03*
X131826000Y-107823000D03*
%TO.N,I2C_SCL*%
X128143000Y-115062000D03*
X132715000Y-107823000D03*
%TO.N,WS_LED_1*%
X123127433Y-93472000D03*
%TO.N,SWCLK*%
X136525000Y-101092000D03*
%TO.N,SWO*%
X134594767Y-97510767D03*
%TO.N,WS_LED_0*%
X122428000Y-93218000D03*
X106807000Y-96520000D03*
%TO.N,ENC_A_1*%
X124841000Y-100838000D03*
%TO.N,ENC_A_2*%
X124841000Y-100076000D03*
%TO.N,ENC_B_1*%
X133604000Y-96139000D03*
%TO.N,ENC_B_2*%
X133477000Y-95377000D03*
%TO.N,LATCH_POWERUP*%
X149902200Y-133842000D03*
%TO.N,BOOT0*%
X141097000Y-106426000D03*
X134472672Y-95138000D03*
%TO.N,Net-(SW1-B)*%
X141097000Y-112776000D03*
%TO.N,BATT_ADC_0*%
X105359200Y-116103400D03*
X121666000Y-97028000D03*
%TO.N,KEEP_ALIVE*%
X126111000Y-95250000D03*
X151142200Y-138190000D03*
X121666000Y-108458000D03*
%TO.N,Net-(U2-PC15)*%
X129794000Y-89570000D03*
X148590000Y-95250000D03*
%TO.N,EXT_USART_TX*%
X108423000Y-95850000D03*
X121716800Y-92964000D03*
%TO.N,EXT_USART_RX*%
X121017297Y-92710000D03*
X109728000Y-95250500D03*
%TO.N,NRF_SCK*%
X135607819Y-98147319D03*
X135636000Y-99824500D03*
%TO.N,MPU-6050_IRQ*%
X134874000Y-96266000D03*
X138633500Y-96266000D03*
%TO.N,EXT_PA4*%
X110998000Y-94650500D03*
X117094000Y-94650500D03*
%TD*%
D29*
%TO.N,+BATT*%
X115074200Y-138245400D02*
X115074200Y-139206000D01*
D30*
X135648200Y-136442000D02*
X135648200Y-143840000D01*
D29*
%TO.N,GND*%
X116979200Y-135396000D02*
X115171200Y-135396000D01*
X115171200Y-135396000D02*
X115074200Y-135493000D01*
D31*
X139827000Y-118745000D02*
X138811000Y-118745000D01*
%TO.N,+3.3V*%
X142427000Y-118745000D02*
X143383000Y-118745000D01*
D30*
%TO.N,NRST*%
X140716000Y-93345000D02*
X143542000Y-96171000D01*
X129921000Y-93345000D02*
X140716000Y-93345000D01*
X143542000Y-96171000D02*
X143542000Y-105410000D01*
D31*
%TO.N,5V_Conv*%
X134523000Y-128905000D02*
X134523000Y-130653000D01*
%TO.N,5V_Stab*%
X131923000Y-128905000D02*
X131064000Y-128046000D01*
X131064000Y-128046000D02*
X131064000Y-126746000D01*
D30*
%TO.N,Net-(IC1-SS)*%
X112661200Y-137047000D02*
X112661200Y-133237000D01*
X113905800Y-131992400D02*
X116852200Y-131992400D01*
X112661200Y-133237000D02*
X113905800Y-131992400D01*
%TO.N,Power_Btn*%
X126365000Y-108966000D02*
X126365000Y-129794000D01*
X128807000Y-132236000D02*
X147711700Y-132236000D01*
X126365000Y-129794000D02*
X128807000Y-132236000D01*
X113538000Y-103164471D02*
X113538000Y-103627000D01*
X147711700Y-132236000D02*
X147718200Y-132242500D01*
X117261471Y-99441000D02*
X113538000Y-103164471D01*
X125476000Y-99441000D02*
X117261471Y-99441000D01*
%TO.N,EN*%
X125158000Y-141517400D02*
X125158000Y-140755400D01*
X125107200Y-141466600D02*
X125158000Y-141517400D01*
X110045000Y-133211600D02*
X110045000Y-131916200D01*
X121663200Y-131190000D02*
X122757700Y-132284500D01*
X110045000Y-131916200D02*
X110771200Y-131190000D01*
X122679200Y-132206000D02*
X125615200Y-135142000D01*
X125158000Y-140755400D02*
X125092200Y-140689600D01*
X135648200Y-135142000D02*
X125615200Y-135142000D01*
X110771200Y-131190000D02*
X121663200Y-131190000D01*
X125158000Y-135599200D02*
X125615200Y-135142000D01*
X125158000Y-135599200D02*
X125158000Y-141517400D01*
X125107200Y-140704600D02*
X125158000Y-140755400D01*
%TO.N,Net-(IC1-FREQ)*%
X114490000Y-136945400D02*
X115074200Y-136945400D01*
X113524800Y-137910600D02*
X114490000Y-136945400D01*
X111442000Y-137910600D02*
X113524800Y-137910600D01*
%TO.N,DRV_MODE*%
X129159000Y-113411000D02*
X129159000Y-90170000D01*
%TO.N,DRV_NSLEEP*%
X128346200Y-92758200D02*
X128333500Y-92745500D01*
X128346200Y-113411000D02*
X128346200Y-92758200D01*
D31*
%TO.N,+5V*%
X133223000Y-128905000D02*
X133223000Y-127127000D01*
D30*
%TO.N,SRF-05_TRIG*%
X126238000Y-93091000D02*
X126238000Y-81788000D01*
X140970000Y-76454000D02*
X141478000Y-75946000D01*
X131572000Y-76454000D02*
X140970000Y-76454000D01*
X123063000Y-96266000D02*
X126238000Y-93091000D01*
X141478000Y-73744000D02*
X140548000Y-72814000D01*
X126238000Y-81788000D02*
X131572000Y-76454000D01*
X140548000Y-72814000D02*
X140294000Y-72814000D01*
X141478000Y-75946000D02*
X141478000Y-73744000D01*
%TO.N,SRF-05_ECHO*%
X131826000Y-77089000D02*
X141351000Y-77089000D01*
X126873000Y-82042000D02*
X131826000Y-77089000D01*
X141351000Y-77089000D02*
X142240000Y-76200000D01*
X142240000Y-72614000D02*
X142294000Y-72560000D01*
X142240000Y-76200000D02*
X142240000Y-72614000D01*
X123063000Y-97155000D02*
X126873000Y-93345000D01*
X142294000Y-72560000D02*
X142294000Y-72814000D01*
X126873000Y-93345000D02*
X126873000Y-82042000D01*
%TO.N,SRF-05_IN*%
X141732000Y-77724000D02*
X142875000Y-76581000D01*
X127473000Y-96520000D02*
X127473000Y-82331000D01*
X132080000Y-77724000D02*
X141732000Y-77724000D01*
X142875000Y-76581000D02*
X142875000Y-73979000D01*
X142875000Y-73979000D02*
X144294000Y-72560000D01*
X127473000Y-82331000D02*
X132080000Y-77724000D01*
%TO.N,I2C_SDA*%
X131826000Y-113538000D02*
X131826000Y-107823000D01*
X113538000Y-113919000D02*
X113919000Y-114300000D01*
X131191000Y-114173000D02*
X131826000Y-113538000D01*
X128143000Y-114173000D02*
X131191000Y-114173000D01*
X127274589Y-115041411D02*
X128143000Y-114173000D01*
X113538000Y-113787000D02*
X113538000Y-113919000D01*
%TO.N,I2C_SCL*%
X131572000Y-115062000D02*
X132715000Y-113919000D01*
X132715000Y-113919000D02*
X132715000Y-107823000D01*
X128143000Y-115062000D02*
X131572000Y-115062000D01*
%TO.N,WS_LED_1*%
X120523000Y-97155000D02*
X103097000Y-97155000D01*
X123127433Y-93472000D02*
X123127433Y-94550567D01*
X123127433Y-94550567D02*
X120523000Y-97155000D01*
X103097000Y-97155000D02*
X103040000Y-97212000D01*
%TO.N,QTR_4*%
X121666000Y-77206500D02*
X121666000Y-77470000D01*
%TO.N,QTR_5*%
X121666000Y-74666500D02*
X121666000Y-74803000D01*
%TO.N,SWCLK*%
X137795000Y-101473000D02*
X137795000Y-108839000D01*
X143446000Y-111506000D02*
X143542000Y-111410000D01*
X139065000Y-110109000D02*
X142241000Y-110109000D01*
X142241000Y-110109000D02*
X143542000Y-111410000D01*
X137795000Y-108839000D02*
X139065000Y-110109000D01*
X136525000Y-101092000D02*
X137414000Y-101092000D01*
X137414000Y-101092000D02*
X137795000Y-101473000D01*
%TO.N,SWO*%
X138430000Y-108585000D02*
X139319000Y-109474000D01*
X134594767Y-97510767D02*
X134620000Y-97536000D01*
X138430000Y-101346000D02*
X138430000Y-101600000D01*
X138430000Y-101600000D02*
X138430000Y-108585000D01*
X137668000Y-97536000D02*
X138430000Y-98298000D01*
X143478000Y-109474000D02*
X143542000Y-109410000D01*
X138430000Y-98298000D02*
X138430000Y-101600000D01*
X134620000Y-97536000D02*
X137668000Y-97536000D01*
X139319000Y-109474000D02*
X143478000Y-109474000D01*
%TO.N,WS_LED_0*%
X122428000Y-93218000D02*
X122428000Y-94297500D01*
X120205500Y-96520000D02*
X106807000Y-96520000D01*
X122428000Y-94297500D02*
X120205500Y-96520000D01*
%TO.N,ENC_A_1*%
X124841000Y-100838000D02*
X120904000Y-100838000D01*
X113538000Y-123698000D02*
X104242000Y-123698000D01*
X116586000Y-120650000D02*
X113538000Y-123698000D01*
X104242000Y-123698000D02*
X104000000Y-123940000D01*
X120904000Y-100838000D02*
X116586000Y-105156000D01*
X116586000Y-105156000D02*
X116586000Y-120650000D01*
%TO.N,ENC_A_2*%
X120396000Y-100076000D02*
X115824000Y-104648000D01*
X115824000Y-120396000D02*
X113284000Y-122936000D01*
X104496000Y-122936000D02*
X104000000Y-122440000D01*
X113284000Y-122936000D02*
X104496000Y-122936000D01*
X115824000Y-104648000D02*
X115824000Y-120396000D01*
X124841000Y-100076000D02*
X120396000Y-100076000D01*
%TO.N,ENC_B_1*%
X155504000Y-122936000D02*
X138176000Y-122936000D01*
X133604000Y-106553000D02*
X133604000Y-96139000D01*
X138176000Y-122936000D02*
X134239000Y-118999000D01*
X156000000Y-122440000D02*
X155504000Y-122936000D01*
X134239000Y-118999000D02*
X134239000Y-107188000D01*
X134239000Y-107188000D02*
X133604000Y-106553000D01*
%TO.N,ENC_B_2*%
X133477000Y-119380000D02*
X137795000Y-123698000D01*
X132842000Y-96052471D02*
X132842000Y-96012000D01*
X132842000Y-96012000D02*
X133477000Y-95377000D01*
X155758000Y-123698000D02*
X156000000Y-123940000D01*
X133477000Y-107696000D02*
X133477000Y-119380000D01*
X132842000Y-96052471D02*
X132842000Y-107061000D01*
X137795000Y-123698000D02*
X155758000Y-123698000D01*
X132842000Y-107061000D02*
X133477000Y-107696000D01*
%TO.N,LATCH_POWERUP*%
X149902200Y-133842000D02*
X135648200Y-133842000D01*
%TO.N,BOOT0*%
X134472672Y-95138000D02*
X140604000Y-95138000D01*
X142621000Y-97155000D02*
X142621000Y-104902000D01*
X142621000Y-104902000D02*
X141097000Y-106426000D01*
X140604000Y-95138000D02*
X142621000Y-97155000D01*
%TO.N,Net-(SW1-B)*%
X141097000Y-118715000D02*
X141127000Y-118745000D01*
X141097000Y-112776000D02*
X141097000Y-118715000D01*
%TO.N,BATT_ADC_0*%
X121666000Y-97028000D02*
X120904000Y-97790000D01*
X105359200Y-99517200D02*
X105359200Y-115722400D01*
X107086400Y-97790000D02*
X105359200Y-99517200D01*
X120904000Y-97790000D02*
X107086400Y-97790000D01*
%TO.N,KEEP_ALIVE*%
X151142200Y-138190000D02*
X151142200Y-133616200D01*
X128420000Y-132992000D02*
X125476000Y-130048000D01*
X150518000Y-132992000D02*
X128420000Y-132992000D01*
X124587000Y-108458000D02*
X126111000Y-106934000D01*
X125476000Y-130048000D02*
X125476000Y-109347000D01*
X126111000Y-95250000D02*
X126111000Y-106934000D01*
X125476000Y-109347000D02*
X124587000Y-108458000D01*
X124587000Y-108458000D02*
X121666000Y-108458000D01*
X151142200Y-133616200D02*
X150518000Y-132992000D01*
%TO.N,Net-(U2-PC15)*%
X129794000Y-89570000D02*
X129886000Y-89662000D01*
X148590000Y-92075000D02*
X148590000Y-95250000D01*
X129886000Y-89662000D02*
X146177000Y-89662000D01*
X146177000Y-89662000D02*
X148590000Y-92075000D01*
%TO.N,EXT_USART_TX*%
X121716800Y-94056200D02*
X121716800Y-92964000D01*
X108423000Y-95850000D02*
X119923000Y-95850000D01*
X119923000Y-95850000D02*
X121716800Y-94056200D01*
%TO.N,EXT_USART_RX*%
X121031000Y-92723703D02*
X121017297Y-92710000D01*
X109728500Y-95250000D02*
X119634000Y-95250000D01*
X121031000Y-93853000D02*
X121031000Y-92723703D01*
X119634000Y-95250000D02*
X121031000Y-93853000D01*
X109728000Y-95250500D02*
X109728500Y-95250000D01*
D32*
%TO.N,NRF_SCK*%
X135607819Y-99796319D02*
X135636000Y-99824500D01*
X135607819Y-98147319D02*
X135636000Y-98175500D01*
X135607819Y-98147319D02*
X135607819Y-99796319D01*
D30*
%TO.N,MPU-6050_IRQ*%
X138633500Y-96266000D02*
X134874000Y-96266000D01*
%TO.N,EXT_PA4*%
X117094000Y-94650500D02*
X110998000Y-94650500D01*
%TD*%
%TA.AperFunction,Conductor*%
%TO.N,GND*%
G36*
X148047971Y-87378381D02*
G01*
X148126618Y-87394024D01*
X148171308Y-87412535D01*
X148227626Y-87450166D01*
X148261833Y-87484373D01*
X148299462Y-87540688D01*
X148317976Y-87585387D01*
X148333617Y-87664020D01*
X148336000Y-87688211D01*
X148336000Y-89103200D01*
X159575500Y-89103200D01*
X159637500Y-89119813D01*
X159682887Y-89165200D01*
X159699500Y-89227200D01*
X159699500Y-89995200D01*
X159682887Y-90057200D01*
X159637500Y-90102587D01*
X159575500Y-90119200D01*
X147632211Y-90119200D01*
X147608020Y-90116817D01*
X147529387Y-90101176D01*
X147484689Y-90082662D01*
X147428373Y-90045033D01*
X147394166Y-90010826D01*
X147356535Y-89954508D01*
X147338024Y-89909818D01*
X147322381Y-89831171D01*
X147320000Y-89806989D01*
X147320000Y-87688211D01*
X147322381Y-87664028D01*
X147338025Y-87585379D01*
X147356534Y-87540693D01*
X147394168Y-87484370D01*
X147428370Y-87450168D01*
X147484693Y-87412534D01*
X147529379Y-87394025D01*
X147608028Y-87378381D01*
X147632211Y-87376000D01*
X148023789Y-87376000D01*
X148047971Y-87378381D01*
G37*
%TD.AperFunction*%
%TD*%
%TA.AperFunction,Conductor*%
%TO.N,GND*%
G36*
X159637500Y-79569413D02*
G01*
X159682887Y-79614800D01*
X159699500Y-79676800D01*
X159699500Y-80444800D01*
X159682887Y-80506800D01*
X159637500Y-80552187D01*
X159575500Y-80568800D01*
X148336000Y-80568800D01*
X148336000Y-82629200D01*
X148319387Y-82691200D01*
X148274000Y-82736587D01*
X148212000Y-82753200D01*
X147444000Y-82753200D01*
X147382000Y-82736587D01*
X147336613Y-82691200D01*
X147320000Y-82629200D01*
X147320000Y-79676800D01*
X147336613Y-79614800D01*
X147382000Y-79569413D01*
X147444000Y-79552800D01*
X159575500Y-79552800D01*
X159637500Y-79569413D01*
G37*
%TD.AperFunction*%
%TD*%
%TA.AperFunction,Conductor*%
%TO.N,+5V*%
G36*
X133721641Y-125985527D02*
G01*
X133816207Y-126000504D01*
X133853102Y-126012491D01*
X133929617Y-126051477D01*
X133961002Y-126074281D01*
X134021718Y-126134997D01*
X134044522Y-126166383D01*
X134083507Y-126242895D01*
X134095495Y-126279792D01*
X134110473Y-126374358D01*
X134112000Y-126393756D01*
X134112000Y-127352244D01*
X134110473Y-127371642D01*
X134095495Y-127466207D01*
X134083507Y-127503104D01*
X134044522Y-127579616D01*
X134021718Y-127611002D01*
X133961002Y-127671718D01*
X133929616Y-127694522D01*
X133853104Y-127733507D01*
X133816207Y-127745495D01*
X133736425Y-127758131D01*
X133721640Y-127760473D01*
X133702244Y-127762000D01*
X132743756Y-127762000D01*
X132724359Y-127760473D01*
X132705258Y-127757447D01*
X132629792Y-127745495D01*
X132592895Y-127733507D01*
X132516383Y-127694522D01*
X132484997Y-127671718D01*
X132424281Y-127611002D01*
X132401477Y-127579616D01*
X132362492Y-127503104D01*
X132350504Y-127466206D01*
X132335527Y-127371641D01*
X132334000Y-127352244D01*
X132334000Y-126393756D01*
X132335525Y-126374370D01*
X132350505Y-126279784D01*
X132362490Y-126242898D01*
X132401479Y-126166379D01*
X132424278Y-126135000D01*
X132485000Y-126074278D01*
X132516379Y-126051479D01*
X132592898Y-126012490D01*
X132629784Y-126000505D01*
X132724370Y-125985525D01*
X132743756Y-125984000D01*
X133702244Y-125984000D01*
X133721641Y-125985527D01*
G37*
%TD.AperFunction*%
%TD*%
%TA.AperFunction,Conductor*%
%TO.N,5V_Conv*%
G36*
X134991641Y-130049527D02*
G01*
X135086207Y-130064504D01*
X135123102Y-130076491D01*
X135199617Y-130115477D01*
X135231002Y-130138281D01*
X135291718Y-130198997D01*
X135314522Y-130230383D01*
X135353507Y-130306895D01*
X135365495Y-130343792D01*
X135380473Y-130438358D01*
X135382000Y-130457756D01*
X135382000Y-131416244D01*
X135380473Y-131435642D01*
X135365495Y-131530207D01*
X135353507Y-131567104D01*
X135314522Y-131643616D01*
X135291718Y-131675002D01*
X135231002Y-131735718D01*
X135199619Y-131758520D01*
X135173198Y-131771983D01*
X135116900Y-131785500D01*
X133869100Y-131785500D01*
X133812804Y-131771984D01*
X133786382Y-131758521D01*
X133754997Y-131735718D01*
X133694281Y-131675002D01*
X133671477Y-131643616D01*
X133632492Y-131567104D01*
X133620504Y-131530206D01*
X133605527Y-131435641D01*
X133604000Y-131416244D01*
X133604000Y-130457756D01*
X133605525Y-130438370D01*
X133620505Y-130343784D01*
X133632490Y-130306898D01*
X133671479Y-130230379D01*
X133694278Y-130199000D01*
X133755000Y-130138278D01*
X133786379Y-130115479D01*
X133862898Y-130076490D01*
X133899784Y-130064505D01*
X133994370Y-130049525D01*
X134013756Y-130048000D01*
X134972244Y-130048000D01*
X134991641Y-130049527D01*
G37*
%TD.AperFunction*%
%TD*%
%TA.AperFunction,Conductor*%
%TO.N,5V_Stab*%
G36*
X131562641Y-125985527D02*
G01*
X131657207Y-126000504D01*
X131694102Y-126012491D01*
X131770617Y-126051477D01*
X131802002Y-126074281D01*
X131862718Y-126134997D01*
X131885522Y-126166383D01*
X131924507Y-126242895D01*
X131936495Y-126279792D01*
X131951473Y-126374358D01*
X131953000Y-126393756D01*
X131953000Y-127352244D01*
X131951473Y-127371642D01*
X131936495Y-127466207D01*
X131924507Y-127503104D01*
X131885522Y-127579616D01*
X131862718Y-127611002D01*
X131802002Y-127671718D01*
X131770616Y-127694522D01*
X131694104Y-127733507D01*
X131657207Y-127745495D01*
X131577425Y-127758131D01*
X131562640Y-127760473D01*
X131543244Y-127762000D01*
X130584756Y-127762000D01*
X130565359Y-127760473D01*
X130546258Y-127757447D01*
X130470792Y-127745495D01*
X130433895Y-127733507D01*
X130357383Y-127694522D01*
X130325997Y-127671718D01*
X130265281Y-127611002D01*
X130242477Y-127579616D01*
X130203492Y-127503104D01*
X130191504Y-127466206D01*
X130176527Y-127371641D01*
X130175000Y-127352244D01*
X130175000Y-126393756D01*
X130176525Y-126374370D01*
X130191505Y-126279784D01*
X130203490Y-126242898D01*
X130242479Y-126166379D01*
X130265278Y-126135000D01*
X130326000Y-126074278D01*
X130357379Y-126051479D01*
X130433898Y-126012490D01*
X130470784Y-126000505D01*
X130565370Y-125985525D01*
X130584756Y-125984000D01*
X131543244Y-125984000D01*
X131562641Y-125985527D01*
G37*
%TD.AperFunction*%
%TD*%
M02*
